<svg width="37" height="37" viewBox="0 0 37 37" fill="none" xmlns="http://www.w3.org/2000/svg">
<rect opacity="0.08" y="16.7113" width="29.7364" height="22.2499" rx="11.1249" transform="rotate(-29.6516 0 16.7113)" fill="#0A2342"/>
<g clip-path="url(#clip0_13205_7333)">
<path d="M26.6857 7.31527L24.5783 25.9655C24.5783 27.512 23.5758 29.0584 21.586 30.2182C17.5838 32.5843 11.0716 32.5843 7.04271 30.2182C5.01499 29.0236 4.00493 27.4617 4.00493 25.8998L2 7.23792C2 9.11299 3.21131 10.9881 5.64533 12.4185C10.4792 15.2602 18.2939 15.2602 23.1125 12.4185C25.4858 11.0151 26.6819 9.16714 26.6857 7.31527Z" fill="#FFAB00"/>
<path d="M26.6859 7.31536L24.5785 25.9656C24.5785 27.512 23.576 29.0585 21.5863 30.2183C21.0558 30.5276 20.5022 30.7939 19.9307 31.0147L21.1116 13.3736C21.7987 13.1126 22.463 12.7931 23.0975 12.4186C25.486 11.0075 26.6821 9.1595 26.6859 7.30762V7.31536Z" fill="#FF9D00"/>
<path d="M21.1107 13.3812L19.9298 31.0224C18.628 31.509 17.2677 31.8146 15.8857 31.931L16.2655 14.4754C17.9242 14.3357 19.5567 13.9676 21.1183 13.3812H21.1107Z" fill="#FF9D00"/>
<path d="M16.2549 14.4754L15.8751 31.931C12.8374 32.2055 9.60592 31.672 7.20988 30.3266L5.84668 12.5424C8.72497 14.1545 12.5905 14.7963 16.2473 14.4754H16.2549Z" fill="#FFAB00"/>
<path d="M5.85777 12.5501L7.22098 30.3344L7.04251 30.2338C6.14706 29.7341 5.36953 29.0414 4.76418 28.2041L2.91113 10.0023C3.63855 11.008 4.57458 11.8383 5.65272 12.4341L5.86537 12.5578L5.85777 12.5501Z" fill="#FF9D00"/>
<path d="M2.90352 9.9943L4.75656 28.1961C4.27674 27.5317 4.01138 26.7319 3.99712 25.9073L1.99219 7.24548C2.00512 8.23519 2.32105 9.19612 2.89593 9.9943H2.90352Z" fill="#FF9D00"/>
<path d="M23.0399 2.13461C27.8776 4.97622 27.9042 9.58465 23.0969 12.4263C18.2896 15.2679 10.4787 15.2679 5.62967 12.4263C0.780622 9.58465 0.769227 4.97622 5.57271 2.13461C10.3762 -0.706999 18.2061 -0.710865 23.0399 2.13461Z" fill="#FFC040"/>
<path d="M26.0439 7.29979C26.0439 8.60268 25.3604 9.85919 24.0845 10.9378C23.6748 11.2837 23.2365 11.5929 22.7745 11.8619C20.5493 13.1802 17.5685 13.907 14.3826 13.907C11.1967 13.907 8.20832 13.1802 5.96417 11.8619C5.48379 11.5809 5.02775 11.2588 4.60097 10.8992C3.3289 9.82054 2.6454 8.56016 2.6416 7.26114C2.6416 5.56778 3.78077 3.94398 5.91101 2.69908C8.13618 1.38073 11.117 0.653931 14.3029 0.653931C17.4887 0.653931 20.4771 1.38073 22.7213 2.69908C24.8629 3.95558 26.0401 5.59096 26.0439 7.29979Z" fill="#FF9D00"/>
<path d="M24.0841 10.9378C23.6744 11.2837 23.2361 11.5929 22.7741 11.8618C20.5489 13.1802 17.5681 13.907 14.3822 13.907C11.1964 13.907 8.20794 13.1802 5.96379 11.8618C5.48341 11.5809 5.02737 11.2588 4.60059 10.8992C5.01041 10.5546 5.44872 10.2467 5.91062 9.97904C8.13579 8.66069 11.1166 7.93384 14.3025 7.93384C17.4883 7.93384 20.4768 8.66069 22.7209 9.97904C23.202 10.2574 23.6582 10.5782 24.0841 10.9378Z" fill="#A1E4FF"/>
<path d="M14.3557 25.8263C4.91959 25.8263 2.67163 15.8208 2.1704 9.85531C2.15529 9.67536 2.21102 9.49666 2.32531 9.35854C2.43961 9.22042 2.60311 9.13422 2.77985 9.11884C2.9566 9.10346 3.1321 9.1602 3.26776 9.27657C3.40342 9.39294 3.48812 9.5594 3.50322 9.73935C3.96648 15.237 5.9904 24.4616 14.3557 24.4616C22.7209 24.4616 24.7411 15.237 25.2043 9.73935C25.2063 9.64582 25.227 9.55369 25.2653 9.46865C25.3036 9.3836 25.3586 9.30745 25.4269 9.2449C25.4952 9.18235 25.5754 9.13472 25.6625 9.10497C25.7496 9.07522 25.8418 9.06399 25.9334 9.07193C26.0249 9.07988 26.1139 9.10684 26.1948 9.15117C26.2757 9.1955 26.3468 9.25624 26.4038 9.32966C26.4607 9.40308 26.5023 9.48763 26.5259 9.57804C26.5494 9.66845 26.5546 9.76279 26.5409 9.85531C26.0283 15.8208 23.7766 25.8263 14.3557 25.8263Z" fill="#4B3D46"/>
</g>
<defs>
<clipPath id="clip0_13205_7333">
<rect width="24.6857" height="32" fill="white" transform="translate(2 0.000488281)"/>
</clipPath>
</defs>
</svg>
