<svg width="80" height="81" fill="none" xmlns="http://www.w3.org/2000/svg"><rect y=".5" width="80" height="80" rx="16" fill="#fff"/><g clip-path="url(#clip0_13617_15968)"><g clip-path="url(#clip1_13617_15968)" fill-rule="evenodd" clip-rule="evenodd"><path d="M64 49.76c-.005 5.716-4.739 10.348-10.577 10.348L47.72 60.1l.008 3.162a.831.831 0 01-.572.78.859.859 0 01-.94-.27l-5.647-7.17a.764.764 0 010-.947l5.67-7.186a.835.835 0 01.926-.273c.337.114.56.427.555.775v3.179l9.128-.008L64 49.76z" fill="#EEF8F6"/><path d="M63.999 49.76a2.382 2.382 0 01-1.058 1.96c-.406.282-.893.43-1.391.422h-4.702l-4.117-5.8a1.582 1.582 0 01.407-2.222l4.01-2.725a1.65 1.65 0 012.262.399l3.735 5.25c.56.796.855 1.741.846 2.708l.008.008z" fill="#D8E7E4"/><path d="M34.678 19.305c5.04-2.883 11.512-1.225 14.465 3.705l2.88 4.811 2.782-1.601a.86.86 0 01.977.087c.274.23.368.605.235.933l-3.457 8.396a.802.802 0 01-.838.478l-9.202-1.147a.81.81 0 01-.31-1.514l2.808-1.609-4.62-7.711-5.72-4.828z" fill="#FFC040"/><path d="M40.398 24.133l-3.034 6.42a1.641 1.641 0 01-2.156.781l-4.434-2.007a1.58 1.58 0 01-.797-2.111l2.741-5.808a4.722 4.722 0 011.953-2.095l.008-.008a2.494 2.494 0 012.262-.095c.45.202.826.536 1.074.956l2.383 3.967z" fill="#EDB23B"/><path d="M33.824 53.966c-1.38 4.32-5.909 6.885-10.421 5.903a7.507 7.507 0 01-1.587-.558c-4.142-2.055-6.066-6.814-4.483-11.089 2.49-7.193 9.747-11.821 12.798-13.494a.874.874 0 01.86.012.837.837 0 01.417.737c-.236 8.268 5.434 9.79 2.416 18.489z" fill="#2CA58D"/><path d="M27.202 46.247c-2.953 6.604-3.523 9.503-3.8 13.622a7.513 7.513 0 01-1.586-.558c.293-3.983.952-7.121 3.897-13.71a.797.797 0 01.447-.42.82.82 0 01.62.014.805.805 0 01.434.44.781.781 0 01-.012.612z" fill="#258F7A"/></g></g><defs><clipPath id="clip0_13617_15968"><path fill="#fff" transform="translate(16 17)" d="M0 0h48v47H0z"/></clipPath><clipPath id="clip1_13617_15968"><path fill="#fff" transform="translate(16 17.49)" d="M0 0h48v47H0z"/></clipPath></defs></svg>