<svg width="80" height="81" fill="none" xmlns="http://www.w3.org/2000/svg"><rect y=".5" width="80" height="80" rx="16" fill="#fff"/><path d="M60.356 37.34a2.747 2.747 0 01-3.475.604 1.877 1.877 0 01-.398-.275L40.396 24.055 24.31 37.67a2.662 2.662 0 01-.398.288 2.747 2.747 0 01-3.146-4.492l4.52-3.819 6.868-5.81 6.47-5.482a2.748 2.748 0 013.544 0l17.859 15.111a2.76 2.76 0 01.33 3.874z" fill="#2CA58D"/><path d="M56.881 35.718v25.277a2.052 2.052 0 01-2.046 2.047H25.959a2.052 2.052 0 01-2.047-2.047V35.732c.142-.084.275-.18.399-.288L40.397 21.83l16.086 13.614c.12.108.254.2.398.274z" fill="#EEF8F6"/><path d="M32.154 19.083v6.552l-6.869 5.811V19.083c0-.76.615-1.374 1.374-1.374h4.121c.759 0 1.374.615 1.374 1.374z" fill="#258F7A"/><path d="M40.397 53.426a4.121 4.121 0 100-8.243 4.121 4.121 0 000 8.243z" fill="#FFC040"/><path d="M29.407 47.93a1.374 1.374 0 01-1.374-1.373v-5.495c0-.759.615-1.374 1.374-1.374h5.495a1.374 1.374 0 110 2.748H30.78v4.121c0 .759-.615 1.374-1.374 1.374zm5.495 10.99h-5.495a1.374 1.374 0 01-1.374-1.373v-5.495a1.374 1.374 0 112.748 0v4.121h4.12a1.374 1.374 0 110 2.747zm16.484-10.99a1.374 1.374 0 01-1.373-1.373v-4.121H45.89a1.374 1.374 0 110-2.748h5.495c.759 0 1.374.615 1.374 1.374v5.495c0 .759-.615 1.374-1.374 1.374zm0 10.99h-5.495a1.374 1.374 0 110-2.747h4.122v-4.121a1.374 1.374 0 112.747 0v5.495c0 .758-.615 1.373-1.374 1.373z" fill="#2CA58D"/></svg>