<svg width="80" height="80" fill="none" xmlns="http://www.w3.org/2000/svg"><rect width="80" height="80" rx="16" fill="#fff"/><g clip-path="url(#clip0_13617_15981)"><path d="M36.721 30.727a7.364 7.364 0 100-14.727 7.364 7.364 0 000 14.727z" fill="#2CA58D"/><path d="M54.628 32.977a2.992 2.992 0 00-2.992 2.992v-2.413a2.992 2.992 0 10-5.983 0v-1.208a2.992 2.992 0 10-5.983 0V22.244a2.992 2.992 0 10-5.983 0v21.434a.434.434 0 01-.753.293l-4.79-5.208a2.863 2.863 0 00-4.155-.087c-1.134 1.133-1.32 3.144-.416 4.467l7.652 11.189a8.934 8.934 0 005.46 3.682c.18 0 .326.146.326.327v5.048a.61.61 0 00.61.611h17.472a.611.611 0 00.611-.611v-4.42c0-.33.063-.66.184-.968l.231-.59a21.728 21.728 0 001.497-7.635l.004-3.098v-10.71a2.992 2.992 0 00-2.992-2.991z" fill="#FDD7AD"/><path d="M54.628 32.977a2.992 2.992 0 00-2.992 2.992v-2.413a2.992 2.992 0 10-5.983 0v-1.208a2.992 2.992 0 10-5.983 0V22.244a2.992 2.992 0 10-5.983 0v21.434a.434.434 0 01-.753.293l-4.79-5.208a2.863 2.863 0 00-4.155-.087c-1.134 1.133-1.32 3.144-.416 4.467l7.652 11.189a8.934 8.934 0 005.46 3.682c.18 0 .326.146.326.327v5.048a.61.61 0 00.61.611h17.472a.611.611 0 00.611-.611v-4.42c0-.33.063-.66.184-.968l.231-.59a21.728 21.728 0 001.497-7.635l.004-3.098v-10.71a2.992 2.992 0 00-2.992-2.991z" fill="#FDD7AD"/><path d="M33.688 43.651a2.148 2.148 0 002.147-2.147V22.102c0-.901.334-1.715.876-2.306.17-.184.36-.347.567-.484a2.986 2.986 0 00-2.714.816 2.98 2.98 0 00-.877 2.116v21.407zm20.332-7.427c0-1.338.879-2.472 2.092-2.854a2.991 2.991 0 00-4.475 2.598v1.727c0 .065.053.118.118.118h.676c.877 0 1.588-.711 1.588-1.589zm-4.254-5.442a2.96 2.96 0 00-1.07-.217 2.987 2.987 0 00-3.043 3.054v4.618a2.25 2.25 0 002.25-2.25v-2.43c0-1.255.769-2.33 1.863-2.775zm-6.078-1.245a2.976 2.976 0 00-1.079-.18c-1.642.028-2.94 1.37-2.94 3.056v5.669a2.058 2.058 0 002.06-2.059v-3.675c0-1.29.814-2.39 1.96-2.81z" fill="#F9C795"/><path d="M26.105 29a.727.727 0 01-.657-.415 12.363 12.363 0 01-1.202-5.35c0-1.87.405-3.67 1.203-5.348a.727.727 0 111.312.624 10.92 10.92 0 00-1.061 4.725c0 1.653.357 3.243 1.061 4.725A.727.727 0 0126.105 29zm21.233 0a.727.727 0 01-.656-1.039 10.922 10.922 0 001.061-4.725c0-1.653-.357-3.243-1.061-4.725a.727.727 0 111.313-.624 12.364 12.364 0 011.202 5.349c0 1.87-.404 3.67-1.202 5.349a.727.727 0 01-.657.415z" fill="#2CA58D"/><path d="M38.962 57.949a2.43 2.43 0 00-1.353-2.18c-1.434-.707-3.603-1.918-4.433-3.13L25.35 41.196a3.152 3.152 0 01-.55-1.781c0-.459.099-1.014.293-1.433-.4.139-.779.37-1.102.693-1.134 1.133-1.32 3.144-.416 4.467l7.652 11.189a8.933 8.933 0 005.46 3.682c.18 0 .326.146.326.327v5.048a.61.61 0 00.61.611h1.339v-6.051z" fill="#F9C795"/></g><defs><clipPath id="clip0_13617_15981"><path fill="#fff" transform="translate(16 16)" d="M0 0h48v48H0z"/></clipPath></defs></svg>