<svg width="80" height="80" fill="none" xmlns="http://www.w3.org/2000/svg"><rect width="80" height="80" rx="16" fill="#fff"/><g clip-path="url(#clip0_13617_16022)"><path d="M46.623 56.542H33.385v4.965h13.238v-4.965z" fill="#258F7A"/><path d="M63.997 50.75v2.855a3.558 3.558 0 01-3.31 3.765H19.319a3.558 3.558 0 01-3.31-3.765v-2.854h47.99z" fill="#2CA58D"/><path d="M63.997 19.765V50.75H16.01V19.765A3.558 3.558 0 0119.319 16h41.369a3.558 3.558 0 013.31 3.765z" fill="#EEF8F6"/><path d="M31.727 23.62v7.876a.322.322 0 01-.33.306H22.13a.315.315 0 01-.331-.297V23.62l4.708-4.22a.4.4 0 01.513 0l4.707 4.22zm-4.964 13.892v4.965l-4.137 2.482-.116.074a4.964 4.964 0 014.253-7.521z" fill="#FFC040"/><path d="M31.728 42.477a4.918 4.918 0 01-1.456 3.508l-3.508-3.508v-4.965a4.965 4.965 0 014.964 4.965z" fill="#258F7A"/><path d="M30.273 45.985a4.957 4.957 0 01-7.761-.952l.116-.074 4.137-2.482 3.508 3.508z" fill="#2CA58D"/><path d="M43.312 20.137h1.655c.456 0 .827.37.827.827v9.93h-3.31v-9.93c0-.457.37-.827.828-.827z" fill="#FFC040"/><path d="M49.71 24.274h2.101c.334 0 .604.27.604.604v6.015h-3.31v-6.015c0-.334.27-.604.605-.604z" fill="#FF5364"/><path d="M56.2 26.756h2.354c.264 0 .477.214.477.478v3.66h-3.308v-3.66c0-.264.213-.478.477-.478zM39.177 44.959a.827.827 0 01-.585-1.413l2.967-2.967a2.542 2.542 0 013.51 0l.97.97a.827.827 0 001.17 0l3.451-3.452a2.542 2.542 0 013.51 0l.97.97a.827.827 0 001.17 0l2.967-2.966a.827.827 0 011.17 1.17l-2.967 2.967c-.97.966-2.54.966-3.51 0l-.97-.97a.845.845 0 00-1.17 0l-3.452 3.451a2.482 2.482 0 01-3.51 0l-.97-.97a.845.845 0 00-1.17 0l-2.966 2.967a.827.827 0 01-.585.243zM29.246 60.68h21.512a2.482 2.482 0 012.482 2.481v.828H26.764v-.828a2.482 2.482 0 012.482-2.482z" fill="#2CA58D"/><path d="M21.798 24.448a.827.827 0 01-.827-.828v-2.242a.827.827 0 011.655 0v2.242c0 .457-.37.828-.828.828z" fill="#258F7A"/><path d="M33.384 25.929a.828.828 0 01-.552-.211l-6.067-5.431-6.067 5.43a.827.827 0 01-1.104-1.232l6.364-5.697a1.22 1.22 0 011.599-.013l6.38 5.71a.827.827 0 01-.553 1.444z" fill="#2CA58D"/><path d="M59.862 31.72h-19.03a2.482 2.482 0 01-2.482-2.482V19.31a.827.827 0 011.654 0v9.928c0 .457.37.828.828.828h19.03a.827.827 0 010 1.654zm0 16.548h-19.03a2.482 2.482 0 01-2.482-2.482v-9.929a.827.827 0 011.654 0v9.929c0 .457.37.828.828.828h19.03a.827.827 0 010 1.654z" fill="#C2D3D0"/></g><defs><clipPath id="clip0_13617_16022"><path fill="#fff" transform="translate(16 16)" d="M0 0h48v48H0z"/></clipPath></defs></svg>