<svg width="80" height="80" fill="none" xmlns="http://www.w3.org/2000/svg"><rect width="80" height="80" rx="16" fill="#fff"/><g clip-path="url(#clip0_13617_15994)"><g clip-path="url(#clip1_13617_15994)"><path d="M33.725 59.033a4.965 4.965 0 109.93 0l-4.965-1.655-4.965 1.655z" fill="#C2D3D0"/><path d="M46.17 47.447H31.242a15.586 15.586 0 01-4.883-12.886c.047-.6.127-1.196.24-1.787a22.022 22.022 0 014.627-9.41 51.905 51.905 0 016.933-7.17.827.827 0 011.063 0c4.955 4.167 10.314 9.885 11.593 16.58.113.59.193 1.188.24 1.787a15.586 15.586 0 01-4.883 12.886z" fill="#2CA58D"/><path d="M45.112 36.88l-5.595 4.662v-4.469l6.654-5.545a.828.828 0 00-1.06-1.27l-5.594 4.664v-4.47l4.668-3.89a.828.828 0 00-1.06-1.27L39.518 28.3v-4.854a.828.828 0 10-1.655 0V28.3l-3.608-3.007a.828.828 0 10-1.06 1.271l4.668 3.89v4.469l-5.594-4.662a.828.828 0 00-1.06 1.271l6.654 5.545v4.47l-5.594-4.663a.828.828 0 00-1.06 1.272l6.654 5.544v3.746a.828.828 0 001.655 0v-3.75l6.654-5.546a.827.827 0 10-1.06-1.27z" fill="#258F7A"/><path d="M31.242 47.447H46.14v9.93c0 .915-.741 1.656-1.655 1.656H32.897a1.655 1.655 0 01-1.655-1.655v-9.931z" fill="#D8E7E4"/><path d="M34.552 55.723h-3.31a.828.828 0 010-1.655h3.31a.828.828 0 110 1.655zm11.587 0h-8.276a.828.828 0 010-1.655h8.276a.828.828 0 110 1.655zm-.001-3.31h-3.31a.828.828 0 110-1.656h3.31a.828.828 0 110 1.656zm-6.621 0h-8.275a.828.828 0 010-1.656h8.275a.828.828 0 110 1.656z" fill="#C2D3D0"/><path d="M22.138 35.86h-3.31a.828.828 0 110-1.654h3.31a.828.828 0 110 1.655zm36.414 0h-3.31a.828.828 0 010-1.654h3.31a.828.828 0 110 1.655zM21.49 45.792a.828.828 0 01-.414-1.545l2.867-1.655a.828.828 0 11.828 1.434l-2.867 1.655a.822.822 0 01-.414.11zm31.535-18.207a.828.828 0 01-.414-1.544l2.868-1.656a.828.828 0 11.827 1.434l-2.867 1.655a.82.82 0 01-.414.11zm2.865 18.207a.822.822 0 01-.414-.111l-2.868-1.655a.827.827 0 11.828-1.434l2.867 1.655a.828.828 0 01-.414 1.545zM24.355 27.585a.82.82 0 01-.414-.111l-2.868-1.655a.828.828 0 01.828-1.434l2.867 1.656a.828.828 0 01-.413 1.544z" fill="#FFC040"/></g></g><defs><clipPath id="clip0_13617_15994"><path fill="#fff" transform="translate(16 16)" d="M0 0h48v48H0z"/></clipPath><clipPath id="clip1_13617_15994"><path fill="#fff" transform="translate(15 16)" d="M0 0h48v48H0z"/></clipPath></defs></svg>