<svg width="80" height="80" fill="none" xmlns="http://www.w3.org/2000/svg"><g clip-path="url(#clip0_13627_19733)"><path d="M37.438 52.039c0-1.289.397-2.486 1.074-3.477a3.784 3.784 0 01-1.809-2.843c-.664.352-1.365.65-2.108.873l-.22.067-.22-.066a11.656 11.656 0 01-2.109-.873 3.795 3.795 0 01-2.409 3.144l-5.97 2.322a8.369 8.369 0 00-5.37 7.849v3.668h4.594v-7.656h1.53v7.656h21.121l-6.295-6.295a6.14 6.14 0 01-1.81-4.37z" fill="#F9C795"/><path d="M38.798 33.726l-6.33 2.374-1.056-2.11a2.06 2.06 0 00-1.854-1.146c-1.143 0-2.074.93-2.074 2.073v.652a9.914 9.914 0 006.891 9.489 9.914 9.914 0 006.89-9.489v-.132a1.829 1.829 0 00-2.467-1.711z" fill="#FDD7AD"/><path d="M25.953 35.57v-.653a3.609 3.609 0 013.605-3.605c1.374 0 2.61.764 3.224 1.993l.438.877 5.04-1.89a3.362 3.362 0 014.537 3.144v.133c0 1.421-.262 2.786-.734 4.054a9.193 9.193 0 002.265-6.014v-.317c0-4.891-3.979-8.87-8.87-8.87-2.006 0-3.974.69-5.54 1.944l-1.345 1.076-.197.032a4.716 4.716 0 00-3.954 4.668v1.467a9.2 9.2 0 002.265 6.014 11.59 11.59 0 01-.734-4.054z" fill="#258F7A"/><path d="M59.64 21.36H38.204v1.91a10.423 10.423 0 017.277 7.277h2.844l1.888-7.553 3.991 7.982 1.091-2.726h4.347v-6.89zm-6.944 26.03a4.617 4.617 0 00-3.287 1.362l-1.253 1.252-1.252-1.252a4.617 4.617 0 00-3.287-1.361 4.654 4.654 0 00-4.648 4.648c0 1.242.483 2.408 1.361 3.287l7.06 7.06c.403.403 1.13.403 1.532 0l7.06-7.06a4.617 4.617 0 001.362-3.287 4.654 4.654 0 00-4.648-4.648zm-4.54 13.782a.766.766 0 110-1.532.766.766 0 010 1.532zm.766-3.063H47.39v-6.89h1.53v6.89zm2.335-.224l-1.083-1.082 1.27-1.27 1.082 1.083-1.269 1.269zm3.642-3.642l-1.345 1.345-1.083-1.082 1.346-1.346c.295-.295.464-.704.464-1.121 0-.855-.695-1.566-1.549-1.586l.036-1.53a3.135 3.135 0 013.044 3.116c0 .82-.332 1.624-.913 2.204z" fill="#2CA58D"/><path d="M60.406 18.297H37.438a2.3 2.3 0 00-2.297 2.297v2.31c.105-.003.21-.013.317-.013.412 0 .815.03 1.214.077v-1.609c0-.844.687-1.53 1.531-1.53h21.438c.844 0 1.53.686 1.53 1.53v15.313c0 .844-.686 1.531-1.53 1.531H44.805a10.854 10.854 0 01-.894 1.531h16.495a2.3 2.3 0 002.297-2.297V20.595a2.3 2.3 0 00-2.297-2.297z" fill="#2CA58D"/><path d="M45.402 36.672H59.64v-6.89h-3.31l-1.972 4.93-3.665-7.331-1.174 4.697h-3.737c.046.399.077.802.077 1.214v.317c0 1.05-.16 2.081-.457 3.063z" fill="#2CA58D"/></g><defs><clipPath id="clip0_13627_19733"><path fill="#fff" transform="translate(16 16)" d="M0 0h48v48H0z"/></clipPath></defs></svg>