<svg width="10" height="6" viewBox="0 0 10 6" fill="none" xmlns="http://www.w3.org/2000/svg">
<path d="M9.70742 0.735998C9.61455 0.643072 9.50428 0.569355 9.38292 0.51906C9.26155 0.468766 9.13146 0.442879 9.00008 0.442879C8.86871 0.442879 8.73862 0.468766 8.61725 0.51906C8.49589 0.569355 8.38562 0.643072 8.29275 0.735998L5.23542 3.79267C5.17291 3.85516 5.08814 3.89026 4.99975 3.89026C4.91136 3.89026 4.82659 3.85516 4.76408 3.79267L1.70742 0.735998C1.51991 0.548402 1.26556 0.442976 1.00032 0.442914C0.735081 0.442851 0.480681 0.548157 0.293085 0.735665C0.105488 0.923173 6.25419e-05 1.17752 2.78174e-08 1.44276C-6.24863e-05 1.708 0.105243 1.9624 0.292751 2.15L3.35008 5.20733C3.56676 5.42403 3.82399 5.59592 4.1071 5.7132C4.39021 5.83047 4.69365 5.89083 5.00008 5.89083C5.30652 5.89083 5.60996 5.83047 5.89307 5.7132C6.17618 5.59592 6.43341 5.42403 6.65008 5.20733L9.70742 2.15C9.89489 1.96247 10.0002 1.70816 10.0002 1.443C10.0002 1.17783 9.89489 0.923526 9.70742 0.735998Z" fill="#0A2342"/>
</svg>
