<svg width="17" height="10" viewBox="0 0 17 10" fill="none" xmlns="http://www.w3.org/2000/svg">
<path d="M12.728 8.81842L15.3407 6.20575C15.7649 5.76118 16.0016 5.17027 16.0016 4.55575C16.0016 3.94123 15.7649 3.35033 15.3407 2.90575L12.728 0.293085C12.5405 0.105488 12.2861 6.25399e-05 12.0209 2.78156e-08C11.7557 -6.24843e-05 11.5013 0.105244 11.3137 0.292752C11.1261 0.48026 11.0206 0.73461 11.0206 0.999849C11.0205 1.26509 11.1258 1.51949 11.3133 1.70709L13.1667 3.56109L1 3.57642C0.734784 3.57642 0.48043 3.68178 0.292893 3.86931C0.105357 4.05685 0 4.3112 0 4.57642V4.57642C0 4.84163 0.105357 5.09599 0.292893 5.28353C0.48043 5.47106 0.734784 5.57642 1 5.57642L13.154 5.56109L11.3133 7.40442C11.1312 7.59302 11.0304 7.84562 11.0327 8.10782C11.0349 8.37002 11.1401 8.62083 11.3255 8.80624C11.5109 8.99165 11.7617 9.09681 12.0239 9.09909C12.2861 9.10137 12.5387 9.00058 12.7273 8.81842H12.728Z" fill="#2CA58D"/>
</svg>
