<svg width="14" height="14" viewBox="0 0 14 14" fill="none" xmlns="http://www.w3.org/2000/svg">
<g clip-path="url(#clip0_13263_1087)">
<path d="M7.0001 4.39961C5.5526 4.39961 4.3751 5.57711 4.3751 7.02461C4.3751 8.47211 5.5526 9.64961 7.0001 9.64961C8.4476 9.64961 9.6251 8.47211 9.6251 7.02461C9.6251 5.57711 8.4476 4.39961 7.0001 4.39961ZM7.0001 4.39961C5.5526 4.39961 4.3751 5.57711 4.3751 7.02461C4.3751 8.47211 5.5526 9.64961 7.0001 9.64961C8.4476 9.64961 9.6251 8.47211 9.6251 7.02461C9.6251 5.57711 8.4476 4.39961 7.0001 4.39961ZM11.5251 0.599609H2.4751C1.4401 0.599609 0.600098 1.43961 0.600098 2.47461V11.5246C0.600098 12.5596 1.4401 13.3996 2.4751 13.3996H11.5251C12.5601 13.3996 13.4001 12.5596 13.4001 11.5246V2.47461C13.4001 1.43961 12.5601 0.599609 11.5251 0.599609ZM7.0001 10.3996C5.14012 10.3996 3.6251 8.88458 3.6251 7.02461C3.6251 5.16458 5.14012 3.64961 7.0001 3.64961C8.86007 3.64961 10.3751 5.16458 10.3751 7.02461C10.3751 8.88458 8.86007 10.3996 7.0001 10.3996ZM11.1251 3.64961C10.7126 3.64961 10.3751 3.31211 10.3751 2.89961C10.3751 2.48711 10.7126 2.14961 11.1251 2.14961C11.5376 2.14961 11.8751 2.48711 11.8751 2.89961C11.8751 3.31211 11.5376 3.64961 11.1251 3.64961ZM7.0001 4.39961C5.5526 4.39961 4.3751 5.57711 4.3751 7.02461C4.3751 8.47211 5.5526 9.64961 7.0001 9.64961C8.4476 9.64961 9.6251 8.47211 9.6251 7.02461C9.6251 5.57711 8.4476 4.39961 7.0001 4.39961ZM7.0001 4.39961C5.5526 4.39961 4.3751 5.57711 4.3751 7.02461C4.3751 8.47211 5.5526 9.64961 7.0001 9.64961C8.4476 9.64961 9.6251 8.47211 9.6251 7.02461C9.6251 5.57711 8.4476 4.39961 7.0001 4.39961ZM7.0001 4.39961C5.5526 4.39961 4.3751 5.57711 4.3751 7.02461C4.3751 8.47211 5.5526 9.64961 7.0001 9.64961C8.4476 9.64961 9.6251 8.47211 9.6251 7.02461C9.6251 5.57711 8.4476 4.39961 7.0001 4.39961Z" fill="#C9C9C9"/>
</g>
<defs>
<clipPath id="clip0_13263_1087">
<rect width="12.8" height="12.8" fill="white" transform="translate(0.600098 0.599609)"/>
</clipPath>
</defs>
</svg>
