<svg width="14" height="14" viewBox="0 0 14 14" fill="none" xmlns="http://www.w3.org/2000/svg">
<g clip-path="url(#clip0_13605_14646)">
<path d="M13.9794 10.5817L13.3436 13.3378C13.2543 13.7274 12.9118 14 12.5107 14C5.61147 13.9995 0 8.3888 0 1.49032C0 1.08948 0.272616 0.746608 0.662328 0.657745L3.41884 0.0220348C3.82028 -0.0709839 4.23048 0.137365 4.39729 0.517479L5.66944 3.48413C5.81815 3.83356 5.71785 4.24069 5.42387 4.48075L3.95155 5.66277C4.88077 7.5554 6.41983 9.09423 8.31329 10.0239L9.51871 8.55285C9.7563 8.2581 10.1665 8.15612 10.516 8.30746L13.4831 9.57915C13.84 9.76685 14.0724 10.1825 13.9794 10.5817Z" fill="#2CA58D"/>
</g>
<defs>
<clipPath id="clip0_13605_14646">
<rect width="14" height="14" fill="white"/>
</clipPath>
</defs>
</svg>
