<svg width="14" height="17" viewBox="0 0 14 17" fill="none" xmlns="http://www.w3.org/2000/svg">
<path d="M10.3335 8.83333C10.3335 9.09855 10.2281 9.3529 10.0406 9.54044C9.85307 9.72798 9.59871 9.83333 9.3335 9.83333H4.66683C4.40161 9.83333 4.14726 9.72798 3.95972 9.54044C3.77219 9.3529 3.66683 9.09855 3.66683 8.83333C3.66683 8.56812 3.77219 8.31376 3.95972 8.12623C4.14726 7.93869 4.40161 7.83333 4.66683 7.83333H9.3335C9.59871 7.83333 9.85307 7.93869 10.0406 8.12623C10.2281 8.31376 10.3335 8.56812 10.3335 8.83333ZM7.3335 11.1667H4.66683C4.40161 11.1667 4.14726 11.272 3.95972 11.4596C3.77219 11.6471 3.66683 11.9015 3.66683 12.1667C3.66683 12.4319 3.77219 12.6862 3.95972 12.8738C4.14726 13.0613 4.40161 13.1667 4.66683 13.1667H7.3335C7.59871 13.1667 7.85307 13.0613 8.0406 12.8738C8.22814 12.6862 8.3335 12.4319 8.3335 12.1667C8.3335 11.9015 8.22814 11.6471 8.0406 11.4596C7.85307 11.272 7.59871 11.1667 7.3335 11.1667ZM13.6668 5.938V12.8333C13.6658 13.8055 13.2791 14.7375 12.5917 15.4249C11.9043 16.1123 10.9723 16.4989 10.0002 16.5H4.00016C3.02803 16.4989 2.09601 16.1123 1.40861 15.4249C0.721203 14.7375 0.334555 13.8055 0.333496 12.8333V4.16667C0.334555 3.19453 0.721203 2.26251 1.40861 1.57511C2.09601 0.887707 3.02803 0.501058 4.00016 0.5H8.22883C8.71054 0.498626 9.18774 0.592846 9.63278 0.777202C10.0778 0.961559 10.4819 1.23239 10.8215 1.574L12.5928 3.34533C12.9344 3.68501 13.2052 4.08906 13.3895 4.53409C13.5739 4.97912 13.6681 5.4563 13.6668 5.938ZM11.6668 12.8333V6.5H9.00016C8.64654 6.5 8.3074 6.35952 8.05735 6.10948C7.80731 5.85943 7.66683 5.52029 7.66683 5.16667V2.5H4.00016C3.55814 2.5 3.13421 2.67559 2.82165 2.98815C2.50909 3.30072 2.3335 3.72464 2.3335 4.16667V12.8333C2.3335 13.2754 2.50909 13.6993 2.82165 14.0118C3.13421 14.3244 3.55814 14.5 4.00016 14.5H10.0002C10.4422 14.5 10.8661 14.3244 11.1787 14.0118C11.4912 13.6993 11.6668 13.2754 11.6668 12.8333Z" fill="#0A2342"/>
</svg>
