<svg width="37" height="37" fill="none" xmlns="http://www.w3.org/2000/svg"><rect opacity=".08" y="16.711" width="29.736" height="22.25" rx="11.125" transform="rotate(-29.652 0 16.711)" fill="#0A2342"/><g clip-path="url(#clip0_13205_7333)"><path d="M26.686 7.315l-2.108 18.65c0 1.547-1.002 3.093-2.992 4.253-4.002 2.366-10.514 2.366-14.543 0-2.028-1.194-3.038-2.756-3.038-4.318L2 7.238c0 1.875 1.211 3.75 3.645 5.18 4.834 2.842 12.649 2.842 17.468 0 2.373-1.403 3.569-3.25 3.573-5.103z" fill="#FFAB00"/><path d="M26.686 7.315l-2.108 18.65c0 1.547-1.002 3.093-2.992 4.253-.53.31-1.084.576-1.655.797l1.18-17.641c.688-.261 1.352-.58 1.986-.955 2.389-1.412 3.585-3.26 3.589-5.111v.007z" fill="#FF9D00"/><path d="M21.11 13.381l-1.18 17.641a15.19 15.19 0 01-4.044.909l.38-17.456a18.131 18.131 0 004.852-1.094h-.007z" fill="#FF9D00"/><path d="M16.255 14.475l-.38 17.456c-3.038.274-6.27-.259-8.665-1.604L5.847 12.542c2.878 1.613 6.744 2.254 10.4 1.933h.008z" fill="#FFAB00"/><path d="M5.858 12.55L7.22 30.334l-.178-.1a7.057 7.057 0 01-2.279-2.03L2.911 10.002a8.4 8.4 0 002.742 2.432l.212.124-.007-.008zM2.904 9.994l1.853 18.202a4.03 4.03 0 01-.76-2.289L1.992 7.245c.013.99.33 1.951.904 2.75h.008z" fill="#FF9D00"/><path d="M23.04 2.135c4.838 2.841 4.864 7.45.057 10.291-4.807 2.842-12.618 2.842-17.467 0C.78 9.585.77 4.976 5.573 2.135c4.803-2.842 12.633-2.846 17.467 0z" fill="#FFC040"/><path d="M26.044 7.3c0 1.303-.684 2.56-1.96 3.638a9.23 9.23 0 01-1.31.924c-2.225 1.318-5.206 2.045-8.391 2.045-3.186 0-6.175-.727-8.419-2.045a9.777 9.777 0 01-1.363-.963C3.329 9.821 2.645 8.56 2.641 7.261c0-1.693 1.14-3.317 3.27-4.562C8.136 1.381 11.117.654 14.303.654c3.186 0 6.174.727 8.418 2.045 2.142 1.257 3.32 2.892 3.323 4.6z" fill="#FF9D00"/><path d="M24.084 10.938c-.41.346-.848.655-1.31.924-2.225 1.318-5.206 2.045-8.392 2.045-3.186 0-6.174-.727-8.418-2.045a9.768 9.768 0 01-1.363-.963c.41-.344.848-.652 1.31-.92 2.225-1.318 5.206-2.045 8.392-2.045 3.185 0 6.174.727 8.418 2.045.481.278.937.6 1.363.959z" fill="#A1E4FF"/><path d="M14.356 25.826c-9.436 0-11.684-10.005-12.186-15.97a.69.69 0 01.155-.497.661.661 0 01.942-.082.681.681 0 01.236.462c.463 5.498 2.487 14.723 10.853 14.723 8.365 0 10.385-9.225 10.848-14.723a.695.695 0 01.223-.494.67.67 0 01.506-.173.663.663 0 01.47.258.69.69 0 01.138.525c-.513 5.966-2.764 15.971-12.185 15.971z" fill="#4B3D46"/></g><defs><clipPath id="clip0_13205_7333"><path fill="#fff" transform="translate(2)" d="M0 0h24.686v32H0z"/></clipPath></defs></svg>