<svg width="80" height="80" fill="none" xmlns="http://www.w3.org/2000/svg"><rect width="80" height="80" rx="16" fill="#fff"/><g clip-path="url(#clip0_13102_6754)"><path d="M47.745 16.415a.437.437 0 01-.252.382 4.881 4.881 0 00-2.205 4.084c0 24.305.194 15.097-.968 40.32a4.874 4.874 0 01-8.74-2.187.82.82 0 00-.803-.709h-8.95V20.881A4.881 4.881 0 0130.71 16h16.62c.229 0 .414.186.415.415z" fill="#EEF8F6"/><path d="M40.407 63.186h-19.46a4.888 4.888 0 01-4.791-3.944.806.806 0 01.806-.937h17.817a.814.814 0 01.803.709 4.881 4.881 0 004.825 4.172z" fill="#D8E7E4"/><path d="M33.15 27.39H18.506c-.899 0-1.627.728-1.627 1.627v24.407c0 .898.728 1.627 1.627 1.627H33.15c.898 0 1.627-.729 1.627-1.627V29.017c0-.899-.729-1.627-1.627-1.627z" fill="#258F7A"/><path d="M30.774 27.39h-9.893c-.898 0-1.627.728-1.627 1.627v24.407c0 .898.729 1.627 1.627 1.627h9.893c.899 0 1.627-.729 1.627-1.627V29.017c0-.899-.728-1.627-1.627-1.627z" fill="#2CA58D"/><path d="M30.71 30.644h-9.763a.814.814 0 00-.814.814v1.627c0 .449.364.813.814.813h9.762c.45 0 .814-.364.814-.813v-1.627a.814.814 0 00-.814-.814z" fill="#258F7A"/><path d="M22.574 40.407a1.627 1.627 0 100-3.254 1.627 1.627 0 000 3.254zm0 5.695a1.627 1.627 0 100-3.255 1.627 1.627 0 000 3.255zm0 5.695a1.627 1.627 0 100-3.255 1.627 1.627 0 000 3.255zm6.508-11.39a1.627 1.627 0 100-3.254 1.627 1.627 0 000 3.254zm0 5.695a1.627 1.627 0 100-3.255 1.627 1.627 0 000 3.255zm0 5.695a1.627 1.627 0 100-3.255 1.627 1.627 0 000 3.255zm27.922-24.456l-12.627-5.623H36.34a.83.83 0 00-.605 1.377l5.324 6.028 12.626 5.646 3.32-7.428z" fill="#FFC040"/><path d="M62.861 31.262a4.112 4.112 0 00-2.148-2.261l-3.71-1.66-3.319 7.428 3.71 1.66a4.076 4.076 0 005.467-5.167z" fill="#F3D55B"/><path d="M41.068 29.133l1.661-3.717 12.628 5.643-1.661 3.717-12.628-5.643z" fill="#EBB13B"/><path d="M53.685 34.768l3.319-7.428 2.969 1.326-3.32 7.428-2.968-1.326zm-12.888-13.05l-2.107 4.72-2.954-3.343a.83.83 0 01.603-1.377h4.459z" fill="#0A2342"/><path d="M44.377 21.718l-3.32 7.405-2.367-2.685 2.107-4.72h3.58z" fill="#F9EAB0"/><path d="M62.772 34.378a4.068 4.068 0 01-5.378 2.05l-.74-.333 3.319-7.428.74.334a4.068 4.068 0 012.059 5.377zM50.983 63.186c6.74 0 12.204-5.463 12.204-12.203 0-6.74-5.464-12.203-12.204-12.203S38.78 44.242 38.78 50.983c0 6.74 5.463 12.203 12.203 12.203z" fill="#FFC040"/><path d="M50.983 58.305c-4.624 0-5.946-4.881-4.068-4.881.45 0 .814.364.814.813 0 1.346 1.46 2.441 3.254 2.441 1.795 0 3.255-1.095 3.255-2.44 0-1.346-1.46-2.441-3.255-2.441-2.692 0-4.881-1.825-4.881-4.068 0-2.243 2.19-4.068 4.881-4.068 4.625 0 5.947 4.881 4.068 4.881a.814.814 0 01-.814-.813c0-1.346-1.46-2.44-3.254-2.44s-3.254 1.094-3.254 2.44c0 1.346 1.46 2.44 3.254 2.44 2.692 0 4.882 1.825 4.882 4.068 0 2.243-2.19 4.068-4.882 4.068z" fill="#EEF8F6"/><path d="M50.983 59.932a.813.813 0 01-.813-.813V42.847a.814.814 0 111.627 0V59.12a.813.813 0 01-.814.813z" fill="#EEF8F6"/><path d="M50.983 64c-7.189 0-13.017-5.828-13.017-13.017 0-7.189 5.828-13.017 13.017-13.017 7.19 0 13.017 5.828 13.017 13.017-.008 7.186-5.83 13.008-13.017 13.017zm0-24.407c-6.29 0-11.39 5.1-11.39 11.39 0 6.29 5.1 11.39 11.39 11.39 6.29 0 11.39-5.1 11.39-11.39-.007-6.288-5.102-11.383-11.39-11.39z" fill="#EBB13B"/><path d="M42.865 55.61a.814.814 0 01-.738-.474 9.956 9.956 0 01.432-9.138.814.814 0 111.406.818 8.335 8.335 0 00-.36 7.641.813.813 0 01-.74 1.154zm16.235 0a.813.813 0 01-.738-1.153 8.335 8.335 0 00-.361-7.641.814.814 0 011.407-.819 9.956 9.956 0 01.432 9.14.814.814 0 01-.74.474z" fill="#EEF8F6"/></g><defs><clipPath id="clip0_13102_6754"><path fill="#fff" transform="translate(16 16)" d="M0 0h48v48H0z"/></clipPath></defs></svg>