<svg width="80" height="80" fill="none" xmlns="http://www.w3.org/2000/svg"><rect width="80" height="80" rx="16" fill="#fff"/><path d="M35.034 59.035a4.966 4.966 0 009.931 0L40 57.379l-4.966 1.656z" fill="#C2D3D0"/><path d="M47.481 47.448h-14.93a15.586 15.586 0 01-4.882-12.885c.047-.6.127-1.197.24-1.788a22.023 22.023 0 014.626-9.41 51.906 51.906 0 016.934-7.17.828.828 0 011.062 0c4.956 4.167 10.315 9.885 11.593 16.58.113.591.193 1.188.24 1.788a15.586 15.586 0 01-4.883 12.885z" fill="#2CA58D"/><path d="M46.422 36.882l-5.594 4.662v-4.47l6.653-5.544a.828.828 0 00-1.059-1.271l-5.594 4.664v-4.469l4.667-3.89a.828.828 0 00-1.06-1.27l-3.608 3.008v-4.854a.828.828 0 00-1.655 0v4.854l-3.608-3.006a.828.828 0 10-1.06 1.27l4.668 3.89v4.47l-5.594-4.662a.827.827 0 00-1.06 1.27l6.654 5.546v4.469l-5.594-4.662a.827.827 0 00-1.06 1.271l6.654 5.545v3.745a.828.828 0 101.656 0v-3.75l6.653-5.545a.828.828 0 10-1.059-1.271z" fill="#258F7A"/><path d="M32.552 47.448h14.896v9.931c0 .914-.74 1.655-1.655 1.655H34.207a1.655 1.655 0 01-1.655-1.655v-9.93z" fill="#D8E7E4"/><path d="M35.862 55.724h-3.31a.828.828 0 010-1.655h3.31a.828.828 0 010 1.655zm11.586 0h-8.276a.828.828 0 010-1.655h8.276a.828.828 0 010 1.655zm0-3.31h-3.31a.828.828 0 010-1.655h3.31a.828.828 0 110 1.655zm-6.62 0h-8.276a.828.828 0 010-1.655h8.276a.828.828 0 010 1.655z" fill="#C2D3D0"/><path d="M23.448 35.862h-3.31a.828.828 0 110-1.655h3.31a.828.828 0 010 1.655zm36.414 0h-3.31a.828.828 0 110-1.655h3.31a.828.828 0 010 1.655zM22.8 45.793a.827.827 0 01-.415-1.544l2.868-1.655a.828.828 0 11.828 1.433l-2.868 1.655a.822.822 0 01-.414.111zm31.534-18.207a.828.828 0 01-.413-1.544l2.867-1.655a.827.827 0 11.828 1.433l-2.868 1.655a.822.822 0 01-.413.111zM57.2 45.793a.822.822 0 01-.413-.11l-2.868-1.656a.828.828 0 11.828-1.433l2.867 1.655a.828.828 0 01-.414 1.544zM25.665 27.586a.822.822 0 01-.413-.11l-2.868-1.656a.828.828 0 01.828-1.433l2.867 1.655a.828.828 0 01-.414 1.544z" fill="#FFC040"/></svg>