<svg width="80" height="80" fill="none" xmlns="http://www.w3.org/2000/svg"><rect width="80" height="80" rx="16" fill="#fff"/><g clip-path="url(#clip0_13102_6737)"><path d="M35.525 62.788a.809.809 0 01-.813.805H27.39a.813.813 0 01-.814-.813v-1.505a1.605 1.605 0 00-.57-1.237 1900.08 1900.08 0 01-5.97-5.11c-1.31-1.122-2.238-1.78-2.995-3.123a7.218 7.218 0 01-.927-3.588c-.065-5.687-.04-2.815-.114-11.35a1.704 1.704 0 011.285-1.708 1.64 1.64 0 011.97 1.416c.48 4.401.634 5.817.78 7.175.073.684.139 1.343.252 2.368v.024a1.909 1.909 0 012.506-.366c7.208 4.784 9.844 6.533 9.983 6.63a7.183 7.183 0 012.538 4.19c.212 2.057.282 4.126.211 6.192z" fill="#FDD7AD"/><path d="M29.294 55.043a.82.82 0 01-1.14.154l-8.526-6.451a2.717 2.717 0 01-.528-3.791c.008-.009.593-.773.935-1.204.073.683.139 1.342.252 2.367a1.09 1.09 0 00.326 1.334l8.518 6.452c.36.27.432.78.163 1.139z" fill="#F9C795"/><path d="M63.195 36.868c-.074 8.534-.05 5.662-.114 11.349a7.218 7.218 0 01-.928 3.588c-.756 1.342-1.684 2.001-2.994 3.124a1934.574 1934.574 0 01-5.971 5.109c-.364.307-.573.76-.57 1.237v1.505a.813.813 0 01-.813.813h-7.33a.814.814 0 01-.814-.805 45.054 45.054 0 01.22-6.191 7.141 7.141 0 012.538-4.19c.138-.098 2.774-1.847 9.982-6.63a1.91 1.91 0 012.506.365c.09-.821.155-1.415.212-1.968.154-1.522.292-2.734.821-7.599a1.627 1.627 0 011.961-1.416 1.71 1.71 0 011.294 1.709z" fill="#FDD7AD"/><path d="M60.209 45.158a5.12 5.12 0 00-1.09-.984c-.057.553-.123 1.147-.212 1.968a1.047 1.047 0 01-.236 1.465l-8.534 6.451a.814.814 0 10.984 1.294l8.535-6.452a2.707 2.707 0 00.553-3.742z" fill="#F9C795"/><path d="M39.593 48.95c8.986 0 16.271-7.286 16.271-16.272 0-8.986-7.284-16.271-16.27-16.271-8.987 0-16.272 7.285-16.272 16.27 0 8.987 7.285 16.272 16.271 16.272z" fill="#EEF8F6"/><path d="M49.356 30.237H43.66a1.627 1.627 0 01-1.627-1.627v-5.695c0-.898-.729-1.627-1.627-1.627H38.78c-.899 0-1.627.729-1.627 1.627v5.695c0 .899-.729 1.627-1.628 1.627h-5.694c-.9 0-1.628.729-1.628 1.627v1.628c0 .898.729 1.627 1.628 1.627h5.694c.899 0 1.628.728 1.628 1.627v5.695c0 .898.728 1.627 1.627 1.627h1.627c.898 0 1.627-.729 1.627-1.627v-5.695c0-.899.728-1.627 1.627-1.627h5.695c.898 0 1.627-.729 1.627-1.627v-1.628c0-.898-.728-1.627-1.627-1.627z" fill="#2CA58D"/></g><defs><clipPath id="clip0_13102_6737"><path fill="#fff" transform="translate(16 16)" d="M0 0h48v48H0z"/></clipPath></defs></svg>