<svg width="80" height="80" fill="none" xmlns="http://www.w3.org/2000/svg"><rect width="80" height="80" rx="16" fill="#fff"/><g clip-path="url(#clip0_13102_6805)"><path d="M40 24.8a.8.8 0 01-.8-.8v-7.2a.8.8 0 111.6 0V24a.8.8 0 01-.8.8zM40 64a.8.8 0 01-.8-.8v-7.472a.8.8 0 111.6 0V63.2a.8.8 0 01-.8.8zM27.2 40.8H16.8a.8.8 0 010-1.6h10.4a.8.8 0 110 1.6zm36 0H52.38a.8.8 0 010-1.6H63.2a.8.8 0 110 1.6zm-36-7.2h-4.8a3.2 3.2 0 01-3.2-3.2V20a.8.8 0 111.6 0v10.4a1.6 1.6 0 001.6 1.6h4.8a.8.8 0 110 1.6zM20 60.8a.8.8 0 01-.8-.8V49.6a3.2 3.2 0 013.2-3.2h7.995a.8.8 0 010 1.6H22.4a1.6 1.6 0 00-1.6 1.6V60a.8.8 0 01-.8.8zm37.6-27.2h-4.8a.8.8 0 010-1.6h4.8a1.6 1.6 0 001.6-1.6V20a.8.8 0 111.6 0v10.4a3.2 3.2 0 01-3.2 3.2zM60 60.8a.8.8 0 01-.8-.8V49.6a1.6 1.6 0 00-1.6-1.6h-8.8a.8.8 0 010-1.6h8.8a3.2 3.2 0 013.2 3.2V60a.8.8 0 01-.8.8z" fill="#C2D3D0"/><path d="M53.71 25.809c.84.055 1.492.753 1.49 1.595v8.253a24.84 24.84 0 01-14.545 22.601 1.59 1.59 0 01-1.31 0 24.83 24.83 0 01-14.545-22.6v-8.254a1.594 1.594 0 011.49-1.595c2.793-.184 8.88-.917 12.71-3.866a1.627 1.627 0 012 0c3.834 2.949 9.918 3.682 12.71 3.866z" fill="#D8E7E4"/><path d="M40.374 54.836a.817.817 0 01-.75 0A21.63 21.63 0 0128 35.658V29.59a.8.8 0 01.71-.79c3.186-.384 7.44-1.285 10.88-3.38a.787.787 0 01.827 0c3.433 2.095 7.691 2.996 10.88 3.38a.8.8 0 01.71.794v6.068a21.69 21.69 0 01-11.633 19.174z" fill="#2CA58D"/><path d="M39.2 47.2a.8.8 0 01-.566-.235l-3.2-3.2a.8.8 0 011.132-1.13l2.32 2.32 4.363-11.637a.8.8 0 011.499.56l-4.8 12.8a.805.805 0 01-.748.522z" fill="#EEF8F6"/><path d="M20 23.2a3.2 3.2 0 100-6.4 3.2 3.2 0 000 6.4zm0 40a3.2 3.2 0 100-6.4 3.2 3.2 0 000 6.4zm40-40a3.2 3.2 0 100-6.4 3.2 3.2 0 000 6.4zm0 40a3.2 3.2 0 100-6.4 3.2 3.2 0 000 6.4z" fill="#FFC040"/><path d="M40 55.728c-.26 0-.515-.062-.745-.182a22.577 22.577 0 01-8.313-7.484A22.34 22.34 0 0127.2 35.658V29.59A1.605 1.605 0 0128.614 28c2.96-.357 7.188-1.214 10.556-3.27a1.586 1.586 0 011.66 0c3.37 2.056 7.6 2.913 10.556 3.27a1.604 1.604 0 011.414 1.59v6.068a22.373 22.373 0 01-12.055 19.887c-.23.12-.486.183-.745.183zm.006-1.6A20.778 20.778 0 0051.2 35.658V29.59c-3.12-.376-7.59-1.286-11.2-3.492-3.606 2.205-8.08 3.12-11.191 3.492l-.009 6.068a20.742 20.742 0 003.473 11.52 20.973 20.973 0 007.72 6.95h.013z" fill="#EEF8F6"/></g><defs><clipPath id="clip0_13102_6805"><path fill="#fff" transform="translate(16 16)" d="M0 0h48v48H0z"/></clipPath></defs></svg>