<svg width="80" height="80" fill="none" xmlns="http://www.w3.org/2000/svg"><rect width="80" height="80" rx="16" fill="#fff"/><g clip-path="url(#clip0_13102_6771)"><path d="M18.483 54.712h43.034v6.805H18.483v-6.805z" fill="#258F7A"/><path d="M61.517 29.241v26.483H18.483V29.242a3.31 3.31 0 013.31-3.311h36.414a3.311 3.311 0 013.31 3.31z" fill="#EEF8F6"/><path d="M61.517 42.127v13.597H18.483v-7.44c9.02-4.858 24.62-10.601 43.034-6.157z" fill="#D8E7E4"/><path d="M64 59.035v2.482A2.483 2.483 0 0161.517 64H18.483A2.483 2.483 0 0116 61.517v-2.482h17.38c.456 0 .827.37.827.827 0 .457.37.828.828.828h9.93c.457 0 .828-.37.828-.828 0-.457.37-.827.828-.827H64z" fill="#2CA58D"/><path d="M25.93 46.62a.828.828 0 01-.827-.827V43.31c0-.26.123-.506.331-.662l2.98-2.234v-2.07a.828.828 0 011.655 0v2.484a.83.83 0 01-.331.662l-2.98 2.234v2.07c0 .456-.37.827-.827.827zm0 6.621a.828.828 0 01-.827-.827v-3.31a.827.827 0 011.655 0v3.31c0 .457-.37.827-.827.827zm5.794 0a.827.827 0 01-.827-.827V46.62a.827.827 0 111.655 0v5.793a.828.828 0 01-.828.827zm0-9.103a.827.827 0 01-.827-.828v-1.655c0-.22.087-.43.242-.585l1.413-1.413v-1.312a.828.828 0 011.655 0V40c0 .22-.087.43-.242.585l-1.413 1.413v1.312a.828.828 0 01-.828.828zm4.966 5.792a.827.827 0 01-.828-.827V38.345a.827.827 0 111.655 0v10.758c0 .458-.37.828-.827.828zm18.207-3.31a.827.827 0 01-.828-.827v-2.069l-2.98-2.234a.828.828 0 01-.33-.662v-2.483a.828.828 0 011.655 0v2.069l2.979 2.234a.825.825 0 01.331.662v2.483a.828.828 0 01-.827.828zm0 6.621a.827.827 0 01-.828-.827v-3.31a.827.827 0 111.655 0v3.31c0 .457-.37.827-.827.827zm-5.794 0a.827.827 0 01-.827-.827V46.62a.827.827 0 111.655 0v5.793c0 .457-.37.827-.828.827zm0-9.103a.827.827 0 01-.827-.828v-1.312l-1.413-1.413a.828.828 0 01-.242-.585v-1.655a.828.828 0 011.655 0v1.312l1.412 1.413a.827.827 0 01.243.585v1.655c0 .458-.37.828-.828.828zm-4.965 5.792a.827.827 0 01-.828-.827V38.345a.828.828 0 011.655 0v10.758c0 .458-.37.828-.827.828z" fill="#C2D3D0"/><path d="M54.07 37.517V22.621L47.447 16H27.586a1.66 1.66 0 00-1.655 1.655v19.862c0 .457.37.828.828.828h26.483c.457 0 .827-.37.827-.828z" fill="#FFC040"/><path d="M34.207 22.62a2.483 2.483 0 11-4.965 0 2.483 2.483 0 014.965 0zm4.138.828H36.69a.827.827 0 110-1.655h1.655a.828.828 0 010 1.655zm5.793 0h-2.483a.828.828 0 010-1.655h2.483a.828.828 0 010 1.655zm-2.483 3.311H36.69a.827.827 0 110-1.656h4.965a.828.828 0 010 1.655zm5.793 0h-2.483a.828.828 0 010-1.656h2.483a.828.828 0 010 1.655z" fill="#EEF8F6"/><path d="M30.07 29.241h7.447c.457 0 .828.371.828.828v4.138c0 .457-.37.828-.828.828H30.07a.828.828 0 01-.828-.828v-4.138c0-.457.371-.828.828-.828zm12.413 0h7.448c.457 0 .828.371.828.828v4.138a.828.828 0 01-.828.828h-7.448a.827.827 0 01-.828-.828v-4.138c0-.457.37-.828.828-.828z" fill="#D8E7E4"/><path d="M47.448 16l6.621 6.62h-5.793a.828.828 0 01-.828-.827V16z" fill="#E4AD3C"/><path d="M25.93 49.93a2.483 2.483 0 110-4.964 2.483 2.483 0 010 4.965zm5.794-2.482a2.483 2.483 0 110-4.965 2.483 2.483 0 010 4.965zm4.966 5.793a2.483 2.483 0 110-4.966 2.483 2.483 0 010 4.966zm18.207-3.311a2.483 2.483 0 110-4.965 2.483 2.483 0 010 4.966zm-5.794-2.482a2.483 2.483 0 110-4.965 2.483 2.483 0 010 4.965zm-4.965 5.793a2.483 2.483 0 110-4.965 2.483 2.483 0 010 4.965z" fill="#2CA58D"/></g><defs><clipPath id="clip0_13102_6771"><path fill="#fff" transform="translate(16 16)" d="M0 0h48v48H0z"/></clipPath></defs></svg>