<svg width="14" height="14" fill="none" xmlns="http://www.w3.org/2000/svg"><g clip-path="url(#clip0_13605_14646)"><path d="M13.98 10.582l-.636 2.756a.85.85 0 01-.833.662C5.61 14 0 8.389 0 1.49c0-.4.273-.743.662-.832L3.42.022a.858.858 0 01.978.495L5.67 3.484a.856.856 0 01-.245.997L3.952 5.663a9.561 9.561 0 004.361 4.36l1.206-1.47a.85.85 0 01.997-.246l2.967 1.272c.357.188.59.603.496 1.003z" fill="#2CA58D"/></g><defs><clipPath id="clip0_13605_14646"><path fill="#fff" d="M0 0h14v14H0z"/></clipPath></defs></svg>