<svg width="179" height="248" fill="none" xmlns="http://www.w3.org/2000/svg"><rect opacity=".08" x="70.173" y="185.864" width="45.305" height="22.25" rx="11.125" transform="rotate(-29.652 70.173 185.864)" fill="#0A2342"/><path opacity=".08" d="M112.471 228.329c-5.507-2.858-5.805-10.625-.534-13.897l28.885-17.933a8.001 8.001 0 017.677-.418l15.541 7.448c5.682 2.723 6.132 10.64.797 13.99l-29.249 18.363a8.003 8.003 0 01-7.939.325l-15.178-7.878z" fill="#0A2342"/><g clip-path="url(#clip0_13123_10325)"><path d="M66.13 84.844c-2.159-1.722-6.26-3.11-8.996-2.754a2.815 2.815 0 00-1.253.399 1.174 1.174 0 00-.53 1.135 1.197 1.197 0 00.882.826c.416.091.846.102 1.267.033.108 0 .248-.066.22-.169l4.407 2.896 4.003-2.365z" fill="#F1F1F9"/><path d="M99.315 172.871l-5.542-3.154c-2.014-1.168-4.792-1.004-7.866.77l5.547 3.153c3.07-1.774 5.852-1.938 7.861-.769z" fill="#32272D"/><path d="M99.315 172.871l-5.542-3.154a5.219 5.219 0 00-1.113-.469l5.548 3.153c.386.113.758.271 1.107.47z" fill="#32272D"/><path d="M98.208 172.387l-5.548-3.153a6.696 6.696 0 00-3.318-.103l5.547 3.153a6.708 6.708 0 013.319.103z" fill="#32272D"/><path d="M94.89 172.284l-5.548-3.153c-1.21.262-2.371.72-3.435 1.356l5.547 3.153a11.44 11.44 0 013.436-1.356z" fill="#32272D"/><path d="M78.112 196.658l5.547 3.154c-1.985-1.155-3.215-3.604-3.224-7.086 0-7.016 4.913-15.562 11.02-19.086l-5.548-3.153c-6.1 3.524-11.038 12.069-11.02 19.085.01 3.482 1.24 5.913 3.225 7.086z" fill="#32272D"/><path d="M91.454 173.64l-5.547-3.153c-3.548 2.05-6.702 5.795-8.715 9.948l5.543 3.154c2.017-4.153 5.162-7.898 8.72-9.949z" fill="#32272D"/><path d="M82.735 183.589l-5.543-3.154a24.491 24.491 0 00-1.76 4.824l5.547 3.154a24.75 24.75 0 011.756-4.824z" fill="#32272D"/><path d="M80.98 188.413l-5.548-3.154a18.077 18.077 0 00-.544 4.313c0 3.482 1.239 5.932 3.224 7.086l5.547 3.154c-1.985-1.155-3.215-3.604-3.224-7.086a18.07 18.07 0 01.544-4.313z" fill="#32272D"/><path d="M91.454 173.64c-6.1 3.524-11.038 12.07-11.02 19.086.02 7.015 4.985 9.854 11.09 6.316 6.106-3.538 11.039-12.065 11.02-19.081-.019-7.015-4.984-9.845-11.09-6.321z" fill="#4B3D46"/><path d="M86.085 195.673c-1.572-.906-2.44-2.75-2.445-5.195 0-4.759 3.342-10.573 7.48-12.962 2.14-1.234 4.192-1.407 5.769-.506s2.44 2.75 2.45 5.199c0 4.754-3.342 10.568-7.481 12.957a7.215 7.215 0 01-3.562 1.079 4.4 4.4 0 01-2.21-.572zm5.726-16.96c-3.755 2.168-6.8 7.443-6.791 11.76 0 1.933.629 3.351 1.755 3.998 1.126.648 2.694.47 4.393-.502 3.754-2.168 6.8-7.443 6.786-11.76 0-1.933-.629-3.35-1.755-3.998a3.016 3.016 0 00-1.525-.39 5.877 5.877 0 00-2.863.892z" fill="#32272D"/><path d="M91.478 181.942c-2.117 1.225-3.825 4.181-3.816 6.607.01 2.426 1.727 3.412 3.84 2.192 2.111-1.221 3.82-4.182 3.815-6.608-.005-2.426-1.727-3.411-3.84-2.191z" fill="#32272D"/><path d="M103.844 91.466c0 .103-.033.202-.042.3-.366 2.215-2.004 4.36-4.914 6.05-6.688 3.88-17.562 3.88-24.296 0-2.91-1.68-4.567-3.811-4.97-6.003a5.633 5.633 0 01-.07-1.633c.23-2.346 1.877-4.636 4.965-6.42 6.683-3.885 17.561-3.885 24.291 0 3.666 2.112 5.346 4.942 5.036 7.706z" fill="#D9D9D9"/><path d="M64.483 95.614l6.87 80.298c0 2.346 1.54 4.655 4.595 6.429 6.153 3.575 16.158 3.575 22.349 0 3.116-1.798 4.693-4.158 4.665-6.519l6.673-80.334c0 3.364-2.21 6.738-6.664 9.31-8.847 5.106-23.142 5.106-31.913 0-4.379-2.539-6.566-5.856-6.575-9.184z" fill="#D9D9D9"/><path d="M64.483 95.614l6.87 80.298c.008.83.198 1.649.56 2.398l-6.637-79.27a8.081 8.081 0 01-.793-3.426z" fill="#D9D9D9"/><path d="M65.276 99.04l6.636 79.27a9.324 9.324 0 003.633 3.787l-5.083-77.651c-2.53-1.581-4.261-3.444-5.186-5.406z" fill="#D9D9D9"/><path d="M70.462 104.446l5.083 77.651c.131.084.262.164.403.244 2.778 1.614 6.34 2.501 9.987 2.656l-.629-76.407c-5.204-.221-10.296-1.488-14.262-3.792-.197-.117-.39-.23-.582-.352z" fill="#F1F1F1"/><path d="M85.306 108.59l.629 76.407a26.565 26.565 0 007.396-.709l2.549-76.712a37.738 37.738 0 01-10.574 1.014z" fill="#D9D9D9"/><path d="M95.88 107.576l-2.549 76.712a19.403 19.403 0 004.966-1.947c3.116-1.798 4.693-4.158 4.665-6.519l6.673-80.334c0 3.364-2.21 6.738-6.664 9.31a27.373 27.373 0 01-7.091 2.778z" fill="#CBCDD1"/><path d="M71.147 86.304c-8.847 5.106-8.917 13.383-.103 18.494 8.813 5.11 23.08 5.106 31.913 0 8.832-5.106 8.893-13.388.103-18.494-8.79-5.106-23.067-5.106-31.913 0z" fill="#F1F1F1"/><path d="M61.611 91.832c.146 2.895.746 5.814.305 8.686a19.704 19.704 0 01-.774 3.036 3.377 3.377 0 01-.512 1.084 1.489 1.489 0 01-1.098.596.891.891 0 01-.939-.661 2.195 2.195 0 01-1.633.657 1.448 1.448 0 01-1.36-.939 1.873 1.873 0 01-1.854.469 1.561 1.561 0 01-1.164-1.351c-.47.427-1.352.244-1.77-.225a2.489 2.489 0 01-.47-1.69c-.05-4.753 2.624-8.156 3.577-12.834.939-.118 1.61-.587 2.384-.122.955.568 2 .97 3.088 1.192l2.22 2.102z" fill="#C9C9EC"/><path d="M59.18 64.032c.971-4.993 1.962-9.479 2.079-10.01.075-.318.854-4.565 1.258-4.523l12.375 1.272c-.188 1.83-.807 3.777-1.08 5.42-.243 1.46-1.876 10.117-7.151 13.848 0 0-5.191-2.037-7.481-6.007z" fill="#4B3D46"/><path d="M74.888 29.301c-4.478-1.637-7.092 2.74-8.631 5.665a37.693 37.693 0 00-3.905 13.374 9.1 9.1 0 00.174 3.486c.3.934.737 1.816 1.3 2.619 1.248 1.91 3.036 3.754 5.327 4.06.71.063 1.425.03 2.125-.1a6.744 6.744 0 002.75-.938c1.385-.938 1.948-2.623 2.432-4.223a77.883 77.883 0 002.816-12.089c.572-4.336 1.103-9.845-4.388-11.854zM53.543 88.838c-.39 4.9 6.407 6.884 8.772.615 2.53-6.692 3.463-11.948 5.632-17.767.469-1.276 1.595-3.9 1.206-5.27-.418-1.478-2.816-.535-3.914-1.703-.573-.606-1.028-2.581-1.277-3.374-.638-2.018-3.722-3.938-5.162-2.59-2.506 2.331-4.637 22.266-5.257 30.089z" fill="#D9D9D9"/><path d="M53.83 85.985c-.108 1.07-.165 1.408-.23 2.248-.207 2.604 1.91 3.927 4.017 4.082 1.877.141 3.614.075 4.721-2.862.272-.709.53-1.45.789-2.201-2.694 1.483-6.594.422-9.297-1.267z" fill="#4B3D46"/><path d="M76.774 7.776l-.338 6.734a.319.319 0 01-.192.244c-1.807.939-2.74 2.238-2.816 3.59l.338-6.734c.056-1.352.995-2.652 2.816-3.59a.32.32 0 00.192-.244z" fill="#F1F1F9"/><path d="M74.07 12.497c.053-1.29.94-2.54 2.676-3.435a.258.258 0 00.023-.47.939.939 0 00-.84-.042c-2.68 1.408-3.6 3.524-2.736 5.5.315-.22.643-.427.981-.62a3.05 3.05 0 01-.103-.933z" fill="#4B3D46"/><path d="M110.325 67.65c-1.408 3.675-5.256 15.322-6.481 23.816 0 .103-.033.202-.042.3-.366 2.215-2.004 4.36-4.914 6.05-6.688 3.88-17.562 3.88-24.296 0-2.91-1.68-4.567-3.811-4.97-6.003v-.277a1.252 1.252 0 000-.131c-.028-.404-.047-.807-.07-1.21-.362-6.57-.432-12.817-1.493-19.795-.07-.469-.422-6.814-.732-12.295-.192-3.392-.366-6.461-.47-7.607 0-.23-.028-.38-.037-.469h.056l41.422-9.972s2.745 2.816 3.557 4.008l.052.075c.354.53.668 1.084.938 1.661a13.916 13.916 0 011.188 4.388c.657 5.837-1.774 12.337-3.708 17.461z" fill="#D9D9D9"/><path d="M97.41 69.523c5.763-5.782 6.964-9.114 7.283-11.263.211-1.408-2.191-.966-1.877-2.346.469-2.196.028-4.458.507-6.654 1.356-6.18 6.509-3.867 7.316-3.712.648.126 4.365 2.032 4.365 2.032a17.043 17.043 0 00-4.29-6.101c-5.185-4.8-18.265-9.94-25.549-12.201-11.404-3.567-13.004.591-16.285 9.681-1.74 4.833-2.05 10.174-2.055 15.265 0 4.595 3.215 11.915 3.215 11.915.78.864 1.658 1.633 2.618 2.29C85.907 76.463 88.78 75.7 88.78 75.7c3.717-1.61 5.702-3.234 8.63-6.176z" fill="#2CA58D"/><path d="M98.109 36.81c-.14 9.212-18.73 11.262-17.06.042 1.77-11.938 2.033-13.51 7.8-15.11a16.496 16.496 0 014.872-.71c5.998.174 3.534 3.107 3.21 5.22-.967 6.269 1.23 7.245 1.178 10.558z" fill="#4B3D46"/><path d="M76.478 6.467a12.303 12.303 0 00-2.247 6.57 9.54 9.54 0 00.384 3.087c.282.939.831 1.85.789 2.867-.042 1.192-.939 2.478-1.408 3.581-.4 1-.652 2.126-.3 3.14.25.563.55 1.103.896 1.614 1.455 2.548-.202 6.1 2.454 8.029.686.425 1.47.66 2.277.685 1.013.099 5.631-.938 7.452-1.661 1.995-.77 4.505-1.647 5.993-3.186 1.164-1.202 2.084-3.182 3.027-6.167a4.764 4.764 0 003.924-2.2 14.845 14.845 0 002.923-9.133c.024-2.91-.262-5.401-2.018-7.977a13.371 13.371 0 00-5.495-4.51A15.859 15.859 0 0084.583.69a15.018 15.018 0 00-8.105 5.777z" fill="#D9D9D9"/><path d="M95.293 6.603c-1.82-3.196-7.43-5.364-11.61-5.632 5.992-1.84 9.207-.741 11.436.23a13.375 13.375 0 015.51 4.51c1.755 2.562 2.042 5.054 2.018 7.978a14.85 14.85 0 01-2.924 9.132 4.764 4.764 0 01-3.923 2.2c-.052.165-.103.33-.16.47a9.552 9.552 0 01.854-3.041c2.807-5.289 1.713-10.723-1.2-15.847zm-5.726 10.192a.94.94 0 00-.84-.037 13.61 13.61 0 01-12.277-.587 4.979 4.979 0 01-2.276-2.76c-.338.193-.666.4-.98.62a6.16 6.16 0 002.398 2.59c3.754 2.408 10.02 2.704 13.957.662.234-.122.248-.342.018-.488z" fill="#4B3D46"/><path d="M100.803 17.504l-1.028-.545c-.756-.398-1.779-.3-2.886.4l1.023.539c1.107-.695 2.13-.798 2.891-.394z" fill="#258F7A"/><path d="M100.803 17.504l-1.028-.545a2.206 2.206 0 00-1.263-.22l1.028.544a2.17 2.17 0 011.263.22z" fill="#258F7A"/><path d="M99.54 17.283l-1.027-.544a3.447 3.447 0 00-.85.22l1.023.545c.274-.112.56-.187.854-.22z" fill="#258F7A"/><path d="M98.686 17.504l-1.023-.545c-.27.107-.53.24-.774.4l1.023.539a5.04 5.04 0 01.774-.394z" fill="#258F7A"/><path d="M94.387 27.11l1.023.544c-.746-.399-1.234-1.286-1.285-2.567-.108-2.585 1.586-5.8 3.787-7.189l-1.023-.54c-2.201 1.385-3.9 4.6-3.792 7.185.056 1.286.544 2.168 1.29 2.567z" fill="#258F7A"/><path d="M97.912 17.898l-1.023-.54h-.038l1.023.545.038-.028v.023zm-.038.028l-1.023-.544a6.4 6.4 0 00-.863.666l1.028.545c.265-.248.552-.471.858-.667zm-.868.667l-1.028-.545a7.8 7.8 0 00-.826.878l1.028.544c.252-.313.528-.607.826-.877z" fill="#258F7A"/><path d="M96.19 19.47l-1.028-.544a9.939 9.939 0 00-1.479 2.539l1.028.544a9.799 9.799 0 011.478-2.539z" fill="#258F7A"/><path d="M94.711 22.009l-1.028-.544a9.333 9.333 0 00-.338 1.023l1.028.544c.09-.348.204-.69.338-1.023z" fill="#258F7A"/><path d="M94.373 23.032l-1.028-.544a7.971 7.971 0 00-.206 1.07l1.023.544c.044-.362.114-.72.211-1.07z" fill="#258F7A"/><path d="M94.162 24.102l-1.023-.544a7.037 7.037 0 00-.042.985l1.028.558a6.433 6.433 0 01.037-1zm-.038.999l-1.023-.544c.01.328.058.654.141.971l1.023.545a4.606 4.606 0 01-.14-.972z" fill="#258F7A"/><path d="M93.36 23.351l-1.047-.47a2.426 2.426 0 001.215 1.526l1.052.47a2.417 2.417 0 01-1.22-1.526z" fill="#258F7A"/><path d="M97.912 17.898c-2.201 1.408-3.895 4.604-3.788 7.19.109 2.585 1.976 3.556 4.177 2.167 2.201-1.389 3.896-4.603 3.788-7.184-.108-2.581-1.976-3.557-4.177-2.173z" fill="#F2F2F2"/><path d="M98.137 19.085a6.65 6.65 0 00-2.816 5.336c.08 1.915 1.47 2.633 3.098 1.61a6.664 6.664 0 002.816-5.336c-.075-1.915-1.465-2.637-3.098-1.61z" fill="#258F7A"/><path d="M98.203 20.582a3.783 3.783 0 00-1.6 3.037c.047 1.084.835 1.497 1.764.938a3.79 3.79 0 001.596-3.036c-.042-1.112-.835-1.52-1.76-.939z" fill="#F2F2F2"/><path d="M104.623 44.177c-2.919 2.295-5.247 9.747-5.388 13.66-.183 5.163 2.985 9.25 3.37 14.426.056.756.985-1.98 1.685-1.684.391.134.819.113 1.196-.057 1.488-.558 2.389-2.041 3.173-3.42 2.309-4.065 6.922-17.655 6.922-17.655s-.938-3.074-1.746-4.125c-2.59-3.336-5.833-3.791-9.212-1.145z" fill="#4B3D46"/><path d="M89.732 17.049l-.324 6.448a.29.29 0 01-.188.234c-3.933 2.046-10.203 1.746-13.952-.662-1.878-1.21-2.783-2.73-2.708-4.223l.324-6.453c-.075 1.474.82 2.994 2.708 4.224 3.754 2.407 10.02 2.703 13.957.662a.308.308 0 00.183-.23z" fill="#F2F2F2"/><path d="M87.831 19.831l-.127 2.69c-3.885 1.266-9.076.774-12.347-1.329a6.011 6.011 0 01-2.445-2.698c-.2-.478-.29-.994-.268-1.511l.15-2.689c-.07 1.478.827 2.994 2.709 4.2 3.167 2.037 8.128 2.567 11.962 1.44.127-.027.244-.065.366-.103z" fill="#CACACA"/><path d="M87.465 19.935l-.112 2.346c-3.882 1.267-9.063.516-12.334-1.581a6.213 6.213 0 01-2.107-2.225c-.2-.478-.29-.994-.268-1.51l.15-2.69c-.07 1.479.827 2.994 2.709 4.2 3.167 2.056 8.128 2.586 11.962 1.46z" fill="#258F7A"/><path d="M78.304 59.724l3.75 9.663-7.504-4.332 3.754-5.33z" fill="#F2F2F2"/><path d="M27.886 199.868l12.216-6.579-.004 1.849-12.216 6.579.004-1.849z" fill="#FFC040"/><path d="M.005 183.772l12.216-6.584 27.882 16.101-12.216 6.579L.005 183.772zm27.881 16.096l-.004 1.849L0 185.621l.005-1.849 27.881 16.096z" fill="#FFC040"/><path d="M27.886 198.268l12.216-6.58-.004 1.849-12.216 6.58.004-1.849z" fill="#261D22"/><path d="M.005 182.172l12.216-6.58 27.882 16.096-12.216 6.58L.005 182.172z" fill="#4B3D46"/><path d="M27.886 198.268l-.004 1.849L0 184.021l.005-1.849 27.881 16.096z" fill="#32272D"/><path d="M32.781 147.399l-15.017 38.147a1.518 1.518 0 00.37 1.483 4.79 4.79 0 004.027 1.59 1.51 1.51 0 001.3-.84l14.99-38.142a1.535 1.535 0 01-1.3.84 4.778 4.778 0 01-4.027-1.591 1.526 1.526 0 01-.343-1.487z" fill="#D9D9D9"/><path d="M32.781 147.399l-15.018 38.147a1.144 1.144 0 00-.037.68l14.99-38.142a1.124 1.124 0 01.042-.685h.023zm-.042.689l-14.99 38.143a2 2 0 00.409.802 4.13 4.13 0 001.234 1.005l14.99-38.148a4.043 4.043 0 01-1.235-.999 2.1 2.1 0 01-.408-.803z" fill="#D9D9D9"/><path d="M34.382 149.886l-14.99 38.147c.364.203.752.36 1.154.469l14.99-38.142a5.123 5.123 0 01-1.154-.47v-.004z" fill="#D9D9D9"/><path d="M35.527 150.35l-14.99 38.143a4.1 4.1 0 001.638.126 1.51 1.51 0 001.3-.84l14.99-38.142a1.535 1.535 0 01-1.3.84 4.118 4.118 0 01-1.638-.127z" fill="#D9D9D9"/><path d="M34.086 146.559c-1.375.201-1.788 1.248-.939 2.346a4.779 4.779 0 004.027 1.591c1.365-.202 1.783-1.244.938-2.323a4.77 4.77 0 00-4.027-1.614z" fill="#F2F2F2"/><path d="M63.174 71.986L33.438 147.62a1.185 1.185 0 00.291 1.164c.392.441.882.785 1.43 1.002.55.216 1.141.301 1.729.246a1.184 1.184 0 001.018-.657l29.74-75.623a1.207 1.207 0 01-1.023.661 3.755 3.755 0 01-3.158-1.252 1.198 1.198 0 01-.291-1.174z" fill="#4B3D46"/><path d="M63.173 71.986L33.438 147.62a.892.892 0 00-.033.535l29.736-75.618a.94.94 0 01.032-.535v-.015z" fill="#4B3D46"/><path d="M63.14 72.535L33.406 148.16c.06.231.17.446.324.629.266.325.595.593.967.788L64.43 73.943a3.113 3.113 0 01-.966-.788 1.614 1.614 0 01-.324-.629v.01z" fill="#665861"/><path d="M64.431 73.943l-29.735 75.624c.286.156.59.277.906.361l29.735-75.619a4.118 4.118 0 01-.906-.366z" fill="#665861"/><path d="M65.337 74.305l-29.735 75.618c.417.12.855.154 1.286.099a1.184 1.184 0 001.018-.657l29.74-75.624a1.207 1.207 0 01-1.023.662c-.431.053-.868.02-1.286-.098z" fill="#4B3D46"/><path d="M64.197 71.325c-1.075.16-1.408.98-.733 1.825a3.754 3.754 0 003.159 1.253c1.075-.16 1.408-.976.732-1.825a3.754 3.754 0 00-3.158-1.253z" fill="#665861"/><path d="M94.922 81.799c-.469-2.234 6.101-20.094 6.5-21.117.099-.273 1.319-3.952 1.662-3.858l10.404 2.863c-.399 1.605-1.178 3.252-1.628 4.692-.77 2.455-7.448 22.643-9.795 23.563-3.529 1.38-6.345-2.497-7.143-6.143z" fill="#32272D"/><path d="M111.315 44.15c-4.435-1.826-7.241 2.463-8.917 5.34a37.84 37.84 0 00-4.472 13.275 9.202 9.202 0 00.033 3.51c.263.95.666 1.854 1.197 2.685 1.182 1.97 2.9 3.923 5.162 4.294.71.098 1.43.098 2.14 0a6.758 6.758 0 002.816-.803c1.408-.882 2.065-2.557 2.614-4.125a77.682 77.682 0 003.285-12.032c.817-4.406 1.572-9.902-3.858-12.145zM68.8 93.906c-4.937.178-6.636-6.734-.239-8.836 6.833-2.248 15.84-3.947 21.776-5.885 1.305-.422 3.99-1.431 5.35-.98 1.464.469.418 2.843 1.54 4.007.581.6 2.548 1.14 3.336 1.408 2 .727 3.797 3.904 2.38 5.302-2.455 2.44-26.258 4.703-34.142 4.984z" fill="#EEF8F6"/><path d="M71.663 93.765c-1.079.066-2.05.113-2.881.141-4.937.178-6.636-6.734-.24-8.836.728-.24 1.483-.47 2.248-.7-1.586 2.619-.69 6.584.873 9.395zm33.603-8.559l-.376-.83c-.277-.61-.962-1.038-1.98-1.136l.375.83c1.019.103 1.699.535 1.981 1.136z" fill="#2CA58D"/><path d="M105.266 85.206l-.376-.83a1.716 1.716 0 00-.675-.738l.375.826c.295.174.53.433.676.742zm-.676-.732l-.375-.826a2.45 2.45 0 00-.634-.272l.376.826c.222.062.435.153.633.272zm-.634-.272l-.375-.826a3.546 3.546 0 00-.671-.127l.375.83c.227.022.452.063.671.123z" fill="#2CA58D"/><path d="M96.687 88.106l.375.826c-.272-.606-.15-1.408.428-2.206a7.039 7.039 0 015.795-2.646l-.375-.831a7.007 7.007 0 00-5.791 2.647c-.582.82-.704 1.605-.432 2.21z" fill="#2CA58D"/><path d="M103.285 84.08l-.375-.831h-.038l.376.826.037.005zm-.037-.005l-.376-.826a5.181 5.181 0 00-.854 0l.376.826c.284-.024.569-.024.854 0z" fill="#2CA58D"/><path d="M102.394 84.075l-.376-.826a6.02 6.02 0 00-.938.15l.38.826c.309-.07.623-.12.938-.15h-.004z" fill="#2CA58D"/><path d="M101.464 84.225l-.38-.826a7.694 7.694 0 00-2.13.868l.375.826a7.664 7.664 0 012.135-.868z" fill="#2CA58D"/><path d="M99.353 85.093l-.376-.826a7.28 7.28 0 00-.7.47l.376.83c.224-.17.458-.326.7-.469v-.005zm-.723.474l-.376-.83a6.86 6.86 0 00-.643.567l.376.826a6.81 6.81 0 01.643-.563zm-.643.577l-.376-.826c-.18.184-.344.382-.492.592l.366.835c.153-.212.32-.413.502-.6zm-.512.587l-.375-.826a3.4 3.4 0 00-.376.671l.376.826a3.91 3.91 0 01.375-.671z" fill="#2CA58D"/><path d="M97.85 85.28l-.417-.806a1.906 1.906 0 00.028 1.53l.413.807a1.877 1.877 0 010-1.53h-.023z" fill="#2CA58D"/><path d="M103.285 84.08a7.038 7.038 0 00-5.796 2.647c-1.168 1.651-.469 3.148 1.558 3.34a7.04 7.04 0 005.792-2.641c1.168-1.657.474-3.159-1.554-3.346z" fill="#DDDEFA"/><path d="M102.858 84.92a5.23 5.23 0 00-4.298 1.966c-.864 1.225-.348 2.346 1.15 2.482a5.214 5.214 0 004.298-1.961c.868-1.23.352-2.342-1.15-2.487z" fill="#2CA58D"/><path d="M102.168 85.882a2.955 2.955 0 00-2.44 1.116c-.493.7-.202 1.328.652 1.408a2.981 2.981 0 002.445-1.117c.503-.675.212-1.328-.657-1.407z" fill="#DDDEFA"/><path d="M109.593 62.174l-6.988 5.946 7.664-.216-.676-5.73z" fill="#2CA58D"/><path d="M68.28 87.552c.44 1.675-.22 3.614.652 5.11.17.241.313.501.422.775.235.793-1.004 1.107-1.553 1.408-.918.462-1.884.819-2.882 1.065a20.478 20.478 0 01-6.65.544c-.525-.047-1.168-.21-1.28-.727-.071-.333.13-.695 0-1.018-.221-.639-1.165-.395-1.817-.554-1.004-.244-1.15-1.943-.202-2.347-.84-.145-1.741-.37-2.267-1.041-.525-.671-.338-1.905.498-2.08a1.769 1.769 0 11-.432-3.51c.704-.065 1.37.296 2.06.47 2.633.624 5.106-1.605 7.805-1.783a5.632 5.632 0 013.341.675 5.786 5.786 0 012.262 2.971.58.58 0 00.043.042z" fill="#D8E7E4"/><path d="M158.016 183.725l-.103 36.552c0 1.182-.784 2.369-2.346 3.284l.103-36.551c1.553-.911 2.346-2.098 2.346-3.285z" fill="#D9D9D9"/><path d="M158.016 183.725l-.103 36.552a3.181 3.181 0 01-.859 2.088l.103-36.552c.533-.567.839-1.31.859-2.088zm-.868 2.088l-.103 36.552a5.83 5.83 0 01-1.483 1.187l.103-36.552a5.71 5.71 0 001.483-1.187zm-52.534 38.833l.103-36.552c0 1.201.788 2.403 2.375 3.322l-.104 36.552c-1.586-.92-2.379-2.121-2.374-3.322z" fill="#D9D9D9"/><path d="M107.092 191.416l-.104 36.552c-1.586-.939-2.379-2.121-2.374-3.322l.103-36.552c0 1.201.788 2.403 2.375 3.322zM155.665 187l-.103 36.552-22.344 12.985.103-36.552L155.665 187zm-33.729 12.985l-.103 36.552-14.845-8.569.104-36.552 14.844 8.569z" fill="#D9D9D9"/><path d="M133.321 199.985l-.103 36.552c-3.135 1.821-8.232 1.821-11.385 0l.103-36.552c3.154 1.821 8.25 1.821 11.385 0z" fill="#D9D9D9"/><path d="M133.321 199.985l-.103 36.552a10.647 10.647 0 01-3.999 1.262l.104-36.551a10.65 10.65 0 003.998-1.263zm-3.998 1.263l-.104 36.551c-2.581.319-5.378-.103-7.386-1.262l.103-36.552c2.009 1.159 4.806 1.582 7.387 1.263z" fill="#D9D9D9"/><path d="M155.632 180.403c3.154 1.82 3.168 4.777.033 6.598l-22.344 12.984c-3.135 1.821-8.231 1.821-11.385 0l-14.845-8.569c-3.153-1.82-3.172-4.772-.037-6.569l22.348-12.985c3.135-1.826 8.232-1.826 11.386 0l14.844 8.541z" fill="#F2F2F2"/><path d="M156.514 183.716c0 .675-.582 1.407-1.595 1.994l-6.984 4.059-15.365 8.916a11.051 11.051 0 01-9.883 0l-7.894-4.556-6.951-4.013c-1.037-.6-1.628-1.332-1.633-2.017-.004-.686.582-1.408 1.596-1.99l22.348-12.985a11.093 11.093 0 019.889 0l14.844 8.569c1.032.605 1.624 1.337 1.628 2.023z" fill="#CACACA"/><path d="M147.935 189.769l-15.365 8.916a11.051 11.051 0 01-9.883 0l-7.894-4.556 15.36-8.916a11.063 11.063 0 019.889 0l7.893 4.556z" fill="#A1E4FF"/><path d="M154.834 202.055l-23.568 13.609c-.732.422-2.962 1.712-7.087-3.755-2.966-3.946-9.18-15.016-9.245-15.124a1.381 1.381 0 00-2.408 1.347c.258.469 6.373 11.342 9.447 15.434 2.666 3.548 5.271 5.331 7.777 5.331a5.77 5.77 0 002.895-.821l23.569-13.609a7.72 7.72 0 001.755-1.408v-6.528c-.37 2.281-1.445 4.543-3.135 5.524zm5.618-10.479a30.373 30.373 0 00-2.483-5.322v6.791a10.452 10.452 0 010 3.449v6.527c2.675-2.9 3.52-7.912 2.483-11.445z" fill="#32272D"/></g><defs><clipPath id="clip0_13123_10325"><path fill="#fff" d="M0 0h160.884v237.902H0z"/></clipPath></defs></svg>