<svg width="492" height="750" fill="none" xmlns="http://www.w3.org/2000/svg"><path d="M104.5 749.4c19.882 0 36-16.118 36-36s-16.118-36-36-36-36 16.118-36 36 16.118 36 36 36z" fill="#0A2342"/><path opacity=".15" d="M140.5 713.4c0 19.9-16.1 36-36 36-3.7 0-7.2-.5-10.5-1.6 14.8-4.5 25.5-18.2 25.5-34.4s-10.7-30-25.5-34.4c3.3-1 6.8-1.6 10.5-1.6 19.9 0 36 16.1 36 36z" fill="#fff"/><path d="M139.997 595.225c8.948-65.33-11.386-122.069-45.419-126.73-34.033-4.662-68.876 44.519-77.824 109.849-8.949 65.329 11.386 122.068 45.419 126.73 34.032 4.661 68.876-44.52 77.824-109.849z" fill="#CCC"/><path d="M440.5 703.4c-7.2 12.5-83.2 17.5-165.3 17.6-60.3 0-123.9-2.6-166-6.8-1-.1-2-.2-3.1-.3l-3-.3c-1-.1-1.9-.2-2.9-.3-.9-.1-1.9-.2-2.8-.3-1.8-.2-3.6-.4-5.4-.7-.9-.1-1.7-.2-2.5-.3-.8-.1-1.7-.2-2.5-.4-1.2-.2-2.4-.4-3.5-.5-1.1-.1-2.2-.4-3.3-.5-.4-.1-.7-.1-1-.2l-3-.6c-1-.2-1.9-.4-2.7-.6-.6-.1-1.2-.3-1.7-.4-.5-.1-1.1-.3-1.6-.4-.8-.2-1.5-.4-2.2-.6-.4-.1-.9-.3-1.3-.4-.2-.1-.4-.1-.6-.2-.4-.1-.8-.3-1.1-.4-1.1-.4-1.9-.8-2.6-1.3-27-17-40-45-33-135 .4-5.4 1.4-11.3 2.8-17.6 4.1-18.5 12-40.2 20.9-62.2 13.4-26 29.4-47.8 43-104.5 1.8-5.8 3-10.8 3.3-14.8 8-93-7-205 28-223 1.6-.3 3.2-.5 4.9-.8.5-.1 1-.2 1.4-.2 4-.6 8.4-1.2 13.1-1.8 79.9-9.8 246.3-9.6 280.6 76.9 19 48 8.2 147 7 184-2 62 12 70 21 112 3 13.8 5.7 38.8 6 66.8.5 41.1-4.2 89-20.9 118.1z" fill="#fff"/><path d="M272.6 609c-.3 44.6-2.2 85.1-7 112-57.4-.2-116.6-2.8-156.5-6.8-1-.1-2-.2-3.1-.3l-3-.3c-1-.1-1.9-.2-2.9-.3-.9-.1-1.9-.2-2.8-.3-1.4-.2-2.8-.3-4.2-.5-.4 0-.8-.1-1.1-.2-.9-.1-1.7-.2-2.5-.3-.8-.1-1.7-.2-2.5-.4-1.2-.2-2.4-.4-3.5-.5-1.1-.1-2.2-.4-3.3-.5-.4-.1-.7-.1-1-.2l-3-.6c-1-.2-1.9-.4-2.7-.6-.6-.1-1.2-.3-1.7-.4-.5-.1-1.1-.3-1.6-.4-.8-.2-1.5-.4-2.2-.6-.4-.1-.9-.3-1.3-.4-.2-.1-.4-.1-.6-.2-.4-.1-.8-.3-1.1-.4-1.1-.4-1.9-.8-2.6-1.3-27-17-40-45-33-135 .8-6.3 1.8-12.1 2.8-17.6 5.3-28.5 12.6-46.1 20.9-62.2 13.4-26 29.4-47.8 43-104.5 1.1-4.7 2.2-9.6 3.3-14.8 8-93-7-205 28-223 1.6-.3 3.2-.5 4.9-.8.5-.1 1-.2 1.4-.2 4-.6 8.4-1.2 13.1-1.8 31.3 16.1 72.1 44.6 91.6 89.9 8.7 20.1 15.3 63.5 20.4 117 6.8 70.8 10.8 159.4 13.2 235-10.4 1-40.4 1.9-98.6-3 .1 5.8 60.1 27.9 99.2 24.5z" fill="#CCC"/><path d="M314.8 157.2c-2 14.5-37.1 21.7-78.4 16-34.9-4.8-63-17.2-69.8-29.6 41.2-3.5 96.6-3.8 146.2 6 1.7 2.5 2.3 5 2 7.6z" fill="#E6E6E6"/><path d="M228.5 118.4s-4 18-4 31c26 16 70 20 90 11 1-26 0-32 0-32l-86-10z" fill="#CCC"/><path d="M228.5 118.4s-4 18-4 31c26 16 70 20 90 11-23.7-1.3-45-28-49-38-19-2-37-4-37-4zm37.1 438.5h-19.1l-.1-52.8v-14.3l-.1-14.3-.2-14.3c-.1-4.7-.1-9.5-.2-14.2-.8-37.9-3.199-75.3-9.3-111.9l-2.399-13.7-2.801-13.6c-.4-2.3-1-4.5-1.5-6.8l-1.6-6.8-.8-3.4-.4-1.7-.399-1.5-1.801-6.2c-2.5-8.2-5.7-16.2-9.4-23.9-3.7-7.7-8.1-15.1-12.9-22.1-4.8-7-10.3-13.7-16.1-19.9l-2.2-2.3c-.7-.8-1.5-1.5-2.3-2.2l-2.299-2.2-2.301-2.2c-3.1-2.9-6.4-5.6-9.8-8.2-6.7-5.2-13.8-9.9-20.899-13.7-3.6-1.9-7.401-3.2-10.601-4.9-6.5-3.4-18.6-8.3-24.6-9.4v-26c2.2.1 4.7.8 7.1 1.5 2.4.7 4.7 1.6 7 2.5a185 185 0 0113.601 6.3c8.9 4.6 17.499 9.8 25.599 15.6 16.4 11.5 31.3 25.1 44 40.6 6.3 7.7 12.1 16 17.2 24.6 5 8.6 9.4 17.7 13 27 1.8 4.7 3.301 9.4 4.701 14.2 1.399 4.8 2.499 9.7 3.599 14.6 2.2 9.8 4.1 19.6 5.8 29.5 6.9 39.6 9.701 79.8 10.801 119.9 1.1 38.8.999 77.5 1.699 116.2z" fill="#999"/><path d="M286.401 556.9H265.6c-.7-38.7-.599-77.4-1.699-116.1-1.1-40.1-3.901-80.3-10.801-119.9-1.7-9.9-3.7-19.7-5.8-29.5-1.1-4.9-2.2-9.8-3.599-14.6-1.4-4.8-3.001-9.6-4.701-14.2-3.6-9.3-7.9-18.4-13-27-5.1-8.6-10.8-16.8-17.2-24.6-12.7-15.5-27.6-29.1-44-40.6-8.2-5.8-16.8-11-25.599-15.6a185 185 0 00-13.601-6.3c-2.3-.9-4.7-1.8-7-2.5s-4.8-1.4-7.1-1.5v-1.3c.2-.2.3-.4.5-.7 3.6-4.5 14.2-14 20.5-14 1 0 2 .1 3 .2.9.1 2.1.2 2.6.4l1.9.4 1 .2.5.1.4.1 3 .9c.5.2.9.3 1.301.5l1.199.5c3.3 1.2 6.1 2.6 8.801 3.9 5.4 2.7 10.199 5.5 14.799 8.5 4.7 3 9.1 6.1 13.4 9.4 4.3 3.3 8.4 6.7 12.4 10.3 4 3.6 7.8 7.2 11.5 11.1l2.8 2.9 2.7 2.9 2.7 3 2.6 3c6.9 8.1 13.1 16.7 18.8 25.7 5.7 9 10.6 18.4 14.9 28.1 4.3 9.7 7.9 19.7 10.8 29.9l1.9 7.7.5 1.9.401 1.8.8 3.6 1.599 7.2c.5 2.4 1.1 4.8 1.5 7.3l2.7 14.6 2.3 14.6c5.8 39.1 8.001 78.4 8.901 117.1.8 37 1 73.9 2.2 110.6z" fill="#999"/><path d="M357.8 212.8c16.1 14.9 20.8 35.9 10.7 46.9-4.5 4.9-11.1 7-18.6 6.5-9.4-.5-20-5.2-29-13.5s-14.4-18.5-15.7-27.9c-1-7.4.6-14.2 5.1-19 10.1-10.9 31.4-7.8 47.5 7zm12.7 109.6c0 12.1-7.8 22-17.5 22-4.3 0-8.2-1.9-11.2-5.1-3.8-4-6.3-10.1-6.3-16.9 0-6.8 2.5-12.9 6.3-16.9 3-3.2 6.9-5.1 11.2-5.1 9.7 0 17.5 9.9 17.5 22z" fill="#CCC"/><path d="M356.5 322.4c0 9.4-6 17-13.5 17-.4 0-.8 0-1.2-.1-3.8-4-6.3-10.1-6.3-16.9 0-6.8 2.5-12.9 6.3-16.9.4 0 .8-.1 1.2-.1 7.5 0 13.5 7.6 13.5 17z" fill="#0A2342"/><path d="M368.4 259.7c-.4.5-.9.9-1.3 1.3-4.4 3.9-10.5 5.6-17.2 5.2-9.4-.5-20-5.2-29-13.5s-14.4-18.5-15.7-27.9c-.8-5.6 0-11 2.4-15.3.7-1.3 1.6-2.6 2.7-3.7 10.2-11 31.5-7.9 47.6 6.9 15.9 15 20.7 36 10.5 47z" fill="#999"/><path d="M367.1 261c-4.4 3.9-10.5 5.6-17.2 5.2-9.4-.5-20-5.2-29-13.5s-14.4-18.5-15.7-27.9c-.8-5.6 0-11 2.4-15.3 10.6-9.4 30.8-6 46.2 8.2 14.4 13.4 19.7 31.7 13.3 43.3z" fill="#CCC"/><path d="M360.6 253.4c-.3.3-.6.7-1 .9-3.2 2.9-7.7 4.1-12.6 3.8-6.9-.4-14.6-3.8-21.2-9.8-6.6-6.1-10.5-13.5-11.5-20.4-.6-4.1 0-8 1.8-11.2.5-1 1.2-1.9 1.9-2.7 7.4-8.1 23-5.8 34.8 5.1 11.7 11 15.2 26.3 7.8 34.3z" fill="#999"/><path d="M360.9 248.9l-.9.9c-3 2.6-7.1 3.8-11.6 3.5-6.3-.4-13.5-3.5-19.5-9.1s-9.7-12.5-10.6-18.7c-.5-3.8 0-7.4 1.6-10.3.5-.9 1.1-1.7 1.8-2.5 6.9-7.4 21.2-5.3 32 4.7 10.8 9.9 14 24.1 7.2 31.5z" fill="#fff"/><path d="M111.5 170.4s39 9 64 34c2 11-10 20-15 20-14-13-48-26-54.8-25.1-9.2-17.9 5.8-28.9 5.8-28.9z" fill="#0A2342"/><path d="M265.6 556.9h-19.1l-.1-52.8v-14.3l-.1-14.3-.2-14.3c-.1-4.7-.1-9.5-.2-14.2-.8-37.9-3.2-75.3-9.3-111.9l-2.4-13.7-2.8-13.6c-.4-2.3-1-4.5-1.5-6.8l-1.6-6.8-.8-3.4-.4-1.7-.4-1.5-1.8-6.2c-2.5-8.2-5.7-16.2-9.4-23.9-3.7-7.7-8.1-15.1-12.9-22.1-4.8-7-10.3-13.7-16.1-19.9l-2.2-2.3c-.7-.8-1.5-1.5-2.3-2.2l-2.3-2.2-2.3-2.2c-3.1-2.9-6.4-5.6-9.8-8.2-6.7-5.2-13.8-9.9-20.9-13.7-3.6-1.9-7.4-3.2-10.6-4.9-6.5-3.4-18.6-8.3-24.6-9.4v-26c2.2.1 4.7.8 7.1 1.5 2.4.7 4.7 1.6 7 2.5 4.6 1.9 9.1 4 13.6 6.3 8.9 4.6 17.5 9.8 25.6 15.6 16.4 11.5 31.3 25.1 44 40.6 6.3 7.7 12.1 16 17.2 24.6 5 8.6 9.4 17.7 13 27 1.8 4.7 3.3 9.4 4.7 14.2 1.4 4.8 2.5 9.7 3.6 14.6 2.2 9.8 4.1 19.6 5.8 29.5 6.9 39.6 9.7 79.8 10.8 119.9 1.1 38.8 1 77.5 1.7 116.2z" fill="#999"/><path d="M286.4 558.9l-20.8-2c-.7-38.7-.6-77.4-1.7-116.1-1.1-40.1-3.9-80.3-10.8-119.9-1.7-9.9-3.7-19.7-5.8-29.5-1.1-4.9-2.2-9.8-3.6-14.6-1.4-4.8-3-9.6-4.7-14.2-3.6-9.3-7.9-18.4-13-27-5.1-8.6-10.8-16.8-17.2-24.6-12.7-15.5-27.6-29.1-44-40.6-8.2-5.8-16.8-11-25.6-15.6-4.5-2.3-9-4.4-13.6-6.3-2.3-.9-4.7-1.8-7-2.5s-4.8-1.4-7.1-1.5v-1.3c.2-.2.3-.4.5-.7 3.6-4.5 14.2-14 20.5-14 1 0 2 .1 3 .2.9.1 2.1.2 2.6.4l1.9.4 1 .2.5.1.4.1 3 .9c.5.2.9.3 1.3.5l1.2.5c3.3 1.2 6.1 2.6 8.8 3.9 5.4 2.7 10.2 5.5 14.8 8.5 4.7 3 9.1 6.1 13.4 9.4 4.3 3.3 8.4 6.7 12.4 10.3 4 3.6 7.8 7.2 11.5 11.1l2.8 2.9 2.7 2.9 2.7 3 2.6 3c6.9 8.1 13.1 16.7 18.8 25.7 5.7 9 10.6 18.4 14.9 28.1 4.3 9.7 7.9 19.7 10.8 29.9l1.9 7.7.5 1.9.4 1.8.8 3.6 1.6 7.2c.5 2.4 1.1 4.8 1.5 7.3l2.7 14.6 2.3 14.6c5.8 39.1 8 78.4 8.9 117.1.8 37 1 75.9 2.2 112.6z" fill="#CCC"/><path d="M267.2 556.9h-1.6c-.7-38.7-.6-77.4-1.7-116.1-1.1-40.1-3.9-80.3-10.8-119.9-1.7-9.9-3.7-19.7-5.8-29.5-1.1-4.9-2.2-9.8-3.6-14.6-1.4-4.8-3-9.6-4.7-14.2-3.6-9.3-7.9-18.4-13-27-5.1-8.6-10.8-16.8-17.2-24.6-12.7-15.5-27.6-29.1-44-40.6-8.2-5.8-16.8-11-25.6-15.6-4.5-2.3-9-4.4-13.6-6.3-2.3-.9-4.7-1.8-7-2.5s-4.8-1.4-7.1-1.5v-1.3c.2-.2.3-.4.5-.7 2.6.2 4.8.9 7.1 1.6 2.4.8 4.8 1.7 7.2 2.6 4.7 1.9 9.3 4.1 13.8 6.4 9 4.6 17.6 9.9 25.8 15.8 16.5 11.7 31.5 25.4 44.3 41 6.4 7.8 12.2 16.1 17.3 24.8 5.1 8.7 9.5 17.9 13 27.3 1.8 4.7 3.3 9.5 4.7 14.4 1.4 4.9 2.5 9.8 3.6 14.7 2.2 9.8 4.1 19.7 5.9 29.6 7 39.7 9.7 80 10.8 120.2 1.1 38.6 1 77.3 1.7 116z" fill="#fff"/><path d="M411.6 165.3c6.9 6.1 11.4 13.6 15.9 22 9 16.7 15.2 34.7 18.7 53 1.7 9.2 2.9 18.4 3.5 27.6l.3 6.9.1 6.7c.1 4.4.2 8.8.2 13.3.1 17.7-.2 35.2-.7 52.8-.5 17.6-1.3 35.1-2.3 52.6-.9 17.5-2 35-3.3 52.5-1.2 17.5-2.8 34.9-4.2 52.4-1.5 17.5-3.2 34.9-4.9 52.3-.6 6.6-6.5 11.4-13.1 10.8-6.6-.6-11.4-6.5-10.8-13.1v-.3c4.1-34.5 7.5-69.1 10-103.7 2.6-34.6 4.5-69.3 5.2-104 .4-17.3.5-34.6.2-51.9 0-4.3-.2-8.6-.3-12.9l-.2-6.4c-.1-2.1-.2-4.1-.4-6.1-.7-8.2-1.8-16.3-3.6-24.2-3.5-15.9-9.4-31.1-17.7-44.7-4.1-6.8-8.8-13.2-14-18.8-2.6-2.8-5.3-5.5-8.1-7.7-1.4-1.1-2.7-2.2-4-2.9 10.4-15.1 28.4-10.1 33.5-6.2z" fill="#E6E6E6"/><path d="M439.6 302c0 18.3-.4 36.5-1 54.8-.7 18.2-1.5 36.5-2.6 54.7-.5 9.1-1.1 18.2-1.7 27.3-.6 9.1-1.2 18.2-2 27.3-2.6 34.1-5.7 68.1-9.3 102-.4 0-.8 0-1.1-.1-.4 0-.8-.1-1.2-.2-6-1.2-10.1-6.8-9.5-12.9v-.3c4.1-34.5 7.5-69.1 10-103.7 2.6-34.7 4.5-69.4 5.2-104 .4-17.3.5-34.6.2-51.9 0-4.3-.2-8.6-.3-12.9l-.2-6.4c-.1-2-.2-4.1-.4-6.1-.7-8.2-1.8-16.3-3.6-24.2-3.5-15.9-9.4-31.1-17.7-44.7-4.1-6.8-8.8-13.2-14-18.8-2.6-2.8-5.3-5.5-8.1-7.7-1.4-1.1-2.8-2.2-4-2.9 3.1-4.4 6.9-7 10.8-8.4 1.1-.4 2.3-.7 3.4-1 .3.2.6.5.9.8 3.4 3.1 6.6 6.5 9.6 10 5.9 7.1 11.1 14.8 15.5 22.8 8.8 16.2 14.8 33.8 18 51.9 1.6 9 2.6 18.2 2.9 27.4.2 4.6.2 9.1.3 13.7-.1 4.4-.2 8.9-.1 13.5z" fill="#999"/><path d="M422.9 568.1c3.7-34 6.8-68 9.3-102 .7-9.1 1.3-18.2 2-27.3.6-9.1 1.2-18.2 1.7-27.3 1.1-18.2 1.9-36.4 2.6-54.7.7-18.2 1-36.5 1-54.8 0-4.6 0-9.1-.1-13.7l-.3-13.7c-.3-9.2-1.3-18.3-2.9-27.4-3.2-18.1-9.2-35.7-18-51.9-4.4-8.1-9.6-15.8-15.5-22.8-3-3.5-6.1-6.9-9.6-10-.3-.3-.6-.5-.9-.8-.7.1-1.3.3-2 .5-.5.1-.9.3-1.4.5.8.6 1.6 1.3 2.3 2 3.3 3 6.4 6.3 9.3 9.7 5.8 6.9 10.9 14.4 15.2 22.3 8.7 15.8 14.7 33.2 17.9 51 1.6 8.9 2.6 17.9 3 27 .2 4.5.2 9.1.4 13.6.1 4.6.1 9.1.1 13.7 0 18.2-.4 36.5-1 54.7-.7 18.2-1.5 36.4-2.6 54.6-.5 9.1-1.1 18.2-1.7 27.3-.7 9.1-1.2 18.2-2 27.3-2.6 34-5.7 68-9.3 102l2.5.2zm-264.059 29.882c9.533-69.597-12.146-130.045-48.422-135.014C74.143 458 37.007 510.391 27.474 579.989c-9.533 69.597 12.147 130.045 48.423 135.014 36.276 4.968 73.411-47.423 82.944-117.021z" fill="#fff"/><path d="M90.9 459.9c-34.8 0-69.3 51-78.4 117.8-9.6 69.9 12.2 130.6 48.6 135.5 1.6.2 3.2.3 4.8.3 34.8 0 69.3-51 78.4-117.8 9.6-69.9-12.2-130.6-48.6-135.5-1.6-.1-3.2-.3-4.8-.3z" fill="#2CA58D"/><path d="M90.9 479.9c.7 0 1.4 0 2.1.1 9.6 1.3 19.1 12.7 25.4 30.4 8 22.3 10.2 52.4 6.1 82.6-4 29.3-13.4 56.1-26.4 75.6-10.5 15.6-22.5 25-32.2 25-.7 0-1.4 0-2.1-.1-9.6-1.3-19.1-12.7-25.4-30.4-8-22.3-10.2-52.4-6.1-82.6 4-29.3 13.4-56.1 26.4-75.6 10.5-15.6 22.5-25 32.2-25z" fill="#CCC"/><path d="M83.1 546.6c.3 0 .5 0 .8.1 3.6.5 7.2 4.8 9.6 11.4 3 8.4 3.8 19.7 2.3 31.1-1.5 11-5 21.1-9.9 28.4-3.9 5.9-8.5 9.4-12.1 9.4-.3 0-.5 0-.8-.1-3.6-.5-7.2-4.8-9.6-11.4-3-8.4-3.8-19.7-2.3-31.1 1.5-11 5-21.1 9.9-28.4 3.9-5.9 8.5-9.4 12.1-9.4z" fill="#0A2342"/><path d="M40.3 580.5c-4.1 30.2-1.9 60.3 6.1 82.6 5.9 16.6 14.6 27.6 23.6 30-1.4.3-2.8.5-4.1.5-.7 0-1.4-.1-2.1-.1-9.6-1.3-19.1-12.7-25.4-30.4-8-22.3-10.2-52.4-6.1-82.6 4-29.2 13.4-56.1 26.4-75.5 10.5-15.6 22.5-25 32.2-25 .7 0 1.4 0 2.1.1.6.1 1.2.2 1.8.4-8.9 2.1-19.1 10.9-28.1 24.5-13 19.4-22.4 46.2-26.4 75.5z" fill="#999"/><path d="M440.053 86.838c2.783-32.687-65.892-65.224-153.389-72.672-87.497-7.449-160.684 13.011-163.466 45.699-2.783 32.687 65.892 65.224 153.389 72.673 87.497 7.448 160.683-13.012 163.466-45.7z" fill="#fff"/><path d="M325 133.8c-15.3.5-31.6.1-48.4-1.3-87.5-7.4-156.2-40-153.4-72.7 2.5-29.9 63.8-49.5 141.1-47-64.6 2.2-112.9 20.6-115.1 47-2.8 32.7 65.9 65.2 153.4 72.7 7.6.6 15 1.1 22.4 1.3z" fill="#E6E6E6"/><path d="M440.1 86.8c-2.2 26.4-50.5 44.8-115 47h-.1c-7.3-.2-14.8-.7-22.4-1.3-87.5-7.4-156.2-40-153.4-72.7 2.2-26.4 50.5-44.9 115.1-47 7.3.2 14.8.7 22.3 1.3 87.6 7.5 156.2 40 153.5 72.7z" fill="#fff"/><path d="M416.617 79.028c2.272-26.689-51.292-53.042-119.639-58.86-68.347-5.818-125.594 11.101-127.867 37.79-2.272 26.69 51.293 53.043 119.639 58.861 68.347 5.818 125.595-11.101 127.867-37.79z" fill="#CCC"/><path d="M412.831 75.706c2.01-23.608-50.072-47.318-116.328-52.958-66.256-5.64-121.596 8.925-123.605 32.533-2.01 23.607 50.072 47.318 116.327 52.958 66.256 5.64 121.596-8.925 123.606-32.533z" fill="#0A2342"/><path d="M412.8 75.7c-2 23.6-57.3 38.1-123.6 32.5-66.3-5.6-118.3-29.3-116.3-52.9.7-7.7 7-14.5 17.7-19.9C212.4 24.3 252 19 296.5 22.8c41.9 3.6 78.2 14.4 98.7 27.8 11.8 7.8 18.4 16.5 17.6 25.1z" fill="#0A2342"/><path opacity=".15" d="M395.2 50.6C373.4 61.7 333.8 67 289.3 63.2c-41.9-3.6-78.2-14.4-98.7-27.8C212.4 24.3 252 19 296.5 22.8c42 3.6 78.2 14.4 98.7 27.8z" fill="#fff"/><path d="M230.2 56.5l12.3-8.3c1.6-1.1 3.8-.7 5 .7l8.9 10.9c.7.9.6 2.2-.3 2.9-.7.5-1.5.6-2.3.3l-12.6-6.3 5 .7-14.6 2.9c-1.1.2-2.2-.5-2.5-1.6.1-.9.4-1.8 1.1-2.2zm100 10l12.3-8.3c1.6-1.1 3.8-.7 5 .7l8.9 10.9c.7.9.6 2.2-.3 2.9-.7.5-1.5.6-2.3.3l-12.6-6.3 5 .7-14.6 2.9c-1.1.2-2.2-.5-2.5-1.6.1-.9.4-1.8 1.1-2.2z" fill="#2CA58D"/><path d="M144.385 58.65c.9-6.566-2.363-12.435-7.288-13.11-4.924-.674-9.645 4.102-10.544 10.667-.9 6.566 2.363 12.435 7.288 13.11 4.924.675 9.645-4.101 10.544-10.667zM326.8 589.2c-76.4 0-129.5-11.8-151.6-18.4.3-11.4-.7-23.4-1.7-30.4 80.1 23.7 240.4 21 286 4.9 9-.9 14 21.1 2 28.3-26.9 9.5-77 15.3-130.7 15.6h-4z" fill="#0A2342"/><path d="M264.9 567.9c15.7 2.2 31.5 3.5 47.4 3.9 15.9.4 31.8.1 47.6-.9s31.6-2.8 47.2-5.3c15.6-2.6 31.1-5.9 46.1-10.5 2.4-.7 4.9.6 5.6 3 .7 2.4-.6 4.9-3 5.6h-.1c-15.6 4.4-31.5 7.5-47.5 9.8-16 2.3-32 3.7-48.1 4.4-16.1.7-32.1.7-48.2-.1-16-.8-32.1-2.4-47.9-5-1.4-.2-2.3-1.5-2.1-2.9.4-1.2 1.6-2.1 3-2z" fill="#fff" opacity=".15"/><path d="M357.9 572.9c8.3-.8 16.6-1.4 24.8-2.4s16.4-2.2 24.5-3.7c8.1-1.5 16.2-3.3 24.2-5.2 8-1.9 15.9-4.2 23.8-6.6h.1c2.4-.7 4.9.7 5.6 3 .7 2.4-.7 4.9-3 5.6-.1 0-.2.1-.3.1-8.2 1.8-16.4 3.6-24.7 5s-16.6 2.6-24.9 3.6c-8.3.9-16.7 1.6-25 2-8.3.4-16.7.4-25 .6-.6 0-1-.4-1-1 0-.5.4-.9.9-1z" fill="#fff"/><path d="M490.5 717.4c-4.8 2.2-9.8 4.3-15 6.2-6 2.2-12.3 4.3-18.8 6.2-4.6 1.3-9.3 2.6-14.1 3.8-39.9 9.8-86.9 14.1-133.7 14.1-5.3 0-10.6 0-15.9-.2-22.2-.4-44.2-1.8-65.1-4-46.8-4.9-88.5-13.7-116.3-25.1 7-4 52-34 62-134 82 26 249 24 288 0 23.9 30 33.9 80 28.9 133z" fill="#0A2342"/><path opacity=".15" d="M442.5 733.6c-39.9 9.8-86.9 14.1-133.7 14.1 6.1-26.9 9.6-58.4 8.6-74.3 35 2 93-1 126-12 2 6.6 4.8 48.3-.9 72.2z" fill="#fff"/><path d="M475.4 723.6c-6 2.2-12.3 4.3-18.8 6.2 2.9-22.2 2.4-39.8 1.5-51-1.1-13.4-3.2-20.9-3.2-21l17.3-5c.3 1.3 7.6 27.2 3.2 70.8z" fill="#fff"/><path d="M303.7 673c-.2 10.6-4.5 51.5-10.8 74.5-22.2-.4-44.2-1.8-65.1-4 12.2-20.5 22-60.5 26.5-78.1 0 0 29.2 7 49.4 7.6zm30.6-18.2c-24.2 0-51.1-1.9-77.1-7.8l6.5-29.3c74.7 16.7 168-.1 191.4-11l12.6 27.2c-17 7.9-51.3 15.2-87.4 18.6-13 1.3-28.8 2.3-46 2.3z" fill="#fff" opacity=".15"/></svg>