<svg width="78" height="71" fill="none" xmlns="http://www.w3.org/2000/svg"><g clip-path="url(#clip0_13123_10557)"><path opacity=".08" d="M69.1 35.685c11.809 6.882 11.873 18.141.14 25.023l-8.744 5.13c-11.74 6.882-30.99 6.882-42.795 0L8.9 60.709c-11.809-6.882-11.87-18.14-.14-25.023l8.744-5.13c11.74-6.882 30.99-6.882 42.795 0l8.801 5.13z" fill="#0A2342"/><path d="M68.949 36.393l-.034 11.94c0 3.983-2.587 7.96-7.738 10.98l.035-11.94c5.15-3.02 7.725-6.997 7.737-10.98z" fill="#32272D"/><path d="M68.949 36.393l-.034 11.94a9.302 9.302 0 01-.178 1.8l.03-11.94a9.02 9.02 0 00.182-1.8z" fill="#32272D"/><path d="M68.767 38.194l-.03 11.94c-.652 3.276-3.064 6.453-7.238 8.984l.034-11.936c4.166-2.535 6.586-5.712 7.234-8.989z" fill="#32272D"/><path d="M61.533 47.182L61.5 59.118l-.322.195.035-11.94.321-.191zM0 48.18l.034-11.94c0 4.033 2.61 8.07 7.858 11.133l-.034 11.94C2.61 56.239-.012 52.213 0 48.18z" fill="#32272D"/><path d="M7.892 47.373l-.034 11.94C2.61 56.254-.012 52.213 0 48.18l.034-11.94c0 4.033 2.61 8.07 7.858 11.133zm53.32 0l-.034 11.94-7.726 4.53.034-11.94 7.726-4.53z" fill="#32272D"/><path d="M15.671 51.903l-.034 11.94-7.779-4.53.034-11.94 7.78 4.53z" fill="#32272D"/><path d="M53.486 51.903l-.034 11.94c-10.366 6.083-27.381 6.083-37.815 0l.034-11.94c10.434 6.083 27.45 6.083 37.815 0z" fill="#32272D"/><path d="M53.486 51.903l-.034 11.94a30.002 30.002 0 01-5.814 2.58l.035-11.939a29.775 29.775 0 005.813-2.58z" fill="#32272D"/><path d="M47.673 54.484l-.035 11.94a43.703 43.703 0 01-16.883 1.823l.035-11.94a43.703 43.703 0 0016.883-1.823z" fill="#32272D"/><path d="M30.8 56.308l-.033 11.94c-5.537-.46-10.873-1.912-15.119-4.405l.035-11.94c4.245 2.478 9.581 3.946 15.118 4.405z" fill="#32272D"/><path d="M61.098 25.271c10.434 6.083 10.49 16.03.125 22.113l-7.726 4.53c-10.365 6.083-27.38 6.083-37.814 0l-7.78-4.53c-10.433-6.082-10.486-16.03-.12-22.113l7.725-4.53c10.366-6.083 27.381-6.083 37.815 0l7.775 4.53z" fill="#32272D"/><path d="M34.588 53.945c-6.734 0-13.016-1.503-17.69-4.206L9.12 45.205c-4.26-2.485-6.608-5.654-6.616-8.923-.007-3.269 2.307-6.381 6.503-8.843l7.726-4.534c4.639-2.719 10.899-4.206 17.633-4.206 6.733 0 13.012 1.499 17.685 4.206l7.78 4.534c4.26 2.485 6.612 5.654 6.615 8.923.004 3.269-2.302 6.381-6.498 8.843l-7.71 4.534c-4.64 2.715-10.904 4.206-17.649 4.206z" fill="#32272D"/><path d="M68.949 33.105l-.034 11.94c0 3.983-2.587 7.96-7.738 10.98l.035-11.94c5.15-3.02 7.725-6.996 7.737-10.98z" fill="#D9D9D9"/><path d="M68.949 33.105l-.034 11.94a9.368 9.368 0 01-.178 1.8l.03-11.94c.12-.592.181-1.195.182-1.8z" fill="#CACACA"/><path d="M68.767 34.906l-.03 11.94c-.652 3.276-3.064 6.453-7.238 8.984l.034-11.94c4.166-2.531 6.586-5.708 7.234-8.984z" fill="#CACACA"/><path d="M61.533 43.89L61.5 55.83l-.322.195.035-11.94.321-.195z" fill="#CACACA"/><path d="M0 44.892l.034-11.94c0 4.033 2.61 8.07 7.858 11.133l-.034 11.94C2.61 52.962-.012 48.925 0 44.892z" fill="#D9D9D9"/><path d="M7.892 44.085l-.034 11.94C2.61 52.966-.012 48.925 0 44.892l.034-11.94c0 4.033 2.61 8.07 7.858 11.133z" fill="#D9D9D9"/><path d="M61.212 44.085l-.034 11.936-7.726 4.534.034-11.94 7.726-4.53z" fill="#CACACA"/><path d="M15.671 48.615l-.034 11.94-7.779-4.53.034-11.94 7.78 4.53z" fill="#D9D9D9"/><path d="M11.005 45.897v11.959l2.212 1.288V47.185l-2.212-1.288zm42.481 2.718l-.034 11.94c-10.366 6.083-27.381 6.083-37.815 0l.034-11.94c10.434 6.094 27.45 6.094 37.815 0z" fill="#D9D9D9"/><path d="M53.486 48.615l-.034 11.94a30.008 30.008 0 01-5.814 2.58l.035-11.939a30.004 30.004 0 005.813-2.58z" fill="#CACACA"/><path d="M47.673 51.196l-.035 11.94a43.703 43.703 0 01-16.883 1.823l.035-11.94a43.703 43.703 0 0016.883-1.823z" fill="#CACACA"/><path d="M30.8 53.02l-.033 11.94c-5.537-.46-10.873-1.912-15.119-4.405l.035-11.94c4.245 2.478 9.581 3.946 15.118 4.405z" fill="#D9D9D9"/><path d="M61.098 21.972c10.434 6.082 10.49 16.03.125 22.113l-7.726 4.53c-10.365 6.083-27.38 6.083-37.814 0l-7.78-4.53c-10.433-6.083-10.486-16.03-.12-22.113l7.725-4.535c10.366-6.078 27.381-6.078 37.815 0l7.775 4.535z" fill="#F2F2F2"/><path d="M34.38 17.017c6.438 0 12.448 1.426 16.88 4.007l7.778 4.534c3.742 2.18 5.806 4.852 5.81 7.516.003 2.665-2.02 5.272-5.681 7.429l-7.726 4.534c-4.397 2.58-10.373 4.003-16.823 4.003-6.45 0-12.448-1.426-16.883-4.007l-7.779-4.534c-3.741-2.183-5.805-4.852-5.809-7.517-.004-2.664 2.022-5.272 5.7-7.432l7.726-4.53c4.396-2.58 10.372-4.003 16.822-4.003h-.015zm0-1.629c-6.734 0-12.994 1.499-17.633 4.206L9.02 24.128c-4.196 2.462-6.506 5.6-6.502 8.843.003 3.242 2.355 6.438 6.616 8.923l7.778 4.535c4.674 2.722 10.957 4.205 17.69 4.205 6.734 0 12.994-1.499 17.633-4.206l7.726-4.53c4.196-2.462 6.502-5.6 6.499-8.843-.004-3.242-2.356-6.438-6.617-8.923l-7.778-4.534c-4.674-2.723-10.953-4.206-17.686-4.206v-.004z" fill="#2CA58D"/><path d="M68.52 41.604c-.897 2.932-3.222 5.734-6.986 8.028-.107.065-.212.13-.322.192l-7.726 4.534a30.007 30.007 0 01-5.813 2.58 43.005 43.005 0 01-14.49 1.958v2.802c4.893.176 9.78-.486 14.456-1.957a30.007 30.007 0 005.813-2.58l7.726-4.531.322-.195c3.813-2.294 6.15-5.162 7.02-8.136v-2.695zm-54.383-5.651v2.294c0 1.483.97 2.967 2.901 4.098 3.886 2.294 10.226 2.294 14.115 0 1.97-1.147 2.954-2.653 2.95-4.155l-.019-2.294c0 1.502-.977 3.008-2.946 4.155-3.912 2.294-10.225 2.294-14.119 0-1.9-1.131-2.881-2.615-2.881-4.098z" fill="#32272D"/><path d="M14.137 35.953v2.294c.003.53.124 1.052.353 1.53l-.02-2.295c-.225-.478-.345-1-.352-1.529h.02zm.379 1.529l.02 2.294a5.899 5.899 0 002.272 2.416v-2.294a5.927 5.927 0 01-2.296-2.412l.004-.004z" fill="#32272D"/><path d="M16.788 39.895v2.294l.258.153a13.802 13.802 0 006.306 1.693v-2.294a13.876 13.876 0 01-6.31-1.693c-.087-.05-.17-.104-.254-.157v.004zm6.572 1.85v2.294a16.51 16.51 0 004.672-.451v-2.294a16.53 16.53 0 01-4.673.455v-.004z" fill="#32272D"/><path d="M28.032 41.29v2.294a12.053 12.053 0 003.136-1.242c1.97-1.147 2.954-2.654 2.95-4.156l-.019-2.294c0 1.502-.977 3.009-2.946 4.156a12.01 12.01 0 01-3.136 1.238l.015.004z" fill="#32272D"/><path d="M17.095 31.797c-3.908 2.294-3.93 5.976-.045 8.254 3.885 2.28 10.206 2.294 14.118 0 3.912-2.293 3.931-5.975.046-8.254-3.886-2.278-10.207-2.282-14.119 0z" fill="#665861"/><path d="M24.166 31.694c2.355 0 4.631.547 6.249 1.491 1.34.788 2.11 1.782 2.11 2.722s-.789 1.958-2.152 2.753c-1.629.948-3.916 1.495-6.271 1.495-2.356 0-4.636-.547-6.25-1.495-1.344-.765-2.109-1.778-2.109-2.718s.784-1.958 2.151-2.753c1.629-.948 3.916-1.495 6.272-1.495zm0-.803c-2.492 0-4.923.585-6.67 1.602-1.62.944-2.548 2.198-2.548 3.44 0 1.243.909 2.486 2.503 3.419 1.735 1.017 4.166 1.602 6.65 1.602 2.485 0 4.924-.585 6.67-1.602 1.617-.944 2.544-2.198 2.548-3.441.004-1.243-.912-2.481-2.503-3.414-1.735-1.017-4.166-1.602-6.65-1.602v-.004z" fill="#FFC040"/><path d="M45.544 29.415l-8.38-4.882c-1.894-1.1-1.894-2.902 0-4.003 1.893-1.1 4.976-1.1 6.865 0l8.378 4.886c1.893 1.098 1.893 2.898 0 4-1.894 1.1-4.977 1.1-6.863 0z" fill="#32272D"/><path d="M51.206 26.67c.693.406.693 1.063 0 1.468a2.769 2.769 0 01-2.522 0c-.693-.405-.693-1.062 0-1.468a2.747 2.747 0 012.522 0zm7.298-15.02a2.904 2.904 0 00-1.136-1.42c-.481-.278-.902-.217-1.137.104a1.125 1.125 0 00-.178.658c.024.458.154.905.38 1.304.227.399.543.738.923.99.72.416 1.303.076 1.303-.765a2.455 2.455 0 00-.155-.872zM51.252.589l.643 1.124c1.41-.818 3.348-.707 5.492.543 2.143 1.25 4.086 3.398 5.491 5.86l.648-.382c-1.572-2.752-3.742-5.153-6.14-6.549C54.99-.21 52.824-.345 51.252.581" fill="#2CA58D"/><path d="M53.18 3.976l.643 1.147c.909-.531 2.166-.459 3.552.348a10.373 10.373 0 013.556 3.793l.644-.383a12.221 12.221 0 00-4.2-4.48c-1.636-.964-3.12-1.052-4.196-.425zm1.938 3.391l.644 1.128c.413-.245.984-.21 1.613.157a4.688 4.688 0 011.617 1.724l.644-.382a6.565 6.565 0 00-2.272-2.413c-.871-.508-1.666-.554-2.246-.214z" fill="#2CA58D"/></g><defs><clipPath id="clip0_13123_10557"><path fill="#fff" d="M0 0h78v71H0z"/></clipPath></defs></svg>