<svg width="80" height="81" viewBox="0 0 80 81" fill="none" xmlns="http://www.w3.org/2000/svg">
<rect y="0.5" width="80" height="80" rx="16" fill="white"/>
<g clip-path="url(#clip0_13617_15968)">
<g clip-path="url(#clip1_13617_15968)">
<path fill-rule="evenodd" clip-rule="evenodd" d="M63.9996 49.7598C63.9951 55.4761 59.2613 60.1078 53.4234 60.1078L47.7203 60.0998L47.7284 63.2623C47.7266 63.6151 47.4972 63.9281 47.1565 64.0429C46.8159 64.1577 46.4384 64.0491 46.2152 63.7722L40.5691 56.6027C40.3494 56.3233 40.3494 55.9341 40.5691 55.6547L46.2396 48.4693C46.4556 48.1921 46.8288 48.0819 47.1653 48.196C47.5018 48.31 47.7255 48.6226 47.7203 48.9712V52.1496L56.8484 52.1417L63.9996 49.7598Z" fill="#EEF8F6"/>
<path fill-rule="evenodd" clip-rule="evenodd" d="M63.9989 49.7598C63.9946 50.543 63.5997 51.2747 62.9412 51.7194C62.5354 52.0019 62.0479 52.1498 61.55 52.1416H56.8477L52.7311 46.3423C52.2207 45.6177 52.4023 44.6258 53.1378 44.1198L57.1487 41.3954C57.8858 40.8951 58.8975 41.0732 59.4104 41.7937L63.1446 47.0433C63.7044 47.8395 63.9998 48.7853 63.9907 49.7518L63.9989 49.7598Z" fill="#D8E7E4"/>
<path fill-rule="evenodd" clip-rule="evenodd" d="M34.6777 19.3054C39.7175 16.4222 46.1899 18.0797 49.1428 23.0097L52.0228 27.8212L54.8052 26.22C55.1165 26.0419 55.5089 26.0768 55.7824 26.3068C56.0559 26.5369 56.1503 26.9115 56.0174 27.2397L52.5598 35.6359C52.4222 35.9618 52.0792 36.1575 51.7218 36.1139L42.5204 34.9668C42.1668 34.9217 41.8818 34.6609 41.8118 34.3185C41.7419 33.9761 41.9026 33.6281 42.2113 33.4532L45.0181 31.8441L40.3971 24.1329L34.6777 19.3054Z" fill="#FFC040"/>
<path fill-rule="evenodd" clip-rule="evenodd" d="M40.3984 24.1329L37.3638 30.5535C36.988 31.3513 36.0235 31.7006 35.2079 31.3342L30.774 29.3268C29.9593 28.9587 29.6026 28.0143 29.9767 27.2157L32.7184 21.4085C33.1325 20.5293 33.8146 19.7974 34.671 19.3134L34.6791 19.3054C35.3718 18.9136 36.2162 18.8779 36.9408 19.2098C37.3913 19.4117 37.7666 19.7457 38.0147 20.1657L40.3984 24.1329Z" fill="#EDB23B"/>
<path fill-rule="evenodd" clip-rule="evenodd" d="M33.8242 53.9659C32.4439 58.2857 27.915 60.8509 23.4025 59.8688C23.1325 59.8065 22.8663 59.7293 22.6052 59.6377C22.3353 59.5454 22.0718 59.4363 21.816 59.3111C17.6737 57.256 15.7497 52.4967 17.3333 48.2223C19.8228 41.0289 27.0798 36.4006 30.1306 34.7277C30.3989 34.5808 30.7269 34.5855 30.9906 34.7401C31.2544 34.8947 31.4135 35.1756 31.4079 35.4766C31.172 43.7454 36.8425 45.2669 33.8242 53.9659Z" fill="#2CA58D"/>
<path fill-rule="evenodd" clip-rule="evenodd" d="M27.2022 46.2468C24.2489 52.8507 23.6795 55.7504 23.4028 59.8689C23.1329 59.8066 22.8667 59.7294 22.6056 59.6378C22.3357 59.5455 22.0721 59.4364 21.8164 59.3112C22.1093 55.3282 22.7683 52.1895 25.7134 45.6016C25.7988 45.4086 25.9595 45.2571 26.1597 45.1808C26.3599 45.1044 26.5829 45.1097 26.7791 45.1953C26.9781 45.2793 27.1346 45.4375 27.2141 45.6349C27.2935 45.8323 27.2892 46.0525 27.2022 46.2468Z" fill="#258F7A"/>
</g>
</g>
<defs>
<clipPath id="clip0_13617_15968">
<rect width="48" height="47" fill="white" transform="translate(16 17)"/>
</clipPath>
<clipPath id="clip1_13617_15968">
<rect width="48" height="47" fill="white" transform="translate(16 17.4891)"/>
</clipPath>
</defs>
</svg>
