<svg width="80" height="81" viewBox="0 0 80 81" fill="none" xmlns="http://www.w3.org/2000/svg">
<rect y="0.5" width="80" height="80" rx="16" fill="white"/>
<path d="M60.3565 37.3391C59.4974 38.356 58.033 38.6107 56.881 37.9436C56.7369 37.8696 56.603 37.7772 56.4826 37.6688L40.3964 24.0553L24.3101 37.6688C24.1865 37.7771 24.0531 37.8736 23.9117 37.9573C22.6738 38.7131 21.0615 38.3765 20.2295 37.1884C19.3975 36.0003 19.6324 34.3702 20.7659 33.4653L25.2854 29.6463L32.154 23.8355L38.6242 18.3543C39.6477 17.4905 41.145 17.4905 42.1685 18.3543L60.0268 33.4653C61.182 34.4469 61.3292 36.1764 60.3565 37.3391Z" fill="#2CA58D"/>
<path d="M56.8814 35.7184V60.9949C56.8784 62.1241 55.9638 63.0387 54.8346 63.0417H25.959C24.8298 63.0387 23.9151 62.1241 23.9121 60.9949V35.7321C24.0535 35.6485 24.1869 35.5519 24.3105 35.4437L40.3968 21.8301L56.483 35.4437C56.6034 35.552 56.7373 35.6444 56.8814 35.7184Z" fill="#EEF8F6"/>
<path d="M32.1538 19.0826V25.6352L25.2852 31.4461V19.0826C25.2852 18.3239 25.9002 17.7089 26.6589 17.7089H30.78C31.5387 17.7089 32.1538 18.3239 32.1538 19.0826Z" fill="#258F7A"/>
<path d="M40.3966 53.4257C42.6726 53.4257 44.5177 51.5806 44.5177 49.3045C44.5177 47.0285 42.6726 45.1833 40.3966 45.1833C38.1205 45.1833 36.2754 47.0285 36.2754 49.3045C36.2754 51.5806 38.1205 53.4257 40.3966 53.4257Z" fill="#FFC040"/>
<path d="M29.4069 47.9307C28.6482 47.9307 28.0332 47.3156 28.0332 46.557V41.0621C28.0332 40.3034 28.6482 39.6884 29.4069 39.6884H34.9018C35.6605 39.6884 36.2755 40.3034 36.2755 41.0621C36.2755 41.8208 35.6605 42.4358 34.9018 42.4358H30.7806V46.557C30.7806 47.3156 30.1656 47.9307 29.4069 47.9307Z" fill="#2CA58D"/>
<path d="M34.9018 58.9204H29.4069C28.6482 58.9204 28.0332 58.3054 28.0332 57.5467V52.0518C28.0332 51.2931 28.6482 50.6781 29.4069 50.6781C30.1656 50.6781 30.7806 51.2931 30.7806 52.0518V56.173H34.9018C35.6605 56.173 36.2755 56.788 36.2755 57.5467C36.2755 58.3054 35.6605 58.9204 34.9018 58.9204Z" fill="#2CA58D"/>
<path d="M51.3862 47.9307C50.6275 47.9307 50.0125 47.3156 50.0125 46.557V42.4358H45.8913C45.1326 42.4358 44.5176 41.8208 44.5176 41.0621C44.5176 40.3034 45.1326 39.6884 45.8913 39.6884H51.3862C52.1449 39.6884 52.7599 40.3034 52.7599 41.0621V46.557C52.7599 47.3156 52.1449 47.9307 51.3862 47.9307Z" fill="#2CA58D"/>
<path d="M51.3862 58.9204H45.8913C45.1326 58.9204 44.5176 58.3054 44.5176 57.5467C44.5176 56.788 45.1326 56.173 45.8913 56.173H50.0125V52.0518C50.0125 51.2931 50.6275 50.6781 51.3862 50.6781C52.1449 50.6781 52.7599 51.2931 52.7599 52.0518V57.5467C52.7599 58.3054 52.1449 58.9204 51.3862 58.9204Z" fill="#2CA58D"/>
</svg>
