<svg width="80" height="80" viewBox="0 0 80 80" fill="none" xmlns="http://www.w3.org/2000/svg">
<rect width="80" height="80" rx="16" fill="white"/>
<g clip-path="url(#clip0_13617_15981)">
<path d="M36.7212 30.7275C40.7881 30.7275 44.0849 27.4306 44.0849 23.3638C44.0849 19.2969 40.7881 16 36.7212 16C32.6543 16 29.3574 19.2969 29.3574 23.3638C29.3574 27.4306 32.6543 30.7275 36.7212 30.7275Z" fill="#2CA58D"/>
<path d="M54.6282 32.977C52.9759 32.977 51.6365 34.3164 51.6365 35.9686V33.5565C51.6365 31.9042 50.2971 30.5648 48.6449 30.5648C46.9926 30.5648 45.6532 31.9042 45.6532 33.5565V32.3482C45.6532 30.6959 44.3138 29.3565 42.6615 29.3565C41.0093 29.3565 39.6698 30.6959 39.6698 32.3482V22.2439C39.6698 20.5916 38.3304 19.2522 36.6782 19.2522C35.0259 19.2522 33.6865 20.5916 33.6865 22.2439V43.6779C33.6865 44.073 33.2013 44.2622 32.9338 43.9713L28.1445 38.7629C27.0267 37.5473 25.1567 37.5081 23.989 38.6759C22.8553 39.8095 22.6683 41.82 23.5733 43.1433L31.2254 54.3316C32.5097 56.2095 34.4621 57.5266 36.6842 58.0144C36.8644 58.0144 37.0106 58.1605 37.0106 58.3408V63.3889C37.0106 63.7264 37.2842 64 37.6217 64H55.0933C55.4308 64 55.7044 63.7264 55.7044 63.3889V58.9695C55.7044 58.6382 55.7665 58.3098 55.8875 58.0015L56.1192 57.4107C57.0743 54.9759 57.5802 52.3894 57.6163 49.7758L57.6198 46.6783V35.9685C57.6199 34.3164 56.2804 32.977 54.6282 32.977Z" fill="#FDD7AD"/>
<path d="M54.6282 32.977C52.9759 32.977 51.6365 34.3164 51.6365 35.9686V33.5565C51.6365 31.9042 50.2971 30.5648 48.6449 30.5648C46.9926 30.5648 45.6532 31.9042 45.6532 33.5565V32.3482C45.6532 30.6959 44.3138 29.3565 42.6615 29.3565C41.0093 29.3565 39.6698 30.6959 39.6698 32.3482V22.2439C39.6698 20.5916 38.3304 19.2522 36.6782 19.2522C35.0259 19.2522 33.6865 20.5916 33.6865 22.2439V43.6779C33.6865 44.073 33.2013 44.2622 32.9338 43.9713L28.1445 38.7629C27.0267 37.5473 25.1567 37.5081 23.989 38.6759C22.8553 39.8095 22.6683 41.82 23.5733 43.1433L31.2254 54.3316C32.5097 56.2095 34.4621 57.5266 36.6842 58.0144C36.8644 58.0144 37.0106 58.1605 37.0106 58.3408V63.3889C37.0106 63.7264 37.2842 64 37.6217 64H55.0933C55.4308 64 55.7044 63.7264 55.7044 63.3889V58.9695C55.7044 58.6382 55.7665 58.3098 55.8875 58.0015L56.1192 57.4107C57.0743 54.9759 57.5802 52.3894 57.6163 49.7758L57.6198 46.6783V35.9685C57.6199 34.3164 56.2804 32.977 54.6282 32.977Z" fill="#FDD7AD"/>
<path d="M33.6875 43.6515C34.8736 43.6515 35.8352 42.69 35.8352 41.5039V22.1015C35.8352 21.2007 36.1695 20.3866 36.7113 19.7963C36.8811 19.6115 37.0714 19.4488 37.278 19.3123C37.0846 19.273 36.8843 19.2523 36.6792 19.2523C35.8535 19.2523 35.1053 19.5876 34.5636 20.1284C34.0218 20.6701 33.6875 21.4173 33.6875 22.244V43.6515Z" fill="#F9C795"/>
<path d="M54.0193 36.2243C54.0193 34.8861 54.8989 33.7516 56.1117 33.3699C55.6743 33.1196 55.1681 32.9769 54.6284 32.9769C52.976 32.9769 51.6367 34.3163 51.6367 35.9676V37.6945C51.6367 37.7599 51.6897 37.8128 51.755 37.8128H52.4306C53.3081 37.8129 54.0193 37.1016 54.0193 36.2243Z" fill="#F9C795"/>
<path d="M49.7662 30.7823C49.4334 30.6471 49.0749 30.5715 48.6953 30.5652C47.0223 30.5372 45.6177 31.8892 45.653 33.6187V38.2373C46.8959 38.2373 47.9035 37.2297 47.9035 35.9868V33.5564C47.9034 32.3022 48.6717 31.227 49.7662 30.7823Z" fill="#F9C795"/>
<path d="M43.6883 29.5374C43.3518 29.4141 42.9893 29.35 42.609 29.3565C40.9665 29.3848 39.6699 30.7273 39.6699 32.4128V38.082C40.8068 38.082 41.7284 37.1604 41.7284 36.0235V32.3477C41.7283 31.0572 42.5432 29.9571 43.6883 29.5374Z" fill="#F9C795"/>
<path d="M26.1054 28.9997C25.8336 28.9997 25.5729 28.8465 25.4485 28.5847C24.6506 26.906 24.2461 25.1064 24.2461 23.2359C24.2461 21.3654 24.6506 19.5658 25.4485 17.8872C25.6208 17.5246 26.0543 17.3703 26.417 17.5428C26.7796 17.7151 26.9338 18.1486 26.7614 18.5113C26.0569 19.9935 25.6998 21.5831 25.6998 23.236C25.6998 24.889 26.057 26.4786 26.7614 27.9608C26.9338 28.3233 26.7796 28.7569 26.417 28.9293C26.3162 28.9769 26.21 28.9997 26.1054 28.9997Z" fill="#2CA58D"/>
<path d="M47.3379 28.9996C47.2333 28.9996 47.1271 28.977 47.0264 28.9291C46.6638 28.7568 46.5096 28.3232 46.6819 27.9606C47.3863 26.4784 47.7435 24.8887 47.7435 23.2359C47.7435 21.5831 47.3863 19.9934 46.6819 18.5112C46.5096 18.1486 46.6637 17.715 47.0264 17.5427C47.3889 17.3704 47.8225 17.5246 47.9948 17.8872C48.7927 19.566 49.1972 21.3656 49.1972 23.236C49.1972 25.1064 48.7927 26.906 47.9948 28.5848C47.8704 28.8464 47.6097 28.9996 47.3379 28.9996Z" fill="#2CA58D"/>
<path d="M38.9618 57.9489C38.9618 57.024 38.4387 56.177 37.609 55.7682C36.1752 55.0619 34.0057 53.8507 33.1762 52.6382L25.3505 41.1968C24.9794 40.6531 24.7991 40.0319 24.7991 39.4156C24.7991 38.9574 24.8986 38.4016 25.0926 37.9829C24.6921 38.1218 24.3145 38.3523 23.991 38.6758C22.8573 39.8095 22.6702 41.8199 23.5753 43.1433L31.2274 54.3316C32.5116 56.2094 34.464 57.5266 36.6861 58.0143C36.8664 58.0143 37.0125 58.1605 37.0125 58.3407V63.3889C37.0125 63.7264 37.2861 64 37.6237 64H38.9618V57.9489Z" fill="#F9C795"/>
</g>
<defs>
<clipPath id="clip0_13617_15981">
<rect width="48" height="48" fill="white" transform="translate(16 16.0005)"/>
</clipPath>
</defs>
</svg>
