<svg width="80" height="80" viewBox="0 0 80 80" fill="none" xmlns="http://www.w3.org/2000/svg">
<rect width="80" height="80" rx="16" fill="white"/>
<g clip-path="url(#clip0_13617_16022)">
<path d="M46.623 56.5421H33.3848V61.5065H46.623V56.5421Z" fill="#258F7A"/>
<path d="M63.9973 50.7506V53.6051C64.1155 55.556 62.6377 57.237 60.6878 57.3697H19.3181C17.3681 57.2369 15.8904 55.556 16.0086 53.6051V50.7506H63.9973Z" fill="#2CA58D"/>
<path d="M63.9973 19.7646V50.7504H16.0086V19.7646C15.8904 17.8136 17.3681 16.1327 19.3181 16H60.6877C62.6377 16.1327 64.1154 17.8136 63.9973 19.7646Z" fill="#EEF8F6"/>
<path d="M31.7275 23.6201V31.4963C31.719 31.6715 31.5719 31.8075 31.3966 31.8024H22.1298C21.9562 31.8113 21.8082 31.6781 21.7988 31.5045V23.6201L26.5067 19.4004C26.6552 19.2762 26.8712 19.2762 27.0197 19.4004L31.7275 23.6201Z" fill="#FFC040"/>
<path d="M26.7633 37.5122V42.4766L22.6263 44.9588L22.5104 45.0332C22.042 44.263 21.7957 43.3781 21.7989 42.4766C21.799 39.7348 24.0215 37.5122 26.7633 37.5122Z" fill="#FFC040"/>
<path d="M31.7281 42.4765C31.732 43.7936 31.2075 45.0575 30.2718 45.9846L26.7637 42.4765V37.5121C29.5054 37.5122 31.7281 39.7348 31.7281 42.4765Z" fill="#258F7A"/>
<path d="M30.2727 45.9846C29.1938 47.0663 27.6763 47.5901 26.1598 47.4042C24.6434 47.2183 23.2973 46.3435 22.5117 45.0332L22.6276 44.9588L26.7645 42.4766L30.2727 45.9846Z" fill="#2CA58D"/>
<path d="M43.3117 20.137H44.9665C45.4234 20.137 45.7939 20.5074 45.7939 20.9644V30.8931H42.4844V20.9643C42.4843 20.5074 42.8548 20.137 43.3117 20.137Z" fill="#FFC040"/>
<path d="M49.7095 24.2739H51.811C52.1446 24.2739 52.415 24.5443 52.415 24.8779V30.8931H49.1055V24.878C49.1055 24.5444 49.3759 24.2739 49.7095 24.2739Z" fill="#FF5364"/>
<path d="M56.2001 26.7562H58.554C58.8177 26.7562 59.0314 26.9699 59.0314 27.2337V30.8932H55.7227V27.2337C55.7227 26.97 55.9364 26.7562 56.2001 26.7562Z" fill="#2CA58D"/>
<path d="M39.1769 44.9588C38.8422 44.9587 38.5406 44.7571 38.4126 44.448C38.2846 44.1389 38.3553 43.7831 38.5919 43.5464L41.559 40.5794C42.5414 39.6419 44.0872 39.6419 45.0695 40.5794L46.0384 41.5491C46.3615 41.8721 46.8852 41.8721 47.2083 41.5491L50.6602 38.0972C51.6424 37.1598 53.1879 37.1598 54.1701 38.0972L55.1398 39.0669C55.4629 39.3899 55.9866 39.3899 56.3097 39.0669L59.2767 36.1007C59.6014 35.7871 60.1175 35.7915 60.4366 36.1108C60.7558 36.4299 60.7603 36.946 60.4467 37.2707L57.4797 40.2377C56.5092 41.204 54.9403 41.204 53.9699 40.2377L53.0002 39.2672C52.6732 38.9535 52.1571 38.9535 51.8302 39.2672L48.3783 42.7191C47.409 43.688 45.8378 43.688 44.8685 42.7191L43.8988 41.7494C43.5719 41.4357 43.0557 41.4357 42.7289 41.7494L39.7618 44.7164C39.6067 44.8715 39.3963 44.9588 39.1769 44.9588Z" fill="#2CA58D"/>
<path d="M29.2459 60.6792H50.758C52.1289 60.6792 53.2402 61.7905 53.2402 63.1614V63.9888H26.7637V63.1614C26.7637 61.7905 27.875 60.6792 29.2459 60.6792Z" fill="#2CA58D"/>
<path d="M21.7981 24.4478C21.3412 24.4478 20.9707 24.0774 20.9707 23.6204V21.3782C20.9707 20.9213 21.3411 20.5508 21.7981 20.5508C22.2552 20.5508 22.6256 20.9212 22.6256 21.3782V23.6205C22.6255 24.0774 22.2551 24.4478 21.7981 24.4478Z" fill="#258F7A"/>
<path d="M33.3843 25.9288C33.1806 25.9288 32.9842 25.8536 32.8324 25.7178L26.7651 20.2868L20.6978 25.7178C20.3568 26.0175 19.838 25.9865 19.5352 25.6482C19.2324 25.3099 19.2586 24.7909 19.5941 24.485L25.9584 18.7876C26.4138 18.3861 27.0952 18.3808 27.5569 18.7752L33.9361 24.4842C34.1923 24.7129 34.2806 25.076 34.1581 25.3967C34.0355 25.7174 33.7276 25.9292 33.3843 25.9288Z" fill="#2CA58D"/>
<path d="M59.8619 31.7204H40.8318C39.4609 31.7204 38.3496 30.6091 38.3496 29.2382V19.3095C38.3496 18.8526 38.72 18.4821 39.177 18.4821C39.6341 18.4821 40.0045 18.8525 40.0045 19.3095V29.2382C40.0045 29.6951 40.3749 30.0656 40.8319 30.0656H59.8619C60.3188 30.0656 60.6893 30.436 60.6893 30.8931C60.6893 31.3501 60.3188 31.7204 59.8619 31.7204Z" fill="#C2D3D0"/>
<path d="M59.8619 48.2682H40.8318C39.4609 48.2682 38.3496 47.1568 38.3496 45.7859V35.8573C38.3496 35.4004 38.72 35.0299 39.177 35.0299C39.6341 35.0299 40.0045 35.4003 40.0045 35.8573V45.786C40.0045 46.243 40.3749 46.6135 40.8319 46.6135H59.8619C60.3188 46.6135 60.6893 46.9839 60.6893 47.4409C60.6893 47.8979 60.3188 48.2682 59.8619 48.2682Z" fill="#C2D3D0"/>
</g>
<defs>
<clipPath id="clip0_13617_16022">
<rect width="48" height="48" fill="white" transform="translate(16 16.0005)"/>
</clipPath>
</defs>
</svg>
