<svg width="80" height="80" viewBox="0 0 80 80" fill="none" xmlns="http://www.w3.org/2000/svg">
<rect width="80" height="80" rx="16" fill="white"/>
<g clip-path="url(#clip0_13617_15994)">
<g clip-path="url(#clip1_13617_15994)">
<path d="M33.7246 59.0331C33.7246 61.7755 35.9477 63.9986 38.6901 63.9986C41.4325 63.9986 43.6556 61.7755 43.6556 59.0331L38.6901 57.3779L33.7246 59.0331Z" fill="#C2D3D0"/>
<path d="M46.1709 47.4469H31.2412C27.7002 44.1435 25.8959 39.3818 26.3585 34.5613C26.4054 33.9615 26.4855 33.3647 26.5985 32.7738C27.3605 29.3105 28.9475 26.0824 31.2247 23.3641C33.3003 20.7567 35.6222 18.3553 38.1582 16.1931C38.4656 15.9356 38.9134 15.9356 39.2208 16.1931C44.1764 20.3608 49.535 26.0786 50.8137 32.7738C50.9267 33.3647 51.0068 33.9615 51.0537 34.5613C51.5162 39.3818 49.7119 44.1435 46.1709 47.4469Z" fill="#2CA58D"/>
<path d="M45.1119 36.8804L39.5174 41.5421V37.0732L46.1712 31.5283C46.5094 31.2325 46.5497 30.7209 46.2621 30.3757C45.9744 30.0305 45.4639 29.9779 45.1119 30.2572L39.5174 34.9215V30.4525L44.185 26.5628C44.5232 26.267 44.5635 25.7553 44.2759 25.4102C43.9882 25.065 43.4777 25.0124 43.1257 25.2917L39.5174 28.3008V23.447C39.5174 22.9899 39.1469 22.6194 38.6898 22.6194C38.2328 22.6194 37.8623 22.9899 37.8623 23.447V28.3008L34.254 25.2941C34.0279 25.0963 33.7124 25.0366 33.4296 25.138C33.1468 25.2395 32.9413 25.4862 32.8925 25.7826C32.8437 26.079 32.9594 26.3786 33.1947 26.5653L37.8623 30.455V34.9239L32.2678 30.2621C31.9158 29.9829 31.4053 30.0355 31.1176 30.3806C30.83 30.7258 30.8703 31.2375 31.2085 31.5333L37.8623 37.0781V41.5471L32.2678 36.8853C31.9158 36.606 31.4053 36.6586 31.1176 37.0038C30.83 37.349 30.8703 37.8606 31.2085 38.1565L37.8623 43.7013V47.447C37.8623 47.904 38.2328 48.2746 38.6898 48.2746C39.1469 48.2746 39.5174 47.904 39.5174 47.447V43.6964L46.1712 38.1515C46.4066 37.9648 46.5222 37.6652 46.4734 37.3688C46.4246 37.0724 46.2191 36.8257 45.9363 36.7242C45.6535 36.6228 45.338 36.6826 45.1119 36.8804Z" fill="#258F7A"/>
<path d="M31.2422 47.4468H46.1387V57.3778C46.1387 58.2919 45.3977 59.033 44.4836 59.033H32.8974C31.9832 59.033 31.2422 58.2919 31.2422 57.3778V47.4468Z" fill="#D8E7E4"/>
<path d="M34.552 55.7228H31.2416C30.7846 55.7228 30.4141 55.3523 30.4141 54.8952C30.4141 54.4381 30.7846 54.0676 31.2416 54.0676H34.552C35.0091 54.0676 35.3796 54.4381 35.3796 54.8952C35.3796 55.3523 35.0091 55.7228 34.552 55.7228Z" fill="#C2D3D0"/>
<path d="M46.1386 55.7228H37.8627C37.4057 55.7228 37.0352 55.3523 37.0352 54.8952C37.0352 54.4381 37.4057 54.0676 37.8627 54.0676H46.1386C46.5957 54.0676 46.9662 54.4381 46.9662 54.8952C46.9662 55.3523 46.5957 55.7228 46.1386 55.7228Z" fill="#C2D3D0"/>
<path d="M46.1379 52.4125H42.8276C42.3705 52.4125 42 52.042 42 51.5849C42 51.1278 42.3705 50.7573 42.8276 50.7573H46.1379C46.595 50.7573 46.9655 51.1278 46.9655 51.5849C46.9655 52.042 46.595 52.4125 46.1379 52.4125Z" fill="#C2D3D0"/>
<path d="M39.5175 52.4125H31.2416C30.7846 52.4125 30.4141 52.042 30.4141 51.5849C30.4141 51.1278 30.7846 50.7573 31.2416 50.7573H39.5175C39.9746 50.7573 40.3451 51.1278 40.3451 51.5849C40.3451 52.042 39.9746 52.4125 39.5175 52.4125Z" fill="#C2D3D0"/>
<path d="M22.1379 35.8607H18.8276C18.3705 35.8607 18 35.4902 18 35.0332C18 34.5761 18.3705 34.2056 18.8276 34.2056H22.1379C22.595 34.2056 22.9655 34.5761 22.9655 35.0332C22.9655 35.4902 22.595 35.8607 22.1379 35.8607Z" fill="#FFC040"/>
<path d="M58.552 35.8607H55.2416C54.7846 35.8607 54.4141 35.4902 54.4141 35.0332C54.4141 34.5761 54.7846 34.2056 55.2416 34.2056H58.552C59.0091 34.2056 59.3796 34.5761 59.3796 35.0332C59.3796 35.4902 59.0091 35.8607 58.552 35.8607Z" fill="#FFC040"/>
<path d="M21.4897 45.7916C21.1152 45.7916 20.7873 45.54 20.6904 45.1782C20.5934 44.8164 20.7516 44.4346 21.0759 44.2473L23.9435 42.5922C24.1997 42.442 24.5168 42.4406 24.7743 42.5885C25.0318 42.7364 25.1903 43.0109 25.1897 43.3079C25.189 43.6049 25.0293 43.8788 24.7711 44.0255L21.9035 45.6807C21.7778 45.7536 21.635 45.7919 21.4897 45.7916Z" fill="#FFC040"/>
<path d="M53.0249 27.5848C52.6503 27.5848 52.3225 27.3332 52.2255 26.9714C52.1286 26.6096 52.2867 26.2278 52.6111 26.0405L55.4787 24.3854C55.7349 24.2352 56.0519 24.2338 56.3094 24.3817C56.5669 24.5296 56.7255 24.8042 56.7248 25.1011C56.7242 25.3981 56.5644 25.672 56.3063 25.8187L53.4387 27.4739C53.313 27.5469 53.1702 27.5851 53.0249 27.5848Z" fill="#FFC040"/>
<path d="M55.8894 45.7916C55.7441 45.7919 55.6013 45.7536 55.4756 45.6807L52.608 44.0255C52.3498 43.8788 52.1901 43.6049 52.1895 43.3079C52.1888 43.0109 52.3473 42.7364 52.6048 42.5885C52.8624 42.4406 53.1794 42.442 53.4356 42.5922L56.3032 44.2473C56.6275 44.4346 56.7857 44.8164 56.6887 45.1782C56.5918 45.54 56.2639 45.7916 55.8894 45.7916Z" fill="#FFC040"/>
<path d="M24.3546 27.5848C24.2093 27.5851 24.0665 27.5469 23.9408 27.4739L21.0732 25.8188C20.6808 25.5887 20.5476 25.085 20.7751 24.691C21.0025 24.2971 21.5054 24.1605 21.9008 24.3854L24.7684 26.0406C25.0928 26.2279 25.2509 26.6097 25.154 26.9714C25.057 27.3332 24.7292 27.5848 24.3546 27.5848Z" fill="#FFC040"/>
</g>
</g>
<defs>
<clipPath id="clip0_13617_15994">
<rect width="48" height="48" fill="white" transform="translate(16 16.0005)"/>
</clipPath>
<clipPath id="clip1_13617_15994">
<rect width="48" height="48" fill="white" transform="translate(15 16)"/>
</clipPath>
</defs>
</svg>
