<svg width="80" height="80" viewBox="0 0 80 80" fill="none" xmlns="http://www.w3.org/2000/svg">
<g clip-path="url(#clip0_13627_19733)">
<path d="M37.4375 52.0387C37.4375 50.7502 37.8349 49.5535 38.5117 48.562C37.498 47.9495 36.8334 46.9083 36.7033 45.7192C36.0395 46.0707 35.3382 46.3693 34.5947 46.5921L34.375 46.6587L34.1545 46.5928C33.4111 46.37 32.7098 46.0714 32.046 45.72C31.8913 47.1311 30.9856 48.3392 29.6373 48.8637L23.6662 51.1858C20.4046 52.4537 18.2969 55.5353 18.2969 59.035V62.7031H22.8906V55.0468H24.4219V62.7031H45.5424L39.2474 56.4081C38.0806 55.2413 37.4375 53.6894 37.4375 52.0387V52.0387Z" fill="#F9C795"/>
<path d="M38.798 33.7258L32.4671 36.1L31.412 33.9907C31.0591 33.2832 30.3486 32.8438 29.5577 32.8438C28.4146 32.8438 27.4844 33.774 27.4844 34.9171V35.5694C27.4844 39.9327 30.2437 43.7172 34.375 45.0578C38.5063 43.7172 41.2656 39.9327 41.2656 35.5694V35.4369C41.2656 34.4286 40.4464 33.6094 39.4388 33.6094C39.2191 33.6094 39.0032 33.6484 38.798 33.7258V33.7258Z" fill="#FDD7AD"/>
<path d="M25.9531 35.5694V34.9171C25.9531 32.9295 27.5701 31.3125 29.5577 31.3125C30.932 31.3125 32.1677 32.0758 32.7817 33.3054L33.2197 34.1821L38.2598 32.2925C38.638 32.1501 39.0346 32.0781 39.4388 32.0781C41.2901 32.0781 42.7969 33.5849 42.7969 35.4362V35.5686C42.7969 36.9904 42.535 38.3555 42.0626 39.6226C43.4913 37.9773 44.3281 35.8473 44.3281 33.6094V33.2916C44.3281 28.4008 40.3492 24.4219 35.4584 24.4219C33.4517 24.4219 31.484 25.1117 29.9175 26.3658L28.5731 27.4415L28.3763 27.4744C26.0848 27.8557 24.4219 29.8188 24.4219 32.1417V33.6094C24.4219 35.8473 25.2587 37.9773 26.6874 39.6226C26.2157 38.3563 25.9531 36.9911 25.9531 35.5694V35.5694Z" fill="#258F7A"/>
<path d="M59.6406 21.3594H38.2031V23.2704C41.7327 24.2389 44.5119 27.0173 45.4796 30.5469H48.3239L50.212 22.994L54.2032 30.9764L55.2942 28.25H59.6406V21.3594Z" fill="#2CA58D"/>
<path d="M52.6956 47.3906C51.4538 47.3906 50.287 47.8737 49.4088 48.7519L48.1562 50.0045L46.9037 48.7519C46.0255 47.8737 44.8587 47.3906 43.6169 47.3906C41.0543 47.3906 38.9688 49.4762 38.9688 52.0387C38.9688 53.2806 39.4519 54.4474 40.33 55.3256L47.3906 62.3862C47.7933 62.7889 48.5192 62.7889 48.9219 62.3862L55.9825 55.3256C56.8606 54.4474 57.3438 53.2806 57.3438 52.0387C57.3438 49.4762 55.2582 47.3906 52.6956 47.3906ZM48.1562 61.1719C47.7336 61.1719 47.3906 60.8289 47.3906 60.4062C47.3906 59.9836 47.7336 59.6406 48.1562 59.6406C48.5789 59.6406 48.9219 59.9836 48.9219 60.4062C48.9219 60.8289 48.5789 61.1719 48.1562 61.1719ZM48.9219 58.1094H47.3906V51.2188H48.9219V58.1094ZM51.257 57.885L50.1744 56.8025L51.4431 55.5338L52.5257 56.6164L51.257 57.885ZM54.8991 54.243L53.5539 55.5882L52.4713 54.5056L53.8165 53.1604C54.112 52.8648 54.2812 52.456 54.2812 52.0387C54.2812 51.1843 53.5861 50.473 52.7324 50.4531L52.7676 48.9226C54.4466 48.9609 55.8125 50.359 55.8125 52.0387C55.8125 52.8595 55.4795 53.6626 54.8991 54.243V54.243Z" fill="#2CA58D"/>
<path d="M60.4062 18.2969H37.4375C36.1712 18.2969 35.1406 19.3274 35.1406 20.5938V22.9044C35.2463 22.9006 35.3519 22.8906 35.4584 22.8906C35.8695 22.8906 36.273 22.9212 36.6719 22.968V21.3594C36.6719 20.5149 37.3586 19.8281 38.2031 19.8281H59.6406C60.4851 19.8281 61.1719 20.5149 61.1719 21.3594V36.6719C61.1719 37.5164 60.4851 38.2031 59.6406 38.2031H44.8051C44.5494 38.7375 44.25 39.249 43.9109 39.7344H60.4062C61.6726 39.7344 62.7031 38.7038 62.7031 37.4375V20.5938C62.7031 19.3274 61.6726 18.2969 60.4062 18.2969V18.2969Z" fill="#2CA58D"/>
<path d="M45.4023 36.6718H59.6399V29.7812H56.3301L54.3579 34.7111L50.6928 27.381L49.5191 32.0781H45.7821C45.828 32.477 45.8587 32.8805 45.8587 33.2916V33.6093C45.8587 34.6598 45.6986 35.6903 45.4023 36.6718Z" fill="#2CA58D"/>
</g>
<defs>
<clipPath id="clip0_13627_19733">
<rect width="48" height="48" fill="white" transform="translate(16 16.0005)"/>
</clipPath>
</defs>
</svg>
