<svg width="80" height="80" viewBox="0 0 80 80" fill="none" xmlns="http://www.w3.org/2000/svg">
<rect width="80" height="80" rx="16" fill="white"/>
<g clip-path="url(#clip0_13102_6754)">
<path d="M47.7452 16.4149C47.74 16.5798 47.6425 16.7277 47.493 16.7973C46.1165 17.6998 45.2875 19.2353 45.2882 20.8814C45.2882 45.1864 45.4818 35.9778 44.3201 61.2014C43.1464 62.7869 41.1327 63.5087 39.219 63.0296C37.3053 62.5506 35.8691 60.9652 35.5808 59.0137C35.5256 58.6109 35.1836 58.3094 34.777 58.3051H25.8279V20.8814C25.8279 18.1855 28.0133 16 30.7092 16H47.3303C47.559 16.0009 47.7443 16.1861 47.7452 16.4149Z" fill="#EEF8F6"/>
<path d="M40.4069 63.1864H20.9466C18.6127 63.184 16.6061 61.5321 16.1555 59.2422C16.1167 59.0068 16.1842 58.7663 16.3398 58.5854C16.4954 58.4045 16.7232 58.3018 16.9617 58.305H34.7787C35.1863 58.3065 35.5299 58.6094 35.5825 59.0136C35.9338 61.4082 37.9867 63.1838 40.4069 63.1864Z" fill="#D8E7E4"/>
<path d="M33.1498 27.3899H18.5058C17.6071 27.3899 16.8787 28.1184 16.8787 29.017V53.4238C16.8787 54.3224 17.6071 55.0509 18.5058 55.0509H33.1498C34.0485 55.0509 34.777 54.3224 34.777 53.4238V29.017C34.777 28.1184 34.0485 27.3899 33.1498 27.3899Z" fill="#258F7A"/>
<path d="M30.7744 27.3899H20.8815C19.9829 27.3899 19.2544 28.1184 19.2544 29.017V53.4238C19.2544 54.3224 19.9829 55.0509 20.8815 55.0509H30.7744C31.673 55.0509 32.4015 54.3224 32.4015 53.4238V29.017C32.4015 28.1184 31.673 27.3899 30.7744 27.3899Z" fill="#2CA58D"/>
<path d="M30.7093 30.644H20.9466C20.4973 30.644 20.1331 31.0083 20.1331 31.4576V33.0847C20.1331 33.534 20.4973 33.8983 20.9466 33.8983H30.7093C31.1586 33.8983 31.5229 33.534 31.5229 33.0847V31.4576C31.5229 31.0083 31.1586 30.644 30.7093 30.644Z" fill="#258F7A"/>
<path d="M22.5737 40.4068C23.4723 40.4068 24.2008 39.6783 24.2008 38.7797C24.2008 37.8811 23.4723 37.1526 22.5737 37.1526C21.675 37.1526 20.9465 37.8811 20.9465 38.7797C20.9465 39.6783 21.675 40.4068 22.5737 40.4068Z" fill="#FFC040"/>
<path d="M22.5737 46.1016C23.4723 46.1016 24.2008 45.3732 24.2008 44.4745C24.2008 43.5759 23.4723 42.8474 22.5737 42.8474C21.675 42.8474 20.9465 43.5759 20.9465 44.4745C20.9465 45.3732 21.675 46.1016 22.5737 46.1016Z" fill="#FFC040"/>
<path d="M22.5737 51.7967C23.4723 51.7967 24.2008 51.0682 24.2008 50.1696C24.2008 49.271 23.4723 48.5425 22.5737 48.5425C21.675 48.5425 20.9465 49.271 20.9465 50.1696C20.9465 51.0682 21.675 51.7967 22.5737 51.7967Z" fill="#FFC040"/>
<path d="M29.0822 40.4068C29.9808 40.4068 30.7093 39.6783 30.7093 38.7797C30.7093 37.8811 29.9808 37.1526 29.0822 37.1526C28.1836 37.1526 27.4551 37.8811 27.4551 38.7797C27.4551 39.6783 28.1836 40.4068 29.0822 40.4068Z" fill="#FFC040"/>
<path d="M29.0822 46.1016C29.9808 46.1016 30.7093 45.3732 30.7093 44.4745C30.7093 43.5759 29.9808 42.8474 29.0822 42.8474C28.1836 42.8474 27.4551 43.5759 27.4551 44.4745C27.4551 45.3732 28.1836 46.1016 29.0822 46.1016Z" fill="#FFC040"/>
<path d="M29.0822 51.7967C29.9808 51.7967 30.7093 51.0682 30.7093 50.1696C30.7093 49.271 29.9808 48.5425 29.0822 48.5425C28.1836 48.5425 27.4551 49.271 27.4551 50.1696C27.4551 51.0682 28.1836 51.7967 29.0822 51.7967Z" fill="#FFC040"/>
<path d="M57.0036 27.341L44.3771 21.7185H36.3392C36.0172 21.7265 35.7289 21.9198 35.5993 22.2145C35.4697 22.5093 35.5221 22.8524 35.7339 23.095L41.0578 29.1227L53.6842 34.7688L57.0036 27.341Z" fill="#FFC040"/>
<path d="M62.861 31.2624C62.4699 30.2557 61.6984 29.4433 60.7132 29.0007L57.0034 27.3411L53.6841 34.7689L57.3939 36.4285C58.8964 37.0958 60.6528 36.7951 61.8477 35.666C63.0427 34.5368 63.4423 32.8003 62.861 31.2624Z" fill="#F3D55B"/>
<path d="M41.0679 29.1333L42.7292 25.4157L55.3572 31.0589L53.6959 34.7765L41.0679 29.1333Z" fill="#EBB13B"/>
<path d="M53.6846 34.7676L57.0039 27.3398L59.9728 28.6665L56.6535 36.0943L53.6846 34.7676Z" fill="#0A2342"/>
<path d="M40.7975 21.7185L38.6904 26.4372L35.7364 23.095C35.5249 22.8528 35.4723 22.5102 35.6013 22.2156C35.7303 21.921 36.0177 21.7274 36.3392 21.7185H40.7975Z" fill="#0A2342"/>
<path d="M44.377 21.7185L41.0576 29.1227L38.6902 26.438L40.7973 21.7185H44.377Z" fill="#F9EAB0"/>
<path d="M62.7715 34.3784C62.3306 35.3637 61.5162 36.1334 60.5076 36.5179C59.4989 36.9025 58.3788 36.8703 57.3939 36.4286L56.6536 36.095L59.9729 28.6672L60.7132 29.0008C61.7 29.4402 62.4715 30.254 62.8576 31.2628C63.2437 32.2715 63.2127 33.3925 62.7715 34.3784Z" fill="#FFC040"/>
<path d="M50.9832 63.1863C57.7229 63.1863 63.1866 57.7227 63.1866 50.9829C63.1866 44.2432 57.7229 38.7795 50.9832 38.7795C44.2434 38.7795 38.7798 44.2432 38.7798 50.9829C38.7798 57.7227 44.2434 63.1863 50.9832 63.1863Z" fill="#FFC040"/>
<path d="M50.9832 58.3052C46.359 58.3052 45.0369 53.4238 46.9154 53.4238C47.3647 53.4238 47.729 53.7881 47.729 54.2374C47.729 55.583 49.1885 56.6781 50.9832 56.6781C52.7779 56.6781 54.2375 55.583 54.2375 54.2374C54.2375 52.8918 52.7779 51.7967 50.9832 51.7967C48.2912 51.7967 46.1019 49.9719 46.1019 47.7289C46.1019 45.4859 48.2912 43.6611 50.9832 43.6611C55.6075 43.6611 56.9295 48.5425 55.051 48.5425C54.6017 48.5425 54.2375 48.1782 54.2375 47.7289C54.2375 46.3833 52.7779 45.2883 50.9832 45.2883C49.1885 45.2883 47.729 46.3833 47.729 47.7289C47.729 49.0746 49.1885 50.1696 50.9832 50.1696C53.6753 50.1696 55.8646 51.9944 55.8646 54.2374C55.8646 56.4804 53.6753 58.3052 50.9832 58.3052Z" fill="#EEF8F6"/>
<path d="M50.9832 59.9322C50.5339 59.9322 50.1697 59.568 50.1697 59.1187V42.8475C50.1697 42.3982 50.5339 42.0339 50.9832 42.0339C51.4326 42.0339 51.7968 42.3982 51.7968 42.8475V59.1187C51.7968 59.568 51.4326 59.9322 50.9832 59.9322Z" fill="#EEF8F6"/>
<path d="M50.9833 64C43.7942 64 37.9663 58.1721 37.9663 50.983C37.9663 43.794 43.7942 37.9661 50.9833 37.9661C58.1723 37.9661 64.0002 43.794 64.0002 50.983C63.9917 58.1685 58.1688 63.9914 50.9833 64ZM50.9833 39.5932C44.6928 39.5932 39.5934 44.6926 39.5934 50.983C39.5934 57.2734 44.6928 62.3728 50.9833 62.3728C57.2737 62.3728 62.3731 57.2734 62.3731 50.983C62.3664 44.6954 57.2709 39.5999 50.9833 39.5932Z" fill="#EBB13B"/>
<path d="M42.8655 55.6107C42.5478 55.6104 42.2593 55.4251 42.1268 55.1363C40.7797 52.2004 40.9407 48.7934 42.5588 45.9976C42.7848 45.6092 43.2829 45.4775 43.6713 45.7035C44.0598 45.9295 44.1914 46.4276 43.9654 46.8161C42.6144 49.1542 42.4797 52.0019 43.6042 54.457C43.7201 54.7089 43.6998 55.0024 43.5503 55.2358C43.4008 55.4693 43.1427 55.6105 42.8655 55.6107Z" fill="#EEF8F6"/>
<path d="M59.1009 55.6105C58.8237 55.6104 58.5657 55.4691 58.4162 55.2357C58.2667 55.0022 58.2464 54.7087 58.3622 54.4569C59.4867 52.0018 59.3521 49.154 58.001 46.8159C57.8548 46.5647 57.8538 46.2545 57.9983 46.0022C58.1428 45.75 58.4109 45.594 58.7016 45.593C58.9923 45.592 59.2615 45.7462 59.4077 45.9975C61.0257 48.7933 61.1868 52.2003 59.8397 55.1362C59.7072 55.425 59.4187 55.6102 59.1009 55.6105Z" fill="#EEF8F6"/>
</g>
<defs>
<clipPath id="clip0_13102_6754">
<rect width="48" height="48" fill="white" transform="translate(16 16)"/>
</clipPath>
</defs>
</svg>
