<svg width="80" height="80" viewBox="0 0 80 80" fill="none" xmlns="http://www.w3.org/2000/svg">
<rect y="-0.000488281" width="80" height="80" rx="16" fill="white"/>
<g clip-path="url(#clip0_13102_6737)">
<path d="M35.5254 62.7878C35.5245 63.0026 35.4383 63.2082 35.2857 63.3593C35.1331 63.5103 34.9266 63.5945 34.7118 63.5932H27.3898C26.9405 63.5932 26.5763 63.229 26.5763 62.7797V61.2746C26.5793 60.7983 26.3707 60.3453 26.0068 60.038C24.4773 58.7363 22.2807 56.857 20.0352 54.9288C18.7254 53.8061 17.7979 53.1471 17.0413 51.8048C16.4252 50.7099 16.1055 49.4732 16.1139 48.217C16.0488 42.5302 16.0732 45.402 16 36.8678C15.9733 36.0669 16.5084 35.3556 17.2854 35.1593C17.7369 35.0638 18.2078 35.1629 18.5825 35.4323C18.9572 35.7017 19.201 36.1165 19.2542 36.5749C19.7342 40.9763 19.8888 42.3919 20.0352 43.7505C20.1085 44.4339 20.1735 45.0929 20.2874 46.118V46.1424C20.9098 45.404 21.9856 45.2468 22.7932 45.7763C30.0013 50.56 32.6373 52.3092 32.7756 52.4068C34.0865 53.4628 34.9849 54.9457 35.3139 56.5966C35.5256 58.6531 35.5963 60.7217 35.5254 62.7878Z" fill="#FDD7AD"/>
<path d="M29.2935 55.0427C29.0192 55.3958 28.5129 55.4645 28.1545 55.1973L19.6284 48.7457C18.4408 47.8417 18.2047 46.1491 19.0996 44.9546C19.1077 44.9464 19.6935 44.1817 20.0352 43.7505C20.1084 44.4339 20.1735 45.0929 20.2874 46.1179C20.0669 46.5837 20.2026 47.1402 20.6128 47.4522L29.1307 53.9037C29.4902 54.1733 29.563 54.6832 29.2935 55.0427Z" fill="#F9C795"/>
<path d="M63.1946 36.8678C63.1213 45.4021 63.1457 42.5302 63.0807 48.217C63.089 49.4733 62.7693 50.71 62.1532 51.8048C61.3966 53.1472 60.4691 53.8062 59.1593 54.9289C56.9139 56.857 54.7173 58.7363 53.1878 60.038C52.8239 60.3453 52.6152 60.7984 52.6183 61.2746V62.7797C52.6183 63.229 52.254 63.5933 51.8047 63.5933H44.4746C44.0284 63.5933 43.6655 63.234 43.661 62.7878C43.5921 60.7215 43.6655 58.6529 43.8807 56.5967C44.2063 54.9445 45.1053 53.4605 46.419 52.4068C46.5573 52.3092 49.1932 50.5601 56.4013 45.7763C57.2091 45.2476 58.2844 45.4047 58.9071 46.1424C58.9966 45.3207 59.0617 44.7268 59.1186 44.1736C59.2732 42.6523 59.4115 41.4401 59.9403 36.575C59.9899 36.1165 60.2317 35.7006 60.6055 35.4307C60.9794 35.1608 61.4502 35.0622 61.901 35.1594C62.6801 35.3541 63.2185 36.0651 63.1946 36.8678Z" fill="#FDD7AD"/>
<path d="M60.2087 45.158C59.8945 44.7792 59.5273 44.4476 59.1185 44.1736C59.0616 44.7268 58.9965 45.3207 58.907 46.1424C59.0704 46.3677 59.1373 46.6488 59.0931 46.9236C59.0488 47.1984 58.8969 47.4442 58.6711 47.6068L50.1368 54.0583C49.8909 54.2288 49.7585 54.5206 49.792 54.8179C49.8255 55.1153 50.0195 55.3703 50.2972 55.4818C50.5749 55.5933 50.8913 55.5434 51.1212 55.3519L59.6555 48.9004C60.8257 48.0102 61.0713 46.3486 60.2087 45.158Z" fill="#F9C795"/>
<path d="M39.5932 48.9491C48.5795 48.9491 55.8644 41.6643 55.8644 32.6779C55.8644 23.6916 48.5795 16.4067 39.5932 16.4067C30.6069 16.4067 23.322 23.6916 23.322 32.6779C23.322 41.6643 30.6069 48.9491 39.5932 48.9491Z" fill="#EEF8F6"/>
<path d="M49.3559 30.2372H43.661C42.7624 30.2372 42.0339 29.5088 42.0339 28.6101V22.9152C42.0339 22.0166 41.3054 21.2881 40.4068 21.2881H38.7796C37.881 21.2881 37.1525 22.0166 37.1525 22.9152V28.6101C37.1525 29.5088 36.424 30.2372 35.5254 30.2372H29.8305C28.9319 30.2372 28.2034 30.9657 28.2034 31.8644V33.4915C28.2034 34.3901 28.9319 35.1186 29.8305 35.1186H35.5254C36.424 35.1186 37.1525 35.8471 37.1525 36.7457V42.4406C37.1525 43.3393 37.881 44.0677 38.7796 44.0677H40.4068C41.3054 44.0677 42.0339 43.3393 42.0339 42.4406V36.7457C42.0339 35.8471 42.7624 35.1186 43.661 35.1186H49.3559C50.2545 35.1186 50.983 34.3901 50.983 33.4915V31.8644C50.983 30.9657 50.2545 30.2372 49.3559 30.2372Z" fill="#2CA58D"/>
</g>
<defs>
<clipPath id="clip0_13102_6737">
<rect width="48" height="48" fill="white" transform="translate(16 16)"/>
</clipPath>
</defs>
</svg>
