<svg width="80" height="80" viewBox="0 0 80 80" fill="none" xmlns="http://www.w3.org/2000/svg">
<rect width="80" height="80" rx="16" fill="white"/>
<g clip-path="url(#clip0_13102_6771)">
<path d="M18.4829 54.7124H61.5171V61.517H18.4829V54.7124Z" fill="#258F7A"/>
<path d="M61.5171 29.2415V55.724H18.4829V29.2415C18.4825 28.3633 18.8312 27.5214 19.4519 26.9003C20.073 26.2795 20.9149 25.9309 21.7931 25.9309H58.2069C59.0851 25.9309 59.927 26.2795 60.5481 26.9003C61.1688 27.5214 61.5175 28.3633 61.5171 29.2415Z" fill="#EEF8F6"/>
<path d="M61.5171 42.127V55.724H18.4829V48.2841C27.5034 43.4263 43.1033 37.6826 61.5171 42.127Z" fill="#D8E7E4"/>
<path d="M64 59.0347V61.5172C64 62.8887 62.8885 64.0001 61.5171 64.0001H18.4829C17.1115 64.0001 16 62.8887 16 61.5172V59.0347H33.3793C33.8363 59.0347 34.2069 59.4053 34.2069 59.8623C34.2069 60.3193 34.5775 60.6899 35.0345 60.6899H44.9655C45.4225 60.6899 45.7931 60.3193 45.7931 59.8623C45.7931 59.4053 46.1637 59.0347 46.6207 59.0347H64Z" fill="#2CA58D"/>
<path d="M25.9309 46.6207C25.4739 46.6207 25.1033 46.2501 25.1033 45.7931V43.3102C25.1033 43.0498 25.226 42.8044 25.4343 42.6484L28.4138 40.4138V38.3447C28.4138 37.8877 28.7844 37.5171 29.2415 37.5171C29.6985 37.5171 30.0691 37.8877 30.0691 38.3447V40.8276C30.0691 41.088 29.9464 41.3334 29.738 41.4897L26.7585 43.724V45.7931C26.7585 46.2501 26.3879 46.6207 25.9309 46.6207Z" fill="#C2D3D0"/>
<path d="M25.9309 53.2413C25.4739 53.2413 25.1033 52.8707 25.1033 52.4137V49.1031C25.1033 48.6461 25.4739 48.2759 25.9309 48.2759C26.3879 48.2759 26.7585 48.6461 26.7585 49.1031V52.4137C26.7585 52.8707 26.3879 53.2413 25.9309 53.2413Z" fill="#C2D3D0"/>
<path d="M31.724 53.2413C31.267 53.2413 30.8967 52.8707 30.8967 52.4137V46.6206C30.8967 46.1636 31.267 45.793 31.724 45.793C32.181 45.793 32.5516 46.1636 32.5516 46.6206V52.4137C32.5516 52.8707 32.181 53.2413 31.724 53.2413Z" fill="#C2D3D0"/>
<path d="M31.724 44.1378C31.267 44.1378 30.8967 43.7676 30.8967 43.3102V41.6553C30.8967 41.4355 30.9839 41.2253 31.1392 41.0701L32.5516 39.6572V38.3447C32.5516 37.8877 32.9222 37.5171 33.3793 37.5171C33.8363 37.5171 34.2069 37.8877 34.2069 38.3447V40C34.2069 40.2194 34.1198 40.4299 33.9645 40.5852L32.5516 41.998V43.3102C32.5516 43.7676 32.181 44.1378 31.724 44.1378Z" fill="#C2D3D0"/>
<path d="M36.6899 49.9309C36.2325 49.9309 35.8623 49.5607 35.8623 49.1033V38.3447C35.8623 37.8877 36.2325 37.5171 36.6899 37.5171C37.147 37.5171 37.5172 37.8877 37.5172 38.3447V49.1033C37.5172 49.5607 37.147 49.9309 36.6899 49.9309Z" fill="#C2D3D0"/>
<path d="M54.8967 46.6207C54.4393 46.6207 54.0691 46.2501 54.0691 45.7931V43.724L51.0896 41.4897C50.8812 41.3334 50.7585 41.088 50.7585 40.8276V38.3447C50.7585 37.8877 51.1292 37.5171 51.5862 37.5171C52.0432 37.5171 52.4138 37.8877 52.4138 38.3447V40.4138L55.3929 42.6484C55.6017 42.8044 55.7244 43.0498 55.724 43.3102V45.7931C55.724 46.0125 55.6368 46.223 55.4816 46.3783C55.3267 46.5336 55.1161 46.6207 54.8967 46.6207Z" fill="#C2D3D0"/>
<path d="M54.8967 53.2413C54.4393 53.2413 54.0691 52.8707 54.0691 52.4137V49.1031C54.0691 48.6461 54.4393 48.2759 54.8967 48.2759C55.3538 48.2759 55.724 48.6461 55.724 49.1031V52.4137C55.724 52.8707 55.3538 53.2413 54.8967 53.2413Z" fill="#C2D3D0"/>
<path d="M49.1031 53.2413C48.6461 53.2413 48.2759 52.8707 48.2759 52.4137V46.6206C48.2759 46.1636 48.6461 45.793 49.1031 45.793C49.5605 45.793 49.9308 46.1636 49.9308 46.6206V52.4137C49.9308 52.8707 49.5605 53.2413 49.1031 53.2413Z" fill="#C2D3D0"/>
<path d="M49.1031 44.1378C48.6461 44.1378 48.2759 43.7676 48.2759 43.3102V41.998L46.863 40.5852C46.7078 40.4299 46.6206 40.2194 46.6206 40V38.3447C46.6206 37.8877 46.9912 37.5171 47.4482 37.5171C47.9053 37.5171 48.2759 37.8877 48.2759 38.3447V39.6572L49.6884 41.0701C49.8436 41.2253 49.9308 41.4355 49.9308 41.6553V43.3102C49.9308 43.7676 49.5605 44.1378 49.1031 44.1378Z" fill="#C2D3D0"/>
<path d="M44.1377 49.9309C43.6807 49.9309 43.3101 49.5607 43.3101 49.1033V38.3447C43.3101 37.8877 43.6807 37.5171 44.1377 37.5171C44.5947 37.5171 44.9653 37.8877 44.9653 38.3447V49.1033C44.9653 49.5607 44.5947 49.9309 44.1377 49.9309Z" fill="#C2D3D0"/>
<path d="M54.0691 37.5171V22.6207L47.4484 16H27.5862C26.6732 16.0026 25.9338 16.7423 25.9309 17.6553V37.5171C25.9309 37.9745 26.3015 38.3447 26.7585 38.3447H53.2415C53.6985 38.3447 54.0691 37.9745 54.0691 37.5171Z" fill="#FFC040"/>
<path d="M34.2069 22.6206C34.2069 23.9917 33.0955 25.1031 31.724 25.1031C30.3529 25.1031 29.2415 23.9917 29.2415 22.6206C29.2415 21.2495 30.3529 20.1377 31.724 20.1377C33.0955 20.1377 34.2069 21.2495 34.2069 22.6206Z" fill="#EEF8F6"/>
<path d="M38.3448 23.4482H36.6899C36.2325 23.4482 35.8623 23.0776 35.8623 22.6206C35.8623 22.1636 36.2325 21.793 36.6899 21.793H38.3448C38.8019 21.793 39.1725 22.1636 39.1725 22.6206C39.1725 23.0776 38.8019 23.4482 38.3448 23.4482Z" fill="#EEF8F6"/>
<path d="M44.1378 23.4482H41.6553C41.1982 23.4482 40.8276 23.0776 40.8276 22.6206C40.8276 22.1636 41.1982 21.793 41.6553 21.793H44.1378C44.5948 21.793 44.9655 22.1636 44.9655 22.6206C44.9655 23.0776 44.5948 23.4482 44.1378 23.4482Z" fill="#EEF8F6"/>
<path d="M41.6554 26.7585H36.6899C36.2325 26.7585 35.8623 26.3879 35.8623 25.9309C35.8623 25.4739 36.2325 25.1033 36.6899 25.1033H41.6554C42.1124 25.1033 42.483 25.4739 42.483 25.9309C42.483 26.3879 42.1124 26.7585 41.6554 26.7585Z" fill="#EEF8F6"/>
<path d="M47.4482 26.7585H44.9653C44.5083 26.7585 44.1377 26.3879 44.1377 25.9309C44.1377 25.4739 44.5083 25.1033 44.9653 25.1033H47.4482C47.9053 25.1033 48.2759 25.4739 48.2759 25.9309C48.2759 26.3879 47.9053 26.7585 47.4482 26.7585Z" fill="#EEF8F6"/>
<path d="M30.0691 29.2415H37.5171C37.9745 29.2415 38.3447 29.6121 38.3447 30.0691V34.2069C38.3447 34.6639 37.9745 35.0345 37.5171 35.0345H30.0691C29.6121 35.0345 29.2415 34.6639 29.2415 34.2069V30.0691C29.2415 29.6121 29.6121 29.2415 30.0691 29.2415Z" fill="#D8E7E4"/>
<path d="M42.4829 29.2415H49.9309C50.3879 29.2415 50.7585 29.6121 50.7585 30.0691V34.2069C50.7585 34.6639 50.3879 35.0345 49.9309 35.0345H42.4829C42.0255 35.0345 41.6553 34.6639 41.6553 34.2069V30.0691C41.6553 29.6121 42.0255 29.2415 42.4829 29.2415Z" fill="#D8E7E4"/>
<path d="M47.4482 16L54.069 22.6207H48.2759C47.8188 22.6207 47.4482 22.2501 47.4482 21.7931V16Z" fill="#E4AD3C"/>
<path d="M25.9308 49.9308C24.5597 49.9308 23.4482 48.8193 23.4482 47.4482C23.4482 46.0768 24.5597 44.9653 25.9308 44.9653C27.3022 44.9653 28.4137 46.0768 28.4137 47.4482C28.4122 48.8186 27.3015 49.9293 25.9308 49.9308Z" fill="#2CA58D"/>
<path d="M31.724 47.4484C30.3529 47.4484 29.2415 46.3365 29.2415 44.9655C29.2415 43.5944 30.3529 42.4829 31.724 42.4829C33.0955 42.4829 34.2069 43.5944 34.2069 44.9655C34.2054 46.3362 33.0947 47.4469 31.724 47.4484Z" fill="#2CA58D"/>
<path d="M36.6899 53.2413C35.3185 53.2413 34.207 52.1295 34.207 50.7584C34.207 49.3873 35.3185 48.2759 36.6899 48.2759C38.061 48.2759 39.1725 49.3873 39.1725 50.7584C39.171 52.1292 38.0603 53.2399 36.6899 53.2413Z" fill="#2CA58D"/>
<path d="M54.8967 49.9308C53.5253 49.9308 52.4138 48.8193 52.4138 47.4482C52.4138 46.0768 53.5253 44.9653 54.8967 44.9653C56.2678 44.9653 57.3793 46.0768 57.3793 47.4482C57.3778 48.8186 56.2671 49.9293 54.8967 49.9308Z" fill="#2CA58D"/>
<path d="M49.1031 47.4484C47.7321 47.4484 46.6206 46.3365 46.6206 44.9655C46.6206 43.5944 47.7321 42.4829 49.1031 42.4829C50.4746 42.4829 51.5861 43.5944 51.5861 44.9655C51.5846 46.3362 50.4739 47.4469 49.1031 47.4484Z" fill="#2CA58D"/>
<path d="M44.1378 53.2413C42.7667 53.2413 41.6553 52.1295 41.6553 50.7584C41.6553 49.3873 42.7667 48.2759 44.1378 48.2759C45.5093 48.2759 46.6207 49.3873 46.6207 50.7584C46.6193 52.1292 45.5085 53.2399 44.1378 53.2413Z" fill="#2CA58D"/>
</g>
<defs>
<clipPath id="clip0_13102_6771">
<rect width="48" height="48" fill="white" transform="translate(16 16)"/>
</clipPath>
</defs>
</svg>
