<svg width="80" height="80" viewBox="0 0 80 80" fill="none" xmlns="http://www.w3.org/2000/svg">
<rect y="-0.000488281" width="80" height="80" rx="16" fill="white"/>
<g clip-path="url(#clip0_13102_6805)">
<path d="M40 24.8C39.5581 24.8 39.2 24.4418 39.2 24V16.8C39.2 16.3582 39.5581 16 40 16C40.4418 16 40.8 16.3582 40.8 16.8V24C40.8 24.4418 40.4418 24.8 40 24.8Z" fill="#C2D3D0"/>
<path d="M40 64C39.5581 64 39.2 63.6418 39.2 63.2V55.728C39.2 55.2862 39.5581 54.928 40 54.928C40.4418 54.928 40.8 55.2862 40.8 55.728V63.2C40.8 63.6418 40.4418 64 40 64Z" fill="#C2D3D0"/>
<path d="M27.2 40.8H16.8C16.3582 40.8 16 40.4418 16 40C16 39.5581 16.3582 39.2 16.8 39.2H27.2C27.6418 39.2 28 39.5581 28 40C28 40.4418 27.6418 40.8 27.2 40.8Z" fill="#C2D3D0"/>
<path d="M63.2001 40.8H52.3801C51.9383 40.8 51.5801 40.4418 51.5801 40C51.5801 39.5581 51.9383 39.2 52.3801 39.2H63.2001C63.6419 39.2 64.0001 39.5581 64.0001 40C64.0001 40.4418 63.6419 40.8 63.2001 40.8Z" fill="#C2D3D0"/>
<path d="M27.2 33.6H22.4C20.6326 33.6 19.2 32.1673 19.2 30.4V20C19.2 19.5581 19.5581 19.2 20 19.2C20.4418 19.2 20.8 19.5581 20.8 20V30.4C20.8 31.2836 21.5163 32 22.4 32H27.2C27.6418 32 28 32.3581 28 32.8C28 33.2418 27.6418 33.6 27.2 33.6Z" fill="#C2D3D0"/>
<path d="M20 60.7999C19.5581 60.7999 19.2 60.4417 19.2 59.9999V49.5999C19.2 47.8326 20.6326 46.3999 22.4 46.3999H30.3952C30.837 46.3999 31.1952 46.7581 31.1952 47.1999C31.1952 47.6417 30.837 47.9999 30.3952 47.9999H22.4C21.5163 47.9999 20.8 48.7162 20.8 49.5999V59.9999C20.8 60.4417 20.4418 60.7999 20 60.7999Z" fill="#C2D3D0"/>
<path d="M57.6 33.6H52.8C52.3582 33.6 52 33.2418 52 32.8C52 32.3581 52.3582 32 52.8 32H57.6C58.4837 32 59.2 31.2836 59.2 30.4V20C59.2 19.5581 59.5582 19.2 60 19.2C60.4418 19.2 60.8 19.5581 60.8 20V30.4C60.8 32.1673 59.3673 33.6 57.6 33.6Z" fill="#C2D3D0"/>
<path d="M60 60.7999C59.5582 60.7999 59.2 60.4417 59.2 59.9999V49.5999C59.2 48.7162 58.4837 47.9999 57.6 47.9999H48.8C48.3582 47.9999 48 47.6417 48 47.1999C48 46.7581 48.3582 46.3999 48.8 46.3999H57.6C59.3673 46.3999 60.8 47.8326 60.8 49.5999V59.9999C60.8 60.4417 60.4418 60.7999 60 60.7999Z" fill="#C2D3D0"/>
<path d="M53.7105 25.8087C54.5502 25.864 55.2023 26.5624 55.2001 27.4039V35.6575C55.1978 45.3899 49.5123 54.2245 40.6553 58.2583C40.2388 58.4467 39.7613 58.4467 39.3449 58.2583C30.4859 54.2267 24.7995 45.3907 24.8001 35.6575V27.4039C24.7978 26.5624 25.45 25.864 26.2897 25.8087C29.0825 25.6255 35.1697 24.8919 39.0009 21.9431C39.5887 21.4848 40.413 21.4848 41.0009 21.9431C44.8337 24.8919 50.9177 25.6255 53.7105 25.8087Z" fill="#D8E7E4"/>
<path d="M40.3744 54.8361C40.1389 54.9581 39.8587 54.9581 39.6232 54.8361C32.4786 51.1077 27.9992 43.7166 28 35.6577V29.5905C28.0023 29.1854 28.307 28.8459 28.7096 28.8001C31.896 28.4161 36.1496 27.5153 39.5896 25.4193C39.8431 25.2626 40.1633 25.2626 40.4168 25.4193C43.8504 27.5153 48.108 28.4161 51.2968 28.8001C51.7009 28.8461 52.0062 29.1878 52.0064 29.5945V35.6617C51.9907 43.7173 47.5116 51.1007 40.3744 54.8361Z" fill="#2CA58D"/>
<path d="M39.1999 47.1999C38.9877 47.1999 38.7843 47.1156 38.6343 46.9655L35.4343 43.7655C35.1311 43.4516 35.1354 42.9527 35.444 42.6441C35.7526 42.3355 36.2516 42.3311 36.5655 42.6343L38.8855 44.9543L43.2487 33.3175C43.4033 32.9035 43.8643 32.6933 44.2783 32.8479C44.6923 33.0026 44.9025 33.4635 44.7479 33.8775L39.9479 46.6775C39.8518 46.932 39.6336 47.1207 39.3679 47.1791C39.3128 47.1919 39.2565 47.1988 39.1999 47.1999Z" fill="#EEF8F6"/>
<path d="M20 23.2C21.7674 23.2 23.2 21.7674 23.2 20C23.2 18.2327 21.7674 16.8 20 16.8C18.2327 16.8 16.8 18.2327 16.8 20C16.8 21.7674 18.2327 23.2 20 23.2Z" fill="#FFC040"/>
<path d="M20 63.2C21.7674 63.2 23.2 61.7674 23.2 60C23.2 58.2327 21.7674 56.8 20 56.8C18.2327 56.8 16.8 58.2327 16.8 60C16.8 61.7674 18.2327 63.2 20 63.2Z" fill="#FFC040"/>
<path d="M60 23.2C61.7674 23.2 63.2 21.7674 63.2 20C63.2 18.2327 61.7674 16.8 60 16.8C58.2327 16.8 56.8 18.2327 56.8 20C56.8 21.7674 58.2327 23.2 60 23.2Z" fill="#FFC040"/>
<path d="M60 63.2C61.7674 63.2 63.2 61.7674 63.2 60C63.2 58.2327 61.7674 56.8 60 56.8C58.2327 56.8 56.8 58.2327 56.8 60C56.8 61.7674 58.2327 63.2 60 63.2Z" fill="#FFC040"/>
<path d="M40 55.728C39.7406 55.7282 39.4851 55.6656 39.2552 55.5456C35.9005 53.7879 33.0418 51.2146 30.9424 48.0624C28.4969 44.388 27.1947 40.0715 27.2 35.6576V29.5904C27.2015 28.779 27.8086 28.0963 28.6144 28C31.5744 27.6432 35.8024 26.7864 39.1696 24.7304C39.6789 24.4173 40.321 24.4173 40.8304 24.7304C44.1992 26.7856 48.4304 27.6432 51.3856 27.9992C52.1916 28.0956 52.7988 28.7786 52.8 29.5904V35.6576C52.8132 44.0185 48.1635 51.6891 40.7448 55.5448C40.5148 55.6647 40.2593 55.7276 40 55.728ZM40.0056 54.128C46.8951 50.5465 51.2128 43.4225 51.2 35.6576V29.5904C48.08 29.2144 43.6104 28.304 40 26.0976C36.3936 28.3032 31.92 29.2176 28.8088 29.5904L28.8 35.6576C28.794 39.7564 30.0024 43.7651 32.2728 47.1776C34.2227 50.1055 36.8778 52.4959 39.9936 54.1288L40.0056 54.128Z" fill="#EEF8F6"/>
</g>
<defs>
<clipPath id="clip0_13102_6805">
<rect width="48" height="48" fill="white" transform="translate(16 16)"/>
</clipPath>
</defs>
</svg>
