<svg width="80" height="80" viewBox="0 0 80 80" fill="none" xmlns="http://www.w3.org/2000/svg">
<rect width="80" height="80" rx="16" fill="white"/>
<path d="M35.0344 59.0346C35.0344 61.7769 37.2576 64.0001 39.9999 64.0001C42.7423 64.0001 44.9655 61.7769 44.9655 59.0346L39.9999 57.3794L35.0344 59.0346Z" fill="#C2D3D0"/>
<path d="M47.4814 47.4483H32.5518C29.0108 44.1449 27.2064 39.3833 27.669 34.5628C27.7159 33.963 27.796 33.3662 27.909 32.7752C28.671 29.312 30.2581 26.0839 32.5352 23.3656C34.6108 20.7582 36.9327 18.3568 39.4688 16.1945C39.7762 15.9371 40.2239 15.9371 40.5314 16.1945C45.487 20.3623 50.8456 26.0801 52.1242 32.7752C52.2372 33.3662 52.3173 33.963 52.3642 34.5628C52.8268 39.3833 51.0224 44.1449 47.4814 47.4483Z" fill="#2CA58D"/>
<path d="M46.422 36.8818L40.8275 41.5436V37.0746L47.4813 31.5298C47.8195 31.234 47.8598 30.7223 47.5721 30.3771C47.2845 30.032 46.774 29.9794 46.422 30.2586L40.8275 34.9229V30.454L45.4951 26.5643C45.8333 26.2684 45.8736 25.7568 45.5859 25.4116C45.2983 25.0664 44.7878 25.0138 44.4358 25.2931L40.8275 28.3022V23.4484C40.8275 22.9914 40.457 22.6208 39.9999 22.6208C39.5428 22.6208 39.1723 22.9914 39.1723 23.4484V28.3022L35.564 25.2956C35.3379 25.0978 35.0224 25.0381 34.7397 25.1395C34.4569 25.2409 34.2513 25.4877 34.2025 25.7841C34.1537 26.0805 34.2694 26.3801 34.5047 26.5668L39.1723 30.4564V34.9254L33.5778 30.2636C33.2259 29.9843 32.7153 30.0369 32.4277 30.3821C32.14 30.7273 32.1803 31.2389 32.5185 31.5348L39.1723 37.0796V41.5486L33.5778 36.8868C33.2259 36.6075 32.7153 36.6601 32.4277 37.0053C32.14 37.3505 32.1803 37.8621 32.5185 38.158L39.1723 43.7028V47.4484C39.1723 47.9055 39.5428 48.276 39.9999 48.276C40.457 48.276 40.8275 47.9055 40.8275 47.4484V43.6978L47.4813 38.153C47.7166 37.9663 47.8323 37.6667 47.7835 37.3703C47.7347 37.0739 47.5291 36.8272 47.2464 36.7257C46.9636 36.6243 46.6481 36.684 46.422 36.8818Z" fill="#258F7A"/>
<path d="M32.5518 47.4482H47.4483V57.3793C47.4483 58.2934 46.7073 59.0344 45.7931 59.0344H34.2069C33.2928 59.0344 32.5518 58.2934 32.5518 57.3793V47.4482Z" fill="#D8E7E4"/>
<path d="M35.8621 55.7243H32.5517C32.0946 55.7243 31.7241 55.3537 31.7241 54.8967C31.7241 54.4396 32.0946 54.0691 32.5517 54.0691H35.8621C36.3191 54.0691 36.6896 54.4396 36.6896 54.8967C36.6896 55.3537 36.3191 55.7243 35.8621 55.7243Z" fill="#C2D3D0"/>
<path d="M47.4482 55.7243H39.1723C38.7152 55.7243 38.3447 55.3537 38.3447 54.8967C38.3447 54.4396 38.7152 54.0691 39.1723 54.0691H47.4482C47.9052 54.0691 48.2758 54.4396 48.2758 54.8967C48.2758 55.3537 47.9052 55.7243 47.4482 55.7243Z" fill="#C2D3D0"/>
<path d="M47.4482 52.414H44.1379C43.6808 52.414 43.3103 52.0434 43.3103 51.5864C43.3103 51.1293 43.6808 50.7588 44.1379 50.7588H47.4482C47.9053 50.7588 48.2758 51.1293 48.2758 51.5864C48.2758 52.0434 47.9053 52.414 47.4482 52.414Z" fill="#C2D3D0"/>
<path d="M40.8276 52.414H32.5517C32.0946 52.414 31.7241 52.0434 31.7241 51.5864C31.7241 51.1293 32.0946 50.7588 32.5517 50.7588H40.8276C41.2846 50.7588 41.6552 51.1293 41.6552 51.5864C41.6552 52.0434 41.2846 52.414 40.8276 52.414Z" fill="#C2D3D0"/>
<path d="M23.4482 35.8622H20.1379C19.6808 35.8622 19.3103 35.4917 19.3103 35.0346C19.3103 34.5776 19.6808 34.207 20.1379 34.207H23.4482C23.9053 34.207 24.2758 34.5776 24.2758 35.0346C24.2758 35.4917 23.9053 35.8622 23.4482 35.8622Z" fill="#FFC040"/>
<path d="M59.8621 35.8622H56.5517C56.0946 35.8622 55.7241 35.4917 55.7241 35.0346C55.7241 34.5776 56.0946 34.207 56.5517 34.207H59.8621C60.3191 34.207 60.6896 34.5776 60.6896 35.0346C60.6896 35.4917 60.3191 35.8622 59.8621 35.8622Z" fill="#FFC040"/>
<path d="M22.7993 45.7931C22.4247 45.7931 22.0969 45.5415 22 45.1797C21.903 44.8179 22.0611 44.4361 22.3855 44.2488L25.2531 42.5936C25.5093 42.4434 25.8263 42.442 26.0838 42.5899C26.3414 42.7379 26.4999 43.0124 26.4992 43.3094C26.4986 43.6064 26.3389 43.8802 26.0807 44.027L23.2131 45.6822C23.0874 45.7551 22.9446 45.7934 22.7993 45.7931Z" fill="#FFC040"/>
<path d="M54.3345 27.5863C53.9599 27.5863 53.6321 27.3347 53.5351 26.9729C53.4382 26.6111 53.5963 26.2293 53.9207 26.042L56.7883 24.3868C57.0445 24.2366 57.3615 24.2352 57.619 24.3832C57.8765 24.5311 58.035 24.8056 58.0344 25.1026C58.0337 25.3996 57.874 25.6734 57.6158 25.8202L54.7483 27.4754C54.6226 27.5483 54.4798 27.5866 54.3345 27.5863Z" fill="#FFC040"/>
<path d="M57.2004 45.7931C57.0551 45.7934 56.9123 45.7551 56.7866 45.6822L53.919 44.027C53.6609 43.8802 53.5011 43.6064 53.5005 43.3094C53.4998 43.0124 53.6584 42.7379 53.9159 42.5899C54.1734 42.442 54.4904 42.4434 54.7466 42.5936L57.6142 44.2488C57.9386 44.4361 58.0967 44.8179 57.9998 45.1797C57.9028 45.5415 57.575 45.7931 57.2004 45.7931Z" fill="#FFC040"/>
<path d="M25.6654 27.5863C25.5201 27.5866 25.3773 27.5483 25.2516 27.4754L22.384 25.8202C21.9916 25.5902 21.8584 25.0865 22.0859 24.6925C22.3133 24.2985 22.8161 24.162 23.2116 24.3869L26.0792 26.042C26.4036 26.2293 26.5617 26.6111 26.4648 26.9729C26.3678 27.3347 26.04 27.5863 25.6654 27.5863Z" fill="#FFC040"/>
</svg>
