<svg width="492" height="750" viewBox="0 0 492 750" fill="none" xmlns="http://www.w3.org/2000/svg">
<path d="M104.5 749.4C124.382 749.4 140.5 733.282 140.5 713.4C140.5 693.518 124.382 677.4 104.5 677.4C84.6177 677.4 68.5 693.518 68.5 713.4C68.5 733.282 84.6177 749.4 104.5 749.4Z" fill="#0A2342"/>
<path opacity="0.15" d="M140.5 713.4C140.5 733.3 124.4 749.4 104.5 749.4C100.8 749.4 97.3 748.9 94 747.8C108.8 743.3 119.5 729.6 119.5 713.4C119.5 697.2 108.8 683.4 94 679C97.3 678 100.8 677.4 104.5 677.4C124.4 677.4 140.5 693.5 140.5 713.4Z" fill="white"/>
<path d="M139.997 595.225C148.945 529.895 128.611 473.156 94.578 468.495C60.5453 463.833 25.7023 513.014 16.7538 578.344C7.80541 643.673 28.1402 700.412 62.1728 705.074C96.2055 709.735 131.049 660.554 139.997 595.225Z" fill="#CCCCCC"/>
<path d="M440.5 703.4C433.3 715.9 357.3 720.9 275.2 721C214.9 721 151.3 718.4 109.2 714.2C108.2 714.1 107.2 714 106.1 713.9C105.1 713.8 104.1 713.7 103.1 713.6C102.1 713.5 101.2 713.4 100.2 713.3C99.3003 713.2 98.3003 713.1 97.4003 713C95.6003 712.8 93.8003 712.6 92.0003 712.3C91.1003 712.2 90.3003 712.1 89.5003 712C88.7003 711.9 87.8003 711.8 87.0003 711.6C85.8003 711.4 84.6003 711.2 83.5003 711.1C82.4003 711 81.3003 710.7 80.2003 710.6C79.8003 710.5 79.5003 710.5 79.2003 710.4C78.2003 710.2 77.2003 710 76.2003 709.8C75.2003 709.6 74.3003 709.4 73.5003 709.2C72.9003 709.1 72.3003 708.9 71.8003 708.8C71.3003 708.7 70.7003 708.5 70.2003 708.4C69.4003 708.2 68.7003 708 68.0003 707.8C67.6003 707.7 67.1003 707.5 66.7003 707.4C66.5003 707.3 66.3003 707.3 66.1003 707.2C65.7003 707.1 65.3003 706.9 65.0003 706.8C63.9003 706.4 63.1003 706 62.4003 705.5C35.4003 688.5 22.4003 660.5 29.4003 570.5C29.8003 565.1 30.8003 559.2 32.2003 552.9C36.3003 534.4 44.2003 512.7 53.1003 490.7C66.5003 464.7 82.5003 442.9 96.1003 386.2C97.9003 380.4 99.1003 375.4 99.4003 371.4C107.4 278.4 92.4003 166.4 127.4 148.4C129 148.1 130.6 147.9 132.3 147.6C132.8 147.5 133.3 147.4 133.7 147.4C137.7 146.8 142.1 146.2 146.8 145.6C226.7 135.8 393.1 136 427.4 222.5C446.4 270.5 435.6 369.5 434.4 406.5C432.4 468.5 446.4 476.5 455.4 518.5C458.4 532.3 461.1 557.3 461.4 585.3C461.9 626.4 457.2 674.3 440.5 703.4Z" fill="white"/>
<path d="M272.6 609C272.3 653.6 270.4 694.1 265.6 721C208.2 720.8 149 718.2 109.1 714.2C108.1 714.1 107.1 714 106 713.9C105 713.8 104 713.7 103 713.6C102 713.5 101.1 713.4 100.1 713.3C99.2003 713.2 98.2003 713.1 97.3003 713C95.9003 712.8 94.5003 712.7 93.1003 712.5C92.7003 712.5 92.3003 712.4 92.0003 712.3C91.1003 712.2 90.3003 712.1 89.5003 712C88.7003 711.9 87.8003 711.8 87.0003 711.6C85.8003 711.4 84.6003 711.2 83.5003 711.1C82.4003 711 81.3003 710.7 80.2003 710.6C79.8003 710.5 79.5003 710.5 79.2003 710.4C78.2003 710.2 77.2003 710 76.2003 709.8C75.2003 709.6 74.3003 709.4 73.5003 709.2C72.9003 709.1 72.3003 708.9 71.8003 708.8C71.3003 708.7 70.7003 708.5 70.2003 708.4C69.4003 708.2 68.7003 708 68.0003 707.8C67.6003 707.7 67.1003 707.5 66.7003 707.4C66.5003 707.3 66.3003 707.3 66.1003 707.2C65.7003 707.1 65.3003 706.9 65.0003 706.8C63.9003 706.4 63.1003 706 62.4003 705.5C35.4003 688.5 22.4003 660.5 29.4003 570.5C30.2003 564.2 31.2003 558.4 32.2003 552.9C37.5003 524.4 44.8003 506.8 53.1003 490.7C66.5003 464.7 82.5003 442.9 96.1003 386.2C97.2003 381.5 98.3003 376.6 99.4003 371.4C107.4 278.4 92.4003 166.4 127.4 148.4C129 148.1 130.6 147.9 132.3 147.6C132.8 147.5 133.3 147.4 133.7 147.4C137.7 146.8 142.1 146.2 146.8 145.6C178.1 161.7 218.9 190.2 238.4 235.5C247.1 255.6 253.7 299 258.8 352.5C265.6 423.3 269.6 511.9 272 587.5C261.6 588.5 231.6 589.4 173.4 584.5C173.5 590.3 233.5 612.4 272.6 609Z" fill="#CCCCCC"/>
<path d="M314.8 157.2C312.8 171.7 277.7 178.9 236.4 173.2C201.5 168.4 173.4 156 166.6 143.6C207.8 140.1 263.2 139.8 312.8 149.6C314.5 152.1 315.1 154.6 314.8 157.2Z" fill="#E6E6E6"/>
<path d="M228.5 118.4C228.5 118.4 224.5 136.4 224.5 149.4C250.5 165.4 294.5 169.4 314.5 160.4C315.5 134.4 314.5 128.4 314.5 128.4L228.5 118.4Z" fill="#CCCCCC"/>
<path d="M228.5 118.4C228.5 118.4 224.5 136.4 224.5 149.4C250.5 165.4 294.5 169.4 314.5 160.4C290.8 159.1 269.5 132.4 265.5 122.4C246.5 120.4 228.5 118.4 228.5 118.4Z" fill="#999999"/>
<path d="M265.6 556.9H246.5L246.4 504.1V489.8L246.3 475.5L246.1 461.2C246 456.5 246 451.7 245.9 447C245.1 409.1 242.701 371.7 236.6 335.1L234.201 321.4L231.4 307.8C231 305.5 230.4 303.3 229.9 301L228.3 294.2L227.5 290.8L227.1 289.1L226.701 287.6L224.9 281.4C222.4 273.2 219.2 265.2 215.5 257.5C211.8 249.8 207.4 242.4 202.6 235.4C197.8 228.4 192.3 221.7 186.5 215.5L184.3 213.2C183.6 212.4 182.8 211.7 182 211L179.701 208.8L177.4 206.6C174.3 203.7 171 201 167.6 198.4C160.9 193.2 153.8 188.5 146.701 184.7C143.101 182.8 139.3 181.5 136.1 179.8C129.6 176.4 117.5 171.5 111.5 170.4V144.4C113.7 144.5 116.2 145.2 118.6 145.9C121 146.6 123.3 147.5 125.6 148.4C130.2 150.3 134.701 152.4 139.201 154.7C148.101 159.3 156.7 164.5 164.8 170.3C181.2 181.8 196.1 195.4 208.8 210.9C215.1 218.6 220.9 226.9 226 235.5C231 244.1 235.4 253.2 239 262.5C240.8 267.2 242.301 271.9 243.701 276.7C245.1 281.5 246.2 286.4 247.3 291.3C249.5 301.1 251.4 310.9 253.1 320.8C260 360.4 262.801 400.6 263.901 440.7C265.001 479.5 264.9 518.2 265.6 556.9Z" fill="#999999"/>
<path d="M286.401 556.9H265.6C264.9 518.2 265.001 479.5 263.901 440.8C262.801 400.7 260 360.5 253.1 320.9C251.4 311 249.4 301.2 247.3 291.4C246.2 286.5 245.1 281.6 243.701 276.8C242.301 272 240.7 267.2 239 262.6C235.4 253.3 231.1 244.2 226 235.6C220.9 227 215.2 218.8 208.8 211C196.1 195.5 181.2 181.9 164.8 170.4C156.6 164.6 148 159.4 139.201 154.8C134.701 152.5 130.2 150.4 125.6 148.5C123.3 147.6 120.9 146.7 118.6 146C116.3 145.3 113.8 144.6 111.5 144.5V143.2C111.7 143 111.8 142.8 112 142.5C115.6 138 126.2 128.5 132.5 128.5C133.5 128.5 134.5 128.6 135.5 128.7C136.4 128.8 137.6 128.9 138.1 129.1L140 129.5L141 129.7L141.5 129.8L141.9 129.9L144.9 130.8C145.4 131 145.8 131.1 146.201 131.3L147.4 131.8C150.7 133 153.5 134.4 156.201 135.7C161.601 138.4 166.4 141.2 171 144.2C175.7 147.2 180.1 150.3 184.4 153.6C188.7 156.9 192.8 160.3 196.8 163.9C200.8 167.5 204.6 171.1 208.3 175L211.1 177.9L213.8 180.8C214.7 181.8 215.6 182.8 216.5 183.8L219.1 186.8C226 194.9 232.2 203.5 237.9 212.5C243.6 221.5 248.5 230.9 252.8 240.6C257.1 250.3 260.7 260.3 263.6 270.5L265.5 278.2L266 280.1L266.401 281.9L267.201 285.5L268.8 292.7C269.3 295.1 269.9 297.5 270.3 300L273 314.6L275.3 329.2C281.1 368.3 283.301 407.6 284.201 446.3C285.001 483.3 285.201 520.2 286.401 556.9Z" fill="#999999"/>
<path d="M357.8 212.8C373.9 227.7 378.6 248.7 368.5 259.7C364 264.6 357.4 266.7 349.9 266.2C340.5 265.7 329.9 261 320.9 252.7C311.9 244.4 306.5 234.2 305.2 224.8C304.2 217.4 305.8 210.6 310.3 205.8C320.4 194.9 341.7 198 357.8 212.8Z" fill="#CCCCCC"/>
<path d="M370.5 322.4C370.5 334.5 362.7 344.4 353 344.4C348.7 344.4 344.8 342.5 341.8 339.3C338 335.3 335.5 329.2 335.5 322.4C335.5 315.6 338 309.5 341.8 305.5C344.8 302.3 348.7 300.4 353 300.4C362.7 300.4 370.5 310.3 370.5 322.4Z" fill="#CCCCCC"/>
<path d="M356.5 322.4C356.5 331.8 350.5 339.4 343 339.4C342.6 339.4 342.2 339.4 341.8 339.3C338 335.3 335.5 329.2 335.5 322.4C335.5 315.6 338 309.5 341.8 305.5C342.2 305.5 342.6 305.4 343 305.4C350.5 305.4 356.5 313 356.5 322.4Z" fill="#0A2342"/>
<path d="M368.4 259.7C368 260.2 367.5 260.6 367.1 261C362.7 264.9 356.6 266.6 349.9 266.2C340.5 265.7 329.9 261 320.9 252.7C311.9 244.4 306.5 234.2 305.2 224.8C304.4 219.2 305.2 213.8 307.6 209.5C308.3 208.2 309.2 206.9 310.3 205.8C320.5 194.8 341.8 197.9 357.9 212.7C373.8 227.7 378.6 248.7 368.4 259.7Z" fill="#999999"/>
<path d="M367.1 261C362.7 264.9 356.6 266.6 349.9 266.2C340.5 265.7 329.9 261 320.9 252.7C311.9 244.4 306.5 234.2 305.2 224.8C304.4 219.2 305.2 213.8 307.6 209.5C318.2 200.1 338.4 203.5 353.8 217.7C368.2 231.1 373.5 249.4 367.1 261Z" fill="#CCCCCC"/>
<path d="M360.6 253.4C360.3 253.7 360 254.1 359.6 254.3C356.4 257.2 351.9 258.4 347 258.1C340.1 257.7 332.4 254.3 325.8 248.3C319.2 242.2 315.3 234.8 314.3 227.9C313.7 223.8 314.3 219.9 316.1 216.7C316.6 215.7 317.3 214.8 318 214C325.4 205.9 341 208.2 352.8 219.1C364.5 230.1 368 245.4 360.6 253.4Z" fill="#999999"/>
<path d="M360.9 248.9C360.6 249.2 360.3 249.5 360 249.8C357 252.4 352.9 253.6 348.4 253.3C342.1 252.9 334.9 249.8 328.9 244.2C322.9 238.6 319.2 231.7 318.3 225.5C317.8 221.7 318.3 218.1 319.9 215.2C320.4 214.3 321 213.5 321.7 212.7C328.6 205.3 342.9 207.4 353.7 217.4C364.5 227.3 367.7 241.5 360.9 248.9Z" fill="white"/>
<path d="M111.5 170.4C111.5 170.4 150.5 179.4 175.5 204.4C177.5 215.4 165.5 224.4 160.5 224.4C146.5 211.4 112.5 198.4 105.7 199.3C96.5002 181.4 111.5 170.4 111.5 170.4Z" fill="#0A2342"/>
<path d="M265.6 556.9H246.5L246.4 504.1V489.8L246.3 475.5L246.1 461.2C246 456.5 246 451.7 245.9 447C245.1 409.1 242.7 371.7 236.6 335.1L234.2 321.4L231.4 307.8C231 305.5 230.4 303.3 229.9 301L228.3 294.2L227.5 290.8L227.1 289.1L226.7 287.6L224.9 281.4C222.4 273.2 219.2 265.2 215.5 257.5C211.8 249.8 207.4 242.4 202.6 235.4C197.8 228.4 192.3 221.7 186.5 215.5L184.3 213.2C183.6 212.4 182.8 211.7 182 211L179.7 208.8L177.4 206.6C174.3 203.7 171 201 167.6 198.4C160.9 193.2 153.8 188.5 146.7 184.7C143.1 182.8 139.3 181.5 136.1 179.8C129.6 176.4 117.5 171.5 111.5 170.4V144.4C113.7 144.5 116.2 145.2 118.6 145.9C121 146.6 123.3 147.5 125.6 148.4C130.2 150.3 134.7 152.4 139.2 154.7C148.1 159.3 156.7 164.5 164.8 170.3C181.2 181.8 196.1 195.4 208.8 210.9C215.1 218.6 220.9 226.9 226 235.5C231 244.1 235.4 253.2 239 262.5C240.8 267.2 242.3 271.9 243.7 276.7C245.1 281.5 246.2 286.4 247.3 291.3C249.5 301.1 251.4 310.9 253.1 320.8C260 360.4 262.8 400.6 263.9 440.7C265 479.5 264.9 518.2 265.6 556.9Z" fill="#999999"/>
<path d="M286.4 558.9L265.6 556.9C264.9 518.2 265 479.5 263.9 440.8C262.8 400.7 260 360.5 253.1 320.9C251.4 311 249.4 301.2 247.3 291.4C246.2 286.5 245.1 281.6 243.7 276.8C242.3 272 240.7 267.2 239 262.6C235.4 253.3 231.1 244.2 226 235.6C220.9 227 215.2 218.8 208.8 211C196.1 195.5 181.2 181.9 164.8 170.4C156.6 164.6 148 159.4 139.2 154.8C134.7 152.5 130.2 150.4 125.6 148.5C123.3 147.6 120.9 146.7 118.6 146C116.3 145.3 113.8 144.6 111.5 144.5V143.2C111.7 143 111.8 142.8 112 142.5C115.6 138 126.2 128.5 132.5 128.5C133.5 128.5 134.5 128.6 135.5 128.7C136.4 128.8 137.6 128.9 138.1 129.1L140 129.5L141 129.7L141.5 129.8L141.9 129.9L144.9 130.8C145.4 131 145.8 131.1 146.2 131.3L147.4 131.8C150.7 133 153.5 134.4 156.2 135.7C161.6 138.4 166.4 141.2 171 144.2C175.7 147.2 180.1 150.3 184.4 153.6C188.7 156.9 192.8 160.3 196.8 163.9C200.8 167.5 204.6 171.1 208.3 175L211.1 177.9L213.8 180.8C214.7 181.8 215.6 182.8 216.5 183.8L219.1 186.8C226 194.9 232.2 203.5 237.9 212.5C243.6 221.5 248.5 230.9 252.8 240.6C257.1 250.3 260.7 260.3 263.6 270.5L265.5 278.2L266 280.1L266.4 281.9L267.2 285.5L268.8 292.7C269.3 295.1 269.9 297.5 270.3 300L273 314.6L275.3 329.2C281.1 368.3 283.3 407.6 284.2 446.3C285 483.3 285.2 522.2 286.4 558.9Z" fill="#CCCCCC"/>
<path d="M267.2 556.9H265.6C264.9 518.2 265 479.5 263.9 440.8C262.8 400.7 260 360.5 253.1 320.9C251.4 311 249.4 301.2 247.3 291.4C246.2 286.5 245.1 281.6 243.7 276.8C242.3 272 240.7 267.2 239 262.6C235.4 253.3 231.1 244.2 226 235.6C220.9 227 215.2 218.8 208.8 211C196.1 195.5 181.2 181.9 164.8 170.4C156.6 164.6 148 159.4 139.2 154.8C134.7 152.5 130.2 150.4 125.6 148.5C123.3 147.6 120.9 146.7 118.6 146C116.3 145.3 113.8 144.6 111.5 144.5V143.2C111.7 143 111.8 142.8 112 142.5C114.6 142.7 116.8 143.4 119.1 144.1C121.5 144.9 123.9 145.8 126.3 146.7C131 148.6 135.6 150.8 140.1 153.1C149.1 157.7 157.7 163 165.9 168.9C182.4 180.6 197.4 194.3 210.2 209.9C216.6 217.7 222.4 226 227.5 234.7C232.6 243.4 237 252.6 240.5 262C242.3 266.7 243.8 271.5 245.2 276.4C246.6 281.3 247.7 286.2 248.8 291.1C251 300.9 252.9 310.8 254.7 320.7C261.7 360.4 264.4 400.7 265.5 440.9C266.6 479.5 266.5 518.2 267.2 556.9Z" fill="white"/>
<path d="M411.6 165.3C418.5 171.4 423 178.9 427.5 187.3C436.5 204 442.7 222 446.2 240.3C447.9 249.5 449.1 258.7 449.7 267.9C449.8 270.2 449.9 272.5 450 274.8L450.1 281.5C450.2 285.9 450.3 290.3 450.3 294.8C450.4 312.5 450.1 330 449.6 347.6C449.1 365.2 448.3 382.7 447.3 400.2C446.4 417.7 445.3 435.2 444 452.7C442.8 470.2 441.2 487.6 439.8 505.1C438.3 522.6 436.6 540 434.9 557.4C434.3 564 428.4 568.8 421.8 568.2C415.2 567.6 410.4 561.7 411 555.1C411 555 411 555 411 554.9V554.8C415.1 520.3 418.5 485.7 421 451.1C423.6 416.5 425.5 381.8 426.2 347.1C426.6 329.8 426.7 312.5 426.4 295.2C426.4 290.9 426.2 286.6 426.1 282.3L425.9 275.9C425.8 273.8 425.7 271.8 425.5 269.8C424.8 261.6 423.7 253.5 421.9 245.6C418.4 229.7 412.5 214.5 404.2 200.9C400.1 194.1 395.4 187.7 390.2 182.1C387.6 179.3 384.9 176.6 382.1 174.4C380.7 173.3 379.4 172.2 378.1 171.5C388.5 156.4 406.5 161.4 411.6 165.3Z" fill="#E6E6E6"/>
<path d="M439.6 302C439.6 320.3 439.2 338.5 438.6 356.8C437.9 375 437.1 393.3 436 411.5C435.5 420.6 434.9 429.7 434.3 438.8C433.7 447.9 433.1 457 432.3 466.1C429.7 500.2 426.6 534.2 423 568.1C422.6 568.1 422.2 568.1 421.9 568C421.5 568 421.1 567.9 420.7 567.8C414.7 566.6 410.6 561 411.2 554.9C411.2 554.8 411.2 554.8 411.2 554.7V554.6C415.3 520.1 418.7 485.5 421.2 450.9C423.8 416.2 425.7 381.5 426.4 346.9C426.8 329.6 426.9 312.3 426.6 295C426.6 290.7 426.4 286.4 426.3 282.1L426.1 275.7C426 273.7 425.9 271.6 425.7 269.6C425 261.4 423.9 253.3 422.1 245.4C418.6 229.5 412.7 214.3 404.4 200.7C400.3 193.9 395.6 187.5 390.4 181.9C387.8 179.1 385.1 176.4 382.3 174.2C380.9 173.1 379.5 172 378.3 171.3C381.4 166.9 385.2 164.3 389.1 162.9C390.2 162.5 391.4 162.2 392.5 161.9C392.8 162.1 393.1 162.4 393.4 162.7C396.8 165.8 400 169.2 403 172.7C408.9 179.8 414.1 187.5 418.5 195.5C427.3 211.7 433.3 229.3 436.5 247.4C438.1 256.4 439.1 265.6 439.4 274.8C439.6 279.4 439.6 283.9 439.7 288.5C439.6 292.9 439.5 297.4 439.6 302Z" fill="#999999"/>
<path d="M422.9 568.1C426.6 534.1 429.7 500.1 432.2 466.1C432.9 457 433.5 447.9 434.2 438.8C434.8 429.7 435.4 420.6 435.9 411.5C437 393.3 437.8 375.1 438.5 356.8C439.2 338.6 439.5 320.3 439.5 302C439.5 297.4 439.5 292.9 439.4 288.3C439.3 283.7 439.2 279.2 439.1 274.6C438.8 265.4 437.8 256.3 436.2 247.2C433 229.1 427 211.5 418.2 195.3C413.8 187.2 408.6 179.5 402.7 172.5C399.7 169 396.6 165.6 393.1 162.5C392.8 162.2 392.5 162 392.2 161.7C391.5 161.8 390.9 162 390.2 162.2C389.7 162.3 389.3 162.5 388.8 162.7C389.6 163.3 390.4 164 391.1 164.7C394.4 167.7 397.5 171 400.4 174.4C406.2 181.3 411.3 188.8 415.6 196.7C424.3 212.5 430.3 229.9 433.5 247.7C435.1 256.6 436.1 265.6 436.5 274.7C436.7 279.2 436.7 283.8 436.9 288.3C437 292.9 437 297.4 437 302C437 320.2 436.6 338.5 436 356.7C435.3 374.9 434.5 393.1 433.4 411.3C432.9 420.4 432.3 429.5 431.7 438.6C431 447.7 430.5 456.8 429.7 465.9C427.1 499.9 424 533.9 420.4 567.9L422.9 568.1Z" fill="white"/>
<path d="M158.841 597.982C168.374 528.385 146.695 467.937 110.419 462.968C74.1429 458 37.0074 510.391 27.4744 579.989C17.9414 649.586 39.6208 710.034 75.8968 715.003C112.173 719.971 149.308 667.58 158.841 597.982Z" fill="white"/>
<path d="M90.8997 459.9C56.0997 459.9 21.5997 510.9 12.4997 577.7C2.89968 647.6 24.6997 708.3 61.0997 713.2C62.6997 713.4 64.2997 713.5 65.8997 713.5C100.7 713.5 135.2 662.5 144.3 595.7C153.9 525.8 132.1 465.1 95.6997 460.2C94.0997 460.1 92.4997 459.9 90.8997 459.9Z" fill="#2CA58D"/>
<path d="M90.9 479.9C91.6 479.9 92.3 479.9 93 480C102.6 481.3 112.1 492.7 118.4 510.4C126.4 532.7 128.6 562.8 124.5 593C120.5 622.3 111.1 649.1 98.1 668.6C87.6 684.2 75.6 693.6 65.9 693.6C65.2 693.6 64.5 693.6 63.8 693.5C54.2 692.2 44.7 680.8 38.4 663.1C30.4 640.8 28.2 610.7 32.3 580.5C36.3 551.2 45.7 524.4 58.7 504.9C69.2 489.3 81.2 479.9 90.9 479.9Z" fill="#CCCCCC"/>
<path d="M83.1 546.6C83.4 546.6 83.6 546.6 83.9 546.7C87.5 547.2 91.1 551.5 93.5 558.1C96.5 566.5 97.3 577.8 95.8 589.2C94.3 600.2 90.8 610.3 85.9 617.6C82 623.5 77.4 627 73.8 627C73.5 627 73.3 627 73 626.9C69.4 626.4 65.8 622.1 63.4 615.5C60.4 607.1 59.6 595.8 61.1 584.4C62.6 573.4 66.1 563.3 71 556C74.9 550.1 79.5 546.6 83.1 546.6Z" fill="#0A2342"/>
<path d="M40.3 580.5C36.2 610.7 38.4 640.8 46.4 663.1C52.3 679.7 61 690.7 70 693.1C68.6 693.4 67.2 693.6 65.9 693.6C65.2 693.6 64.5 693.5 63.8 693.5C54.2 692.2 44.7 680.8 38.4 663.1C30.4 640.8 28.2 610.7 32.3 580.5C36.3 551.3 45.7 524.4 58.7 505C69.2 489.4 81.2 480 90.9 480C91.6 480 92.3 480 93 480.1C93.6 480.2 94.2 480.3 94.8 480.5C85.9 482.6 75.7 491.4 66.7 505C53.7 524.4 44.3 551.2 40.3 580.5Z" fill="#999999"/>
<path d="M440.053 86.8385C442.836 54.1509 374.161 21.6141 286.664 14.1655C199.167 6.71697 125.98 27.1773 123.198 59.8649C120.415 92.5525 189.09 125.089 276.587 132.538C364.084 139.986 437.27 119.526 440.053 86.8385Z" fill="white"/>
<path d="M325 133.8C309.7 134.3 293.4 133.9 276.6 132.5C189.1 125.1 120.4 92.5 123.2 59.8C125.7 29.9 187 10.3 264.3 12.8C199.7 15 151.4 33.4 149.2 59.8C146.4 92.5 215.1 125 302.6 132.5C310.2 133.1 317.6 133.6 325 133.8Z" fill="#E6E6E6"/>
<path d="M440.1 86.7998C437.9 113.2 389.6 131.6 325.1 133.8H325C317.7 133.6 310.2 133.1 302.6 132.5C215.1 125.1 146.4 92.4998 149.2 59.7998C151.4 33.3998 199.7 14.8998 264.3 12.7998C271.6 12.9998 279.1 13.4998 286.6 14.0998C374.2 21.5998 442.8 54.0998 440.1 86.7998Z" fill="white"/>
<path d="M416.617 79.0285C418.889 52.3391 365.325 25.9864 296.978 20.1681C228.631 14.3498 171.384 31.2691 169.111 57.9585C166.839 84.6479 220.404 111.001 288.75 116.819C357.097 122.637 414.345 105.718 416.617 79.0285Z" fill="#CCCCCC"/>
<path d="M412.831 75.7061C414.841 52.0984 362.759 28.3882 296.503 22.7479C230.247 17.1076 174.907 31.6731 172.898 55.2808C170.888 78.8885 222.97 102.599 289.225 108.239C355.481 113.879 410.821 99.3138 412.831 75.7061Z" fill="#0A2342"/>
<path d="M412.8 75.6999C410.8 99.2999 355.5 113.8 289.2 108.2C222.9 102.6 170.9 78.8999 172.9 55.2999C173.6 47.5999 179.9 40.7999 190.6 35.3999C212.4 24.2999 252 18.9999 296.5 22.7999C338.4 26.3999 374.7 37.1999 395.2 50.5999C407 58.3999 413.6 67.0999 412.8 75.6999Z" fill="#0A2342"/>
<path opacity="0.15" d="M395.2 50.5999C373.4 61.6999 333.8 66.9999 289.3 63.1999C247.4 59.5999 211.1 48.7999 190.6 35.3999C212.4 24.2999 252 18.9999 296.5 22.7999C338.5 26.3999 374.7 37.1999 395.2 50.5999Z" fill="white"/>
<path d="M230.2 56.4999L242.5 48.1999C244.1 47.0999 246.3 47.4999 247.5 48.8999L256.4 59.7999C257.1 60.6999 257 61.9999 256.1 62.6999C255.4 63.1999 254.6 63.2999 253.8 62.9999L241.2 56.6999L246.2 57.3999L231.6 60.2999C230.5 60.4999 229.4 59.7999 229.1 58.6999C229.2 57.7999 229.5 56.8999 230.2 56.4999Z" fill="#2CA58D"/>
<path d="M330.2 66.4999L342.5 58.1999C344.1 57.0999 346.3 57.4999 347.5 58.8999L356.4 69.7999C357.1 70.6999 357 71.9999 356.1 72.6999C355.4 73.1999 354.6 73.2999 353.8 72.9999L341.2 66.6999L346.2 67.3999L331.6 70.2999C330.5 70.4999 329.4 69.7999 329.1 68.6999C329.2 67.7999 329.5 66.8999 330.2 66.4999Z" fill="#2CA58D"/>
<path d="M144.385 58.6499C145.285 52.0841 142.022 46.2147 137.097 45.5402C132.173 44.8657 127.452 49.6415 126.553 56.2073C125.653 62.7731 128.916 68.6425 133.841 69.317C138.765 69.9915 143.486 65.2157 144.385 58.6499Z" fill="#0A2342"/>
<path d="M326.8 589.2C250.4 589.2 197.3 577.4 175.2 570.8C175.5 559.4 174.5 547.4 173.5 540.4C253.6 564.1 413.9 561.4 459.5 545.3C468.5 544.4 473.5 566.4 461.5 573.6C434.6 583.1 384.5 588.9 330.8 589.2C329.5 589.2 328.2 589.2 326.8 589.2Z" fill="#0A2342"/>
<g opacity="0.15">
<path d="M264.9 567.9C280.6 570.1 296.4 571.4 312.3 571.8C328.2 572.2 344.1 571.9 359.9 570.9C375.7 569.9 391.5 568.1 407.1 565.6C422.7 563 438.2 559.7 453.2 555.1C455.6 554.4 458.1 555.7 458.8 558.1C459.5 560.5 458.2 563 455.8 563.7H455.7C440.1 568.1 424.2 571.2 408.2 573.5C392.2 575.8 376.2 577.2 360.1 577.9C344 578.6 328 578.6 311.9 577.8C295.9 577 279.8 575.4 264 572.8C262.6 572.6 261.7 571.3 261.9 569.9C262.3 568.7 263.5 567.8 264.9 567.9Z" fill="white"/>
</g>
<path d="M357.9 572.9C366.2 572.1 374.5 571.5 382.7 570.5C390.9 569.5 399.1 568.3 407.2 566.8C415.3 565.3 423.4 563.5 431.4 561.6C439.4 559.7 447.3 557.4 455.2 555H455.3C457.7 554.3 460.2 555.7 460.9 558C461.6 560.4 460.2 562.9 457.9 563.6C457.8 563.6 457.7 563.7 457.6 563.7C449.4 565.5 441.2 567.3 432.9 568.7C424.6 570.1 416.3 571.3 408 572.3C399.7 573.2 391.3 573.9 383 574.3C374.7 574.7 366.3 574.7 358 574.9C357.4 574.9 357 574.5 357 573.9C357 573.4 357.4 573 357.9 572.9Z" fill="white"/>
<path d="M490.5 717.4C485.7 719.6 480.7 721.7 475.5 723.6C469.5 725.8 463.2 727.9 456.7 729.8C452.1 731.1 447.4 732.4 442.6 733.6C402.7 743.4 355.7 747.7 308.9 747.7C303.6 747.7 298.3 747.7 293 747.5C270.8 747.1 248.8 745.7 227.9 743.5C181.1 738.6 139.4 729.8 111.6 718.4C118.6 714.4 163.6 684.4 173.6 584.4C255.6 610.4 422.6 608.4 461.6 584.4C485.5 614.4 495.5 664.4 490.5 717.4Z" fill="#0A2342"/>
<path opacity="0.15" d="M442.5 733.6C402.6 743.4 355.6 747.7 308.8 747.7C314.9 720.8 318.4 689.3 317.4 673.4C352.4 675.4 410.4 672.4 443.4 661.4C445.4 668 448.2 709.7 442.5 733.6Z" fill="white"/>
<path d="M475.4 723.6C469.4 725.8 463.1 727.9 456.6 729.8C459.5 707.6 459 690 458.1 678.8C457 665.4 454.9 657.9 454.9 657.8L472.2 652.8C472.5 654.1 479.8 680 475.4 723.6Z" fill="white"/>
<g opacity="0.15">
<path d="M303.7 673C303.5 683.6 299.2 724.5 292.9 747.5C270.7 747.1 248.7 745.7 227.8 743.5C240 723 249.8 683 254.3 665.4C254.3 665.4 283.5 672.4 303.7 673Z" fill="white"/>
</g>
<g opacity="0.15">
<path d="M334.3 654.8C310.1 654.8 283.2 652.9 257.2 647L263.7 617.7C338.4 634.4 431.7 617.6 455.1 606.7L467.7 633.9C450.7 641.8 416.4 649.1 380.3 652.5C367.3 653.8 351.5 654.8 334.3 654.8Z" fill="white"/>
</g>
</svg>
