<svg width="179" height="248" viewBox="0 0 179 248" fill="none" xmlns="http://www.w3.org/2000/svg">
<rect opacity="0.08" x="70.1726" y="185.864" width="45.305" height="22.2499" rx="11.1249" transform="rotate(-29.6516 70.1726 185.864)" fill="#0A2342"/>
<path opacity="0.08" d="M112.471 228.329C106.964 225.471 106.666 217.704 111.937 214.432L140.822 196.499C143.142 195.059 146.036 194.901 148.499 196.081L164.04 203.529C169.722 206.252 170.172 214.169 164.837 217.519L135.588 235.882C133.186 237.389 130.166 237.513 127.649 236.207L112.471 228.329Z" fill="#0A2342"/>
<g clip-path="url(#clip0_13123_10325)">
<path d="M66.1302 84.8445C63.9714 83.1222 59.8697 81.7332 57.1336 82.0898C56.6903 82.122 56.2609 82.2587 55.8806 82.4887C55.6939 82.6085 55.5449 82.7788 55.451 82.9798C55.3572 83.1808 55.3222 83.4043 55.3502 83.6244C55.4108 83.8279 55.5243 84.0117 55.6794 84.1569C55.8345 84.302 56.0254 84.4033 56.2326 84.4503C56.6491 84.5411 57.079 84.5522 57.4997 84.4831C57.6076 84.4831 57.7484 84.4174 57.7202 84.3142L62.127 87.2096L66.1302 84.8445Z" fill="#F1F1F9"/>
<path d="M99.315 172.871L93.7726 169.717C91.7593 168.549 88.981 168.713 85.907 170.487L91.4541 173.64C94.5234 171.866 97.3064 171.702 99.315 172.871Z" fill="#32272D"/>
<path d="M99.3152 172.871L93.7727 169.717C93.4214 169.518 93.0481 169.361 92.6604 169.248L98.2077 172.401C98.5939 172.514 98.9655 172.672 99.3152 172.871Z" fill="#32272D"/>
<path d="M98.2076 172.387L92.6603 169.234C91.5805 168.922 90.4394 168.886 89.3423 169.131L94.8895 172.284C95.9867 172.04 97.1277 172.075 98.2076 172.387Z" fill="#32272D"/>
<path d="M94.8895 172.284L89.3422 169.131C88.1311 169.393 86.9709 169.851 85.907 170.487L91.4541 173.64C92.518 173.005 93.6784 172.547 94.8895 172.284Z" fill="#32272D"/>
<path d="M78.1118 196.658L83.6591 199.812C81.6739 198.657 80.4443 196.208 80.4349 192.726C80.4349 185.71 85.3485 177.164 91.4542 173.64L85.9071 170.487C79.8061 174.011 74.869 182.556 74.8877 189.572C74.8971 193.054 76.1267 195.485 78.1118 196.658Z" fill="#32272D"/>
<path d="M91.4541 173.64L85.907 170.487C82.359 172.537 79.2052 176.282 77.1919 180.435L82.7345 183.589C84.7525 179.436 87.8968 175.691 91.4541 173.64Z" fill="#32272D"/>
<path d="M82.7346 183.589L77.192 180.435C76.4379 181.977 75.848 183.594 75.4321 185.259L80.9794 188.413C81.3957 186.748 81.984 185.132 82.7346 183.589Z" fill="#32272D"/>
<path d="M80.9793 188.413L75.4321 185.259C75.0777 186.67 74.895 188.118 74.8877 189.572C74.8877 193.054 76.1266 195.504 78.1118 196.658L83.659 199.812C81.6739 198.657 80.4442 196.208 80.4348 192.726C80.4421 191.271 80.625 189.823 80.9793 188.413Z" fill="#32272D"/>
<path d="M91.4542 173.64C85.3532 177.164 80.4161 185.71 80.4349 192.726C80.4536 199.741 85.419 202.58 91.5247 199.042C97.6304 195.504 102.563 186.977 102.544 179.961C102.525 172.946 97.5599 170.116 91.4542 173.64Z" fill="#4B3D46"/>
<path d="M86.0852 195.673C84.513 194.767 83.6448 192.923 83.6401 190.478C83.6401 185.719 86.9816 179.905 91.1209 177.516C93.2609 176.282 95.3118 176.109 96.8887 177.01C98.4656 177.911 99.3291 179.76 99.3385 182.209C99.3385 186.963 95.997 192.777 91.8577 195.166C90.7852 195.831 89.5569 196.203 88.2956 196.245C87.5213 196.252 86.7588 196.055 86.0852 195.673ZM91.8108 178.713C88.0563 180.881 85.0105 186.156 85.0199 190.473C85.0199 192.406 85.6487 193.824 86.7751 194.471C87.9014 195.119 89.469 194.941 91.1679 193.969C94.9223 191.801 97.9681 186.526 97.954 182.209C97.954 180.276 97.3252 178.859 96.1988 178.211C95.734 177.948 95.2076 177.814 94.6736 177.821C93.6582 177.866 92.6718 178.173 91.8108 178.713Z" fill="#32272D"/>
<path d="M91.4778 181.942C89.3612 183.167 87.653 186.123 87.6624 188.549C87.6718 190.975 89.3894 191.961 91.5013 190.741C93.6132 189.52 95.3214 186.559 95.3167 184.133C95.312 181.707 93.5897 180.722 91.4778 181.942Z" fill="#32272D"/>
<path d="M103.844 91.4659C103.844 91.5692 103.811 91.6677 103.802 91.7663C103.436 93.9812 101.798 96.1258 98.8881 97.8152C92.2004 101.696 81.3265 101.696 74.592 97.8152C71.6822 96.1352 70.0255 94.0047 69.6219 91.8132C69.5192 91.2751 69.4955 90.725 69.5516 90.1801C69.7815 87.8338 71.4289 85.5437 74.5169 83.7605C81.1999 79.8749 92.0784 79.8749 98.8083 83.7605C102.474 85.8722 104.154 88.7019 103.844 91.4659Z" fill="#D9D9D9"/>
<path d="M64.4829 95.6143L71.3537 175.912C71.3537 178.258 72.8929 180.567 75.9481 182.341C82.1007 185.916 92.1064 185.916 98.2966 182.341C101.413 180.543 102.99 178.183 102.962 175.822L109.635 95.4876C109.635 98.8523 107.425 102.226 102.971 104.798C94.1244 109.904 79.8293 109.904 71.0579 104.798C66.6793 102.259 64.4923 98.9415 64.4829 95.6143Z" fill="#D9D9D9"/>
<path d="M64.4829 95.6143L71.3537 175.912C71.3606 176.742 71.5513 177.561 71.9121 178.31L65.276 99.04C64.7634 97.9701 64.4926 96.8006 64.4829 95.6143Z" fill="#D9D9D9"/>
<path d="M65.2761 99.04L71.9122 178.31C72.7353 179.894 73.9961 181.208 75.5447 182.097L70.462 104.446C67.9324 102.865 66.2007 101.002 65.2761 99.04Z" fill="#D9D9D9"/>
<path d="M70.4619 104.446L75.5446 182.097C75.676 182.181 75.8073 182.261 75.9481 182.341C78.7264 183.955 82.2885 184.842 85.935 184.997L85.3062 108.59C80.1016 108.369 75.0095 107.102 71.0439 104.798C70.8467 104.681 70.6543 104.568 70.4619 104.446Z" fill="#F1F1F1"/>
<path d="M85.3062 108.59L85.935 184.997C88.4214 185.108 90.9112 184.87 93.3313 184.288L95.8797 107.576C92.4207 108.411 88.8608 108.752 85.3062 108.59Z" fill="#D9D9D9"/>
<path d="M95.8797 107.576L93.3313 184.288C95.0682 183.871 96.7392 183.215 98.2966 182.341C101.413 180.543 102.99 178.183 102.962 175.822L109.635 95.4876C109.635 98.8523 107.425 102.226 102.971 104.798C100.748 106.05 98.3613 106.985 95.8797 107.576Z" fill="#CBCDD1"/>
<path d="M71.147 86.3039C62.3005 91.4096 62.2301 99.6875 71.0437 104.798C79.8573 109.908 94.1243 109.904 102.957 104.798C111.789 99.6922 111.85 91.4096 103.06 86.3039C94.2698 81.1982 79.9934 81.1982 71.147 86.3039Z" fill="#F1F1F1"/>
<path d="M61.611 91.832C61.7565 94.7274 62.3572 97.6463 61.916 100.518C61.7389 101.549 61.48 102.564 61.1417 103.554C61.0372 103.943 60.8639 104.31 60.6301 104.638C60.5008 104.811 60.3357 104.954 60.1461 105.056C59.9566 105.159 59.7471 105.22 59.5319 105.234C59.3226 105.252 59.1137 105.196 58.9419 105.075C58.7702 104.954 58.6467 104.776 58.5933 104.573C58.3813 104.789 58.1267 104.959 57.8456 105.072C57.5644 105.185 57.263 105.239 56.9601 105.23C56.6646 105.231 56.376 105.141 56.1327 104.973C55.8895 104.806 55.7034 104.568 55.5992 104.291C55.3606 104.528 55.0626 104.697 54.7365 104.78C54.4104 104.862 54.0681 104.856 53.7454 104.76C53.4364 104.681 53.1591 104.509 52.9509 104.268C52.7428 104.026 52.6138 103.726 52.5815 103.409C52.1122 103.836 51.2299 103.653 50.8122 103.184C50.4559 102.696 50.2891 102.096 50.3429 101.494C50.2913 96.7406 52.9663 93.3383 53.919 88.6597C54.8576 88.5424 55.5288 88.0731 56.3031 88.5377C57.2582 89.1056 58.3022 89.5086 59.3912 89.7296L61.611 91.832Z" fill="#C9C9EC"/>
<path d="M59.1797 64.0323C60.1512 59.0392 61.1415 54.553 61.2588 54.0227C61.3339 53.7036 62.1129 49.4567 62.5165 49.4989L74.8921 50.7706C74.7044 52.6008 74.085 54.5483 73.8128 56.1907C73.5688 57.6502 71.9356 66.3083 66.6606 70.039C66.6606 70.039 61.4699 68.0023 59.1797 64.0323Z" fill="#4B3D46"/>
<path d="M74.8876 29.3014C70.4104 27.6636 67.7963 32.0419 66.2569 34.9655C64.1356 39.1422 62.8114 43.6778 62.3523 48.3397C62.1845 49.5023 62.2436 50.6863 62.5259 51.8265C62.8252 52.7597 63.2634 53.6424 63.8259 54.445C65.0743 56.3549 66.8623 58.1992 69.1525 58.5042C69.8624 58.5677 70.5776 58.5346 71.2785 58.4057C72.2525 58.2964 73.1911 57.9761 74.0287 57.4671C75.4132 56.5286 75.9763 54.8439 76.4597 53.2437C77.7184 49.2955 78.66 45.2532 79.2755 41.1552C79.8481 36.8191 80.3785 31.3099 74.8876 29.3014Z" fill="#D9D9D9"/>
<path d="M53.5434 88.838C53.1539 93.7372 59.9496 95.7222 62.3149 89.4528C64.8445 82.7609 65.7784 77.505 67.9466 71.686C68.4159 70.4096 69.5422 67.7864 69.1526 66.4161C68.7349 64.9379 66.3369 65.8811 65.2387 64.7127C64.6661 64.1073 64.2109 62.1317 63.9622 61.3386C63.3239 59.3207 60.2405 57.4014 58.7998 58.7482C56.2937 61.0805 54.1629 81.0152 53.5434 88.838Z" fill="#D9D9D9"/>
<path d="M53.8296 85.9849C53.7217 87.0548 53.6654 87.3926 53.5997 88.2326C53.3932 90.8371 55.5098 92.1605 57.617 92.3153C59.4942 92.4561 61.2306 92.3904 62.3381 89.4528C62.6103 88.7442 62.8685 88.0027 63.1267 87.2519C60.4328 88.7348 56.5328 87.6742 53.8296 85.9849Z" fill="#4B3D46"/>
<path d="M76.7741 7.77585L76.4362 14.5099C76.4276 14.5636 76.4054 14.6142 76.3717 14.6569C76.338 14.6997 76.294 14.733 76.2438 14.7539C74.437 15.6925 73.5031 16.9924 73.428 18.3439L73.7659 11.6098C73.8222 10.2583 74.7608 8.95842 76.5817 8.01988C76.6319 7.99897 76.676 7.96555 76.7097 7.92284C76.7434 7.88013 76.7655 7.82955 76.7741 7.77585Z" fill="#F1F1F9"/>
<path d="M74.0709 12.4967C74.1225 11.2062 75.0096 9.95794 76.746 9.06163C76.7921 9.04339 76.8318 9.0123 76.8607 8.97204C76.8896 8.93177 76.9062 8.88403 76.9087 8.83455C76.9112 8.78507 76.8994 8.73595 76.8747 8.693C76.85 8.65006 76.8134 8.6151 76.7694 8.59236C76.6423 8.52046 76.5002 8.47922 76.3544 8.47189C76.2086 8.46456 76.0631 8.49135 75.9294 8.55014C73.2497 9.95796 72.3298 12.0744 73.1933 14.05C73.5078 13.8294 73.8363 13.623 74.1742 13.4306C74.0918 13.1265 74.0568 12.8115 74.0709 12.4967Z" fill="#4B3D46"/>
<path d="M110.325 67.6503C108.917 71.3247 105.069 82.9721 103.844 91.4659C103.844 91.5691 103.811 91.6677 103.802 91.7662C103.436 93.9812 101.798 96.1258 98.888 97.8152C92.2003 101.696 81.3264 101.696 74.5918 97.8152C71.6821 96.1352 70.0254 94.0047 69.6218 91.8132C69.6218 91.6958 69.6218 91.6067 69.6218 91.5363C69.6241 91.4925 69.6241 91.4487 69.6218 91.4049C69.5937 91.0013 69.5749 90.5978 69.5515 90.1942C69.1901 83.6244 69.1197 77.3783 68.0591 70.4003C67.9887 69.931 67.6367 63.5864 67.327 58.1053C67.1345 54.7125 66.9609 51.6435 66.8576 50.4984C66.8576 50.2685 66.8295 50.1183 66.8201 50.0292H66.8764L108.298 40.0571C108.298 40.0571 111.043 42.8727 111.855 44.0647L111.907 44.1398C112.261 44.6691 112.575 45.2244 112.845 45.801C113.479 47.1886 113.88 48.6709 114.033 50.1887C114.69 56.0265 112.259 62.5259 110.325 67.6503Z" fill="#D9D9D9"/>
<path d="M97.4096 69.5227C103.173 63.7413 104.374 60.4094 104.693 58.2602C104.904 56.8524 102.502 57.2935 102.816 55.9138C103.285 53.7176 102.844 51.4557 103.323 49.2596C104.679 43.0792 109.832 45.3927 110.639 45.5476C111.287 45.6743 115.004 47.5795 115.004 47.5795C114.042 45.2544 112.577 43.171 110.714 41.479C105.529 36.6783 92.449 31.5398 85.1653 29.2779C73.7611 25.7114 72.1608 29.8692 68.8803 38.959C67.1392 43.7925 66.8294 49.1328 66.8247 54.2244C66.8247 58.8186 70.0395 66.1393 70.0395 66.1393C70.8194 67.0029 71.6984 67.7715 72.6583 68.4293C85.9069 76.4633 88.779 75.6984 88.779 75.6984C92.4959 74.0888 94.4811 72.4651 97.4096 69.5227Z" fill="#2CA58D"/>
<path d="M98.109 36.8097C97.9682 46.0216 79.3788 48.0723 81.0496 36.852C82.8189 24.9137 83.0817 23.3416 88.8495 21.7414C90.4288 21.2629 92.0708 21.024 93.7209 21.0328C99.7187 21.2064 97.2548 24.1394 96.931 26.2511C95.9642 32.5206 98.1606 33.4967 98.109 36.8097Z" fill="#4B3D46"/>
<path d="M76.4785 6.46654C75.1139 8.39526 74.3335 10.676 74.2305 13.0364C74.1889 14.0797 74.319 15.1229 74.6154 16.1242C74.897 17.0627 75.446 17.9731 75.4038 18.9915C75.3615 20.1834 74.4652 21.4692 73.9959 22.572C73.5969 23.5716 73.3436 24.6978 73.6955 25.7114C73.9461 26.2749 74.246 26.8151 74.5919 27.3257C76.0467 29.8739 74.3901 33.4263 77.0464 35.355C77.7317 35.7795 78.5168 36.0158 79.3226 36.0401C80.3363 36.1387 84.9542 35.1015 86.7751 34.3789C88.7697 33.6093 91.2805 32.7318 92.7682 31.1925C93.9321 29.9912 94.8519 28.0109 95.7952 25.0263C96.5799 25.011 97.3487 24.8021 98.0331 24.4182C98.7176 24.0342 99.2966 23.487 99.7187 22.8254C101.676 20.1885 102.705 16.9769 102.642 13.6933C102.666 10.7839 102.38 8.29202 100.624 5.71571C99.2329 3.74428 97.334 2.186 95.1288 1.20601C91.7759 -0.165422 88.0544 -0.347579 84.5835 0.689822C81.3037 1.6382 78.4449 3.67571 76.4785 6.46654Z" fill="#D9D9D9"/>
<path d="M95.2931 6.60265C93.4721 3.4069 87.8639 1.23886 83.6824 0.971379C89.6754 -0.86817 92.8901 0.229924 95.1194 1.20132C97.3297 2.17917 99.2337 3.73762 100.629 5.71102C102.384 8.27325 102.671 10.7651 102.647 13.6887C102.709 16.9722 101.681 20.1838 99.7233 22.8207C99.3013 23.4824 98.7222 24.0295 98.0378 24.4135C97.3533 24.7974 96.5845 25.0063 95.7998 25.0216C95.7482 25.1858 95.6967 25.3501 95.6403 25.4909C95.7543 24.4369 96.0429 23.4092 96.4944 22.45C99.3009 17.1613 98.2075 11.7271 95.2931 6.60265Z" fill="#4B3D46"/>
<path d="M89.5675 16.7952C89.44 16.7241 89.2977 16.6837 89.1519 16.6772C89.0061 16.6707 88.8608 16.6982 88.7275 16.7577C86.7786 17.6298 84.6517 18.0311 82.5189 17.9292C80.3862 17.8273 78.3073 17.225 76.4503 16.1711C75.376 15.565 74.565 14.5817 74.1743 13.4118C73.8364 13.6042 73.5078 13.8107 73.1934 14.0312C73.723 15.1101 74.5566 16.0105 75.5916 16.6216C79.346 19.029 85.6113 19.3246 89.5488 17.2833C89.7835 17.1613 89.7974 16.9407 89.5675 16.7952Z" fill="#4B3D46"/>
<path d="M100.803 17.5039L99.7749 16.9595C99.0193 16.5606 97.9962 16.6592 96.8887 17.3584L97.9117 17.898C99.0193 17.2035 100.042 17.1003 100.803 17.5039Z" fill="#258F7A"/>
<path d="M100.803 17.5039L99.7749 16.9595C99.3852 16.7627 98.9458 16.6859 98.5125 16.739L99.5402 17.2833C99.9736 17.228 100.414 17.3048 100.803 17.5039Z" fill="#258F7A"/>
<path d="M99.5403 17.2833L98.5126 16.739C98.2212 16.776 97.9357 16.8501 97.6631 16.9595L98.6863 17.5039C98.9596 17.3917 99.2469 17.3175 99.5403 17.2833Z" fill="#258F7A"/>
<path d="M98.6862 17.5039L97.663 16.9595C97.3922 17.0662 97.1328 17.1999 96.8887 17.3584L97.9117 17.898C98.158 17.7446 98.4172 17.6127 98.6862 17.5039Z" fill="#258F7A"/>
<path d="M94.3873 27.1098L95.4104 27.6542C94.6642 27.2553 94.1762 26.3684 94.1245 25.0873C94.0166 22.5016 95.7107 19.2871 97.9118 17.898L96.8887 17.3584C94.6877 18.7428 92.9887 21.9572 93.0967 24.5429C93.153 25.8287 93.6411 26.711 94.3873 27.1098Z" fill="#258F7A"/>
<path d="M97.9117 17.898L96.8887 17.3584H96.8511L97.8742 17.9027L97.9117 17.8746V17.898Z" fill="#258F7A"/>
<path d="M97.8744 17.9262L96.8512 17.3818C96.5448 17.5787 96.256 17.8017 95.9878 18.0482L97.0156 18.5926C97.2809 18.3447 97.5684 18.1217 97.8744 17.9262Z" fill="#258F7A"/>
<path d="M97.0061 18.5926L95.9783 18.0482C95.6806 18.3189 95.4045 18.6123 95.1523 18.9258L96.1801 19.4701C96.4322 19.1566 96.7084 18.8632 97.0061 18.5926Z" fill="#258F7A"/>
<path d="M96.1895 19.4701L95.1617 18.9258C94.5459 19.6941 94.0476 20.5497 93.6833 21.4645L94.7112 22.0088C95.0736 21.0931 95.5719 20.2373 96.1895 19.4701Z" fill="#258F7A"/>
<path d="M94.7112 22.0089L93.6833 21.4645C93.5511 21.7987 93.4383 22.1403 93.3455 22.4875L94.3732 23.0319C94.4639 22.684 94.5768 22.3423 94.7112 22.0089Z" fill="#258F7A"/>
<path d="M94.3731 23.0319L93.3454 22.4875C93.2522 22.839 93.1833 23.1965 93.1389 23.5575L94.162 24.1018C94.2056 23.7404 94.2762 23.3828 94.3731 23.0319Z" fill="#258F7A"/>
<path d="M94.162 24.1018L93.1389 23.5575C93.1018 23.8846 93.0876 24.2139 93.0966 24.5429L94.1245 25.1014C94.1113 24.7677 94.1238 24.4336 94.162 24.1018Z" fill="#258F7A"/>
<path d="M94.1245 25.1014L93.1013 24.557C93.1112 24.8851 93.1585 25.211 93.2421 25.5284L94.2652 26.0728C94.1838 25.7549 94.1367 25.4293 94.1245 25.1014Z" fill="#258F7A"/>
<path d="M93.3595 23.351L92.313 22.8817C92.3991 23.2062 92.5515 23.5092 92.7608 23.7718C92.97 24.0343 93.2314 24.2505 93.5285 24.4068L94.5798 24.8761C94.2815 24.7208 94.0188 24.5049 93.8087 24.2423C93.5986 23.9797 93.4456 23.6761 93.3595 23.351Z" fill="#258F7A"/>
<path d="M97.9118 17.898C95.7107 19.3059 94.0166 22.5016 94.1245 25.0873C94.2325 27.673 96.1003 28.6444 98.3013 27.2554C100.502 25.8663 102.197 22.6518 102.089 20.0708C101.981 17.4898 100.113 16.5137 97.9118 17.898Z" fill="#F2F2F2"/>
<path d="M98.1371 19.0853C97.2803 19.6897 96.5787 20.4882 96.0893 21.4154C95.5999 22.3427 95.3367 23.3726 95.3213 24.4209C95.4011 26.3356 96.7903 27.0536 98.4188 26.0305C99.275 25.4256 99.9764 24.627 100.466 23.6999C100.955 22.7727 101.218 21.7431 101.235 20.6949C101.16 18.7803 99.7703 18.0576 98.1371 19.0853Z" fill="#258F7A"/>
<path d="M98.203 20.5823C97.7157 20.9264 97.3166 21.3808 97.0385 21.9084C96.7604 22.4361 96.611 23.0221 96.6025 23.6185C96.6495 24.7025 97.4379 25.1155 98.3671 24.557C98.853 24.2119 99.2507 23.7572 99.5279 23.2296C99.8052 22.7021 99.9542 22.1167 99.9629 21.5208C99.9206 20.4087 99.1275 20.0004 98.203 20.5823Z" fill="#F2F2F2"/>
<path d="M104.623 44.1773C101.704 46.4721 99.376 53.9241 99.2352 57.8379C99.0521 62.9999 102.22 67.0872 102.605 72.2633C102.661 73.0188 103.59 70.2829 104.29 70.5786C104.681 70.7126 105.109 70.6924 105.486 70.5223C106.974 69.9638 107.875 68.481 108.659 67.1013C110.968 63.0374 115.581 49.4473 115.581 49.4473C115.581 49.4473 114.643 46.3735 113.835 45.3224C111.245 41.9858 108.002 41.5306 104.623 44.1773Z" fill="#4B3D46"/>
<path d="M89.7318 17.0487L89.408 23.4965C89.401 23.549 89.3798 23.5986 89.3467 23.6399C89.3136 23.6813 89.2699 23.7128 89.2202 23.7311C85.2874 25.7771 79.0174 25.4768 75.2677 23.0694C73.3904 21.8587 72.4846 20.3382 72.5597 18.846L72.8836 12.3935C72.8086 13.867 73.7049 15.3874 75.5916 16.6169C79.346 19.0243 85.6113 19.3199 89.5488 17.2786C89.596 17.2584 89.6373 17.2269 89.6692 17.1867C89.7012 17.1466 89.7227 17.0992 89.7318 17.0487Z" fill="#F2F2F2"/>
<path d="M87.8312 19.8314L87.7045 22.5204C83.8186 23.7874 78.6281 23.2947 75.3571 21.1923C74.2827 20.5673 73.4283 19.6246 72.9119 18.494C72.7123 18.0162 72.6211 17.5002 72.6445 16.983L72.7945 14.294C72.7242 15.7722 73.6205 17.288 75.5025 18.494C78.6703 20.5306 83.6309 21.061 87.4651 19.9347C87.5919 19.9065 87.7092 19.869 87.8312 19.8314Z" fill="#CACACA"/>
<path d="M87.4651 19.9347L87.3525 22.2811C83.4713 23.5481 78.2901 22.7973 75.0191 20.6996C74.142 20.1457 73.4176 19.381 72.9119 18.4753C72.7123 17.9975 72.6211 17.4814 72.6445 16.9642L72.7945 14.2753C72.7242 15.7535 73.6205 17.2693 75.5025 18.4753C78.6703 20.5307 83.6309 21.061 87.4651 19.9347Z" fill="#258F7A"/>
<path d="M78.304 59.7243L82.0538 69.3867L74.5496 65.0553L78.304 59.7243Z" fill="#F2F2F2"/>
<path d="M27.8863 199.868L40.1024 193.289L40.0977 195.138L27.8816 201.717L27.8863 199.868Z" fill="#FFC040"/>
<path d="M0.00488281 183.772L12.221 177.188L40.1026 193.289L27.8865 199.868L0.00488281 183.772Z" fill="#FFC040"/>
<path d="M27.8863 199.868L27.8816 201.717L0 185.621L0.00469309 183.772L27.8863 199.868Z" fill="#FFC040"/>
<path d="M27.8863 198.268L40.1024 191.688L40.0977 193.537L27.8816 200.117L27.8863 198.268Z" fill="#261D22"/>
<path d="M0.00488281 182.172L12.221 175.592L40.1026 191.688L27.8865 198.268L0.00488281 182.172Z" fill="#4B3D46"/>
<path d="M27.8863 198.268L27.8816 200.117L0 184.021L0.00469309 182.172L27.8863 198.268Z" fill="#32272D"/>
<path d="M32.7814 147.399L17.7635 185.546C17.6889 185.804 17.6839 186.077 17.7491 186.337C17.8142 186.598 17.947 186.836 18.1343 187.029C18.633 187.592 19.2576 188.029 19.9573 188.306C20.657 188.582 21.412 188.69 22.161 188.619C22.4331 188.609 22.6975 188.526 22.9262 188.378C23.155 188.23 23.3397 188.023 23.461 187.779L38.4506 149.637C38.3278 149.88 38.1427 150.085 37.9143 150.233C37.6859 150.38 37.4223 150.465 37.1507 150.477C36.4016 150.547 35.6467 150.44 34.947 150.163C34.2473 149.887 33.6227 149.449 33.124 148.886C32.9412 148.69 32.8133 148.449 32.7532 148.188C32.693 147.927 32.7027 147.655 32.7814 147.399Z" fill="#D9D9D9"/>
<path d="M32.7811 147.399L17.7632 185.546C17.6819 185.763 17.6689 186.001 17.7257 186.226L32.7154 148.084C32.6578 147.856 32.6726 147.617 32.7577 147.399H32.7811Z" fill="#D9D9D9"/>
<path d="M32.739 148.088L17.7493 186.231C17.8227 186.526 17.9623 186.8 18.1575 187.033C18.4998 187.445 18.9191 187.786 19.3918 188.038L34.3815 149.89C33.908 149.642 33.4884 149.302 33.1472 148.891C32.9546 148.656 32.8154 148.382 32.739 148.088Z" fill="#D9D9D9"/>
<path d="M34.3815 149.886L19.3918 188.033C19.7561 188.236 20.1438 188.393 20.5463 188.502L35.536 150.36C35.1335 150.251 34.7458 150.093 34.3815 149.89V149.886Z" fill="#D9D9D9"/>
<path d="M35.5266 150.35L20.5369 188.493C21.0687 188.645 21.6258 188.688 22.1747 188.619C22.4469 188.609 22.7113 188.526 22.94 188.378C23.1688 188.23 23.3535 188.023 23.4747 187.779L38.4644 149.637C38.3416 149.88 38.1565 150.085 37.9281 150.233C37.6997 150.38 37.4361 150.465 37.1644 150.477C36.6155 150.545 36.0584 150.502 35.5266 150.35Z" fill="#D9D9D9"/>
<path d="M34.0858 146.559C32.7107 146.76 32.2977 147.807 33.1472 148.905C33.6459 149.468 34.2705 149.906 34.9702 150.182C35.6699 150.458 36.4248 150.566 37.1739 150.496C38.5395 150.294 38.9572 149.252 38.1125 148.173C37.6168 147.605 36.9933 147.162 36.2933 146.881C35.5934 146.601 34.8368 146.49 34.0858 146.559Z" fill="#F2F2F2"/>
<path d="M63.1738 71.9864L33.4384 147.619C33.3792 147.821 33.3749 148.036 33.4261 148.24C33.4772 148.445 33.5819 148.632 33.7293 148.783C34.1207 149.224 34.6106 149.568 35.1594 149.785C35.7081 150.001 36.3003 150.086 36.8878 150.031C37.1009 150.023 37.3079 149.958 37.4871 149.842C37.6663 149.727 37.8112 149.565 37.9063 149.374L67.6463 73.7509C67.5498 73.942 67.4042 74.1041 67.2244 74.2204C67.0446 74.3367 66.8371 74.403 66.6232 74.4125C66.0353 74.4667 65.4429 74.3815 64.8941 74.1638C64.3453 73.9461 63.8556 73.602 63.4648 73.1596C63.3165 73.0074 63.2114 72.8186 63.1602 72.6124C63.1091 72.4063 63.1138 72.1902 63.1738 71.9864Z" fill="#4B3D46"/>
<path d="M63.1735 71.9864L33.4382 147.619C33.3726 147.79 33.3611 147.977 33.4053 148.154L63.1407 72.5355C63.0995 72.3577 63.1108 72.1718 63.1735 72.0005V71.9864Z" fill="#4B3D46"/>
<path d="M63.1407 72.5355L33.4053 148.159C33.4644 148.39 33.575 148.605 33.7291 148.788C33.995 149.113 34.3238 149.381 34.6959 149.576L64.4313 73.9433C64.0591 73.7484 63.7302 73.4802 63.4645 73.1549C63.3114 72.9718 63.2008 72.757 63.1407 72.5261V72.5355Z" fill="#665861"/>
<path d="M64.4312 73.9433L34.6958 149.567C34.9823 149.723 35.2863 149.844 35.6015 149.928L65.337 74.3093C65.0216 74.2237 64.7176 74.1008 64.4312 73.9433Z" fill="#665861"/>
<path d="M65.337 74.3046L35.6016 149.923C36.019 150.043 36.4566 150.077 36.8875 150.022C37.1006 150.014 37.3076 149.949 37.4868 149.833C37.666 149.717 37.8108 149.556 37.9059 149.365L67.646 73.7415C67.5495 73.9326 67.4039 74.0947 67.2241 74.211C67.0443 74.3273 66.8368 74.3936 66.6229 74.4031C66.192 74.4556 65.7549 74.4221 65.337 74.3046Z" fill="#4B3D46"/>
<path d="M64.1967 71.3247C63.1219 71.4843 62.7887 72.3055 63.4645 73.1502C63.8554 73.5927 64.3451 73.9367 64.8939 74.1544C65.4426 74.3721 66.035 74.4573 66.6229 74.4031C67.6977 74.2436 68.0309 73.427 67.3551 72.5777C66.9642 72.1352 66.4745 71.7912 65.9257 71.5735C65.377 71.3558 64.7846 71.2706 64.1967 71.3247Z" fill="#665861"/>
<path d="M94.9224 81.7989C94.4531 79.5652 101.023 61.7046 101.422 60.6816C101.521 60.4094 102.741 56.7304 103.084 56.8242L113.488 59.6868C113.089 61.2917 112.31 62.9388 111.86 64.3795C111.09 66.8338 104.412 87.0219 102.065 87.9417C98.5361 89.3213 95.7202 85.4451 94.9224 81.7989Z" fill="#32272D"/>
<path d="M111.315 44.1492C106.88 42.3237 104.074 46.6128 102.398 49.4895C100.094 53.5978 98.5773 58.1002 97.9258 62.7652C97.7114 63.9265 97.7226 65.1183 97.9587 66.2754C98.2216 67.2248 98.625 68.1295 99.1555 68.9596C100.338 70.9305 102.056 72.8827 104.318 73.2535C105.028 73.352 105.748 73.352 106.458 73.2535C107.444 73.1951 108.405 72.9211 109.274 72.451C110.682 71.5687 111.339 69.8935 111.888 68.3261C113.304 64.4099 114.402 60.3862 115.173 56.2939C115.99 51.8875 116.745 46.3923 111.315 44.1492Z" fill="#EEF8F6"/>
<path d="M68.8005 93.9062C63.8633 94.0845 62.1644 87.1721 68.5611 85.0698C75.3942 82.822 84.4003 81.1232 90.3371 79.1851C91.6418 78.7628 94.3262 77.7538 95.6872 78.2043C97.1514 78.6736 96.1049 81.0481 97.2265 82.2119C97.8085 82.8126 99.7749 83.3522 100.563 83.6197C102.563 84.3471 104.36 87.5241 102.943 88.9225C100.488 91.3628 76.6848 93.6246 68.8005 93.9062Z" fill="#EEF8F6"/>
<path d="M71.6634 93.7653C70.584 93.831 69.6126 93.878 68.7819 93.9061C63.8448 94.0845 62.1459 87.172 68.5426 85.0697C69.27 84.8304 70.0255 84.6004 70.7904 84.3705C69.2042 86.989 70.1006 90.9544 71.6634 93.7653Z" fill="#2CA58D"/>
<path d="M105.266 85.2058L104.89 84.3752C104.613 83.7652 103.928 83.3382 102.91 83.2396L103.285 84.0702C104.304 84.1734 104.984 84.6052 105.266 85.2058Z" fill="#2CA58D"/>
<path d="M105.266 85.2058L104.89 84.3752C104.743 84.0681 104.508 83.8116 104.215 83.6385L104.59 84.4644C104.885 84.6381 105.12 84.8965 105.266 85.2058Z" fill="#2CA58D"/>
<path d="M104.59 84.4738L104.215 83.6479C104.017 83.5276 103.804 83.4359 103.581 83.3757L103.957 84.2016C104.179 84.2638 104.392 84.3554 104.59 84.4738Z" fill="#2CA58D"/>
<path d="M103.956 84.2016L103.581 83.3757C103.362 83.312 103.137 83.2695 102.91 83.249L103.285 84.0796C103.512 84.101 103.737 84.1418 103.956 84.2016Z" fill="#2CA58D"/>
<path d="M96.687 88.106L97.0624 88.9318C96.7902 88.3265 96.9122 87.5241 97.4895 86.7263C98.1794 85.8605 99.0637 85.1696 100.071 84.7097C101.078 84.2498 102.179 84.0339 103.285 84.0796L102.91 83.249C101.804 83.2014 100.703 83.4165 99.6963 83.8765C98.6897 84.3366 97.8063 85.0285 97.1187 85.8957C96.5367 86.7169 96.4148 87.5006 96.687 88.106Z" fill="#2CA58D"/>
<path d="M103.285 84.0796L102.91 83.249H102.872L103.248 84.0749L103.285 84.0796Z" fill="#2CA58D"/>
<path d="M103.248 84.0749L102.872 83.249C102.588 83.2255 102.302 83.2255 102.018 83.249L102.394 84.0749C102.678 84.0514 102.963 84.0514 103.248 84.0749Z" fill="#2CA58D"/>
<path d="M102.394 84.0749L102.018 83.249C101.702 83.2743 101.388 83.3245 101.08 83.3992L101.46 84.2251C101.769 84.1545 102.083 84.1043 102.398 84.0749H102.394Z" fill="#2CA58D"/>
<path d="M101.464 84.2251L101.084 83.3992C100.335 83.58 99.6163 83.8727 98.9536 84.2673L99.3291 85.0932C99.993 84.6978 100.713 84.4051 101.464 84.2251Z" fill="#2CA58D"/>
<path d="M99.3526 85.0933L98.9771 84.2673C98.7351 84.4101 98.5017 84.5668 98.2778 84.7366L98.6533 85.5672C98.8772 85.3975 99.1106 85.2408 99.3526 85.098V85.0933Z" fill="#2CA58D"/>
<path d="M98.6297 85.5672L98.2542 84.7366C98.0283 84.9122 97.8136 85.1019 97.6113 85.3044L97.9868 86.1303C98.1891 85.9293 98.4038 85.7413 98.6297 85.5672Z" fill="#2CA58D"/>
<path d="M97.9869 86.1444L97.6114 85.3185C97.4315 85.502 97.2667 85.6997 97.1187 85.9098L97.4847 86.7451C97.6376 86.5332 97.8055 86.3324 97.9869 86.1444Z" fill="#2CA58D"/>
<path d="M97.4753 86.731L97.0998 85.9051C96.9493 86.1136 96.8233 86.3388 96.7244 86.5762L97.0998 87.4021C97.2026 87.1666 97.3284 86.9418 97.4753 86.731Z" fill="#2CA58D"/>
<path d="M97.8506 85.2809L97.4329 84.4738C97.3316 84.7169 97.2819 84.9783 97.2867 85.2417C97.2915 85.505 97.3509 85.7644 97.4611 86.0036L97.8741 86.8108C97.7667 86.5701 97.7112 86.3094 97.7112 86.0459C97.7112 85.7823 97.7667 85.5217 97.8741 85.2809H97.8506Z" fill="#2CA58D"/>
<path d="M103.285 84.0798C102.179 84.0342 101.078 84.2501 100.071 84.71C99.0636 85.1698 98.1793 85.8607 97.4894 86.7265C96.3208 88.3784 97.0201 89.8754 99.0475 90.0678C100.153 90.1132 101.253 89.8977 102.259 89.4387C103.265 88.9796 104.149 88.2901 104.839 87.4258C106.007 85.7692 105.313 84.2675 103.285 84.0798Z" fill="#DDDEFA"/>
<path d="M102.858 84.9196C102.038 84.8867 101.221 85.0476 100.474 85.3892C99.7272 85.7308 99.0713 86.2435 98.5596 86.8858C97.6961 88.1106 98.2123 89.2322 99.7094 89.3683C100.53 89.4029 101.347 89.2433 102.094 88.9024C102.841 88.5615 103.497 88.0491 104.008 87.4067C104.876 86.1772 104.36 85.0651 102.858 84.9196Z" fill="#2CA58D"/>
<path d="M102.168 85.8816C101.702 85.862 101.238 85.9531 100.814 86.1472C100.39 86.3413 100.018 86.633 99.728 86.9984C99.2352 87.6976 99.5262 88.3265 100.38 88.4062C100.847 88.4246 101.311 88.3332 101.736 88.1392C102.161 87.9452 102.534 87.6541 102.825 87.2894C103.328 86.6136 103.037 85.9613 102.168 85.8816Z" fill="#DDDEFA"/>
<path d="M109.593 62.174L102.605 68.1196L110.269 67.9038L109.593 62.174Z" fill="#2CA58D"/>
<path d="M68.2797 87.5522C68.7209 89.2275 68.0591 91.1656 68.932 92.6626C69.1027 92.9032 69.2446 93.1631 69.3545 93.4369C69.5891 94.23 68.3501 94.5444 67.801 94.8447C66.8834 95.3066 65.9168 95.6639 64.9194 95.91C62.7474 96.4538 60.5009 96.6376 58.2693 96.4543C57.7437 96.4074 57.1008 96.2431 56.9881 95.7269C56.9177 95.3938 57.1195 95.0324 56.9881 94.7086C56.7675 94.0704 55.8243 94.3144 55.172 94.1548C54.1676 93.9108 54.0221 92.212 54.9701 91.8085C54.13 91.663 53.229 91.4378 52.7034 90.7667C52.1778 90.0956 52.3654 88.8615 53.2008 88.6879C52.9666 88.7241 52.7275 88.7129 52.4977 88.6549C52.2679 88.597 52.0522 88.4935 51.8632 88.3506C51.6742 88.2076 51.5158 88.0282 51.3974 87.8229C51.2791 87.6176 51.2033 87.3906 51.1744 87.1554C51.1454 86.9203 51.1641 86.6817 51.2291 86.4538C51.2942 86.226 51.4043 86.0135 51.553 85.829C51.7018 85.6446 51.8861 85.4919 52.095 85.38C52.3039 85.2681 52.5331 85.1993 52.769 85.1776C53.473 85.1119 54.1394 85.4733 54.8293 85.6469C57.4621 86.271 59.9354 84.042 62.6339 83.8637C63.7908 83.7384 64.9581 83.9744 65.9753 84.5394C67.0369 85.2525 67.8324 86.2971 68.2374 87.51C68.2508 87.5248 68.2649 87.5389 68.2797 87.5522Z" fill="#D8E7E4"/>
<path d="M158.016 183.725L157.913 220.277C157.913 221.459 157.129 222.646 155.567 223.561L155.67 187.01C157.223 186.099 158.016 184.912 158.016 183.725Z" fill="#D9D9D9"/>
<path d="M158.016 183.725L157.913 220.277C157.892 221.054 157.586 221.797 157.054 222.365L157.157 185.813C157.69 185.246 157.996 184.503 158.016 183.725Z" fill="#D9D9D9"/>
<path d="M157.148 185.813L157.045 222.365C156.619 222.839 156.118 223.24 155.562 223.552L155.665 187C156.222 186.69 156.723 186.289 157.148 185.813Z" fill="#D9D9D9"/>
<path d="M104.614 224.646L104.717 188.094C104.717 189.295 105.505 190.497 107.092 191.416L106.988 227.968C105.402 227.048 104.609 225.847 104.614 224.646Z" fill="#D9D9D9"/>
<path d="M107.092 191.416L106.988 227.968C105.402 227.029 104.609 225.847 104.614 224.646L104.717 188.094C104.717 189.295 105.505 190.497 107.092 191.416Z" fill="#D9D9D9"/>
<path d="M155.665 187L155.562 223.552L133.218 236.537L133.321 199.985L155.665 187Z" fill="#D9D9D9"/>
<path d="M121.936 199.985L121.833 236.537L106.988 227.968L107.092 191.416L121.936 199.985Z" fill="#D9D9D9"/>
<path d="M133.321 199.985L133.218 236.537C130.083 238.358 124.986 238.358 121.833 236.537L121.936 199.985C125.09 201.806 130.186 201.806 133.321 199.985Z" fill="#D9D9D9"/>
<path d="M133.321 199.985L133.218 236.537C131.982 237.218 130.623 237.648 129.219 237.799L129.323 201.248C130.726 201.096 132.085 200.667 133.321 199.985Z" fill="#D9D9D9"/>
<path d="M129.323 201.248L129.219 237.799C126.638 238.118 123.841 237.696 121.833 236.537L121.936 199.985C123.945 201.144 126.742 201.567 129.323 201.248Z" fill="#D9D9D9"/>
<path d="M155.632 180.403C158.786 182.223 158.8 185.18 155.665 187.001L133.321 199.985C130.186 201.806 125.09 201.806 121.936 199.985L107.091 191.416C103.938 189.596 103.919 186.644 107.054 184.847L129.402 171.862C132.537 170.036 137.634 170.036 140.788 171.862L155.632 180.403Z" fill="#F2F2F2"/>
<path d="M156.514 183.716C156.514 184.391 155.932 185.123 154.919 185.71L147.935 189.769L132.57 198.685C131.036 199.452 129.344 199.852 127.628 199.852C125.913 199.852 124.221 199.452 122.687 198.685L114.793 194.129L107.842 190.116C106.805 189.516 106.214 188.784 106.209 188.099C106.205 187.413 106.791 186.691 107.805 186.109L130.153 173.124C131.689 172.359 133.382 171.961 135.098 171.961C136.813 171.961 138.506 172.359 140.042 173.124L154.886 181.693C155.918 182.298 156.51 183.03 156.514 183.716Z" fill="#CACACA"/>
<path d="M147.935 189.769L132.57 198.685C131.036 199.452 129.344 199.852 127.628 199.852C125.913 199.852 124.221 199.452 122.687 198.685L114.793 194.129L130.153 185.213C131.688 184.446 133.381 184.046 135.097 184.046C136.814 184.046 138.506 184.446 140.042 185.213L147.935 189.769Z" fill="#A1E4FF"/>
<path d="M154.834 202.055L131.266 215.664C130.534 216.086 128.304 217.376 124.179 211.909C121.213 207.963 114.999 196.893 114.934 196.785C114.75 196.475 114.453 196.249 114.105 196.155C113.758 196.062 113.387 196.108 113.073 196.284C112.759 196.459 112.525 196.751 112.423 197.096C112.321 197.442 112.358 197.813 112.526 198.132C112.784 198.601 118.899 209.474 121.973 213.566C124.639 217.114 127.244 218.897 129.75 218.897C130.771 218.884 131.77 218.601 132.645 218.076L156.214 204.467C156.865 204.086 157.456 203.611 157.969 203.059V196.531C157.599 198.812 156.524 201.074 154.834 202.055Z" fill="#32272D"/>
<path d="M160.452 191.576C159.798 189.726 158.967 187.944 157.969 186.254V193.045C158.16 194.187 158.16 195.352 157.969 196.494V203.021C160.644 200.121 161.489 195.109 160.452 191.576Z" fill="#32272D"/>
</g>
<defs>
<clipPath id="clip0_13123_10325">
<rect width="160.884" height="237.902" fill="white"/>
</clipPath>
</defs>
</svg>
