<svg width="78" height="71" viewBox="0 0 78 71" fill="none" xmlns="http://www.w3.org/2000/svg">
<g clip-path="url(#clip0_13123_10557)">
<path opacity="0.08" d="M69.1002 35.6854C80.9085 42.5671 80.9729 53.8263 69.2404 60.708L60.4958 65.8387C48.7557 72.7204 29.5056 72.7204 17.7011 65.8387L8.89978 60.708C-2.90853 53.8263 -2.96908 42.5671 8.75971 35.6854L17.5042 30.5547C29.2443 23.673 48.4944 23.673 60.2989 30.5547L69.1002 35.6854Z" fill="#0A2342"/>
<path d="M68.9487 36.3927L68.9146 48.3324C68.9146 52.3162 66.328 56.2923 61.1775 59.3126L61.2116 47.3729C66.3621 44.3526 68.9374 40.3764 68.9487 36.3927Z" fill="#32272D"/>
<path d="M68.9487 36.3927L68.9146 48.3324C68.9139 48.9371 68.8543 49.5403 68.7366 50.1332L68.7669 38.1934C68.8877 37.601 68.9486 36.9976 68.9487 36.3927Z" fill="#32272D"/>
<path d="M68.7669 38.1935L68.7366 50.1332C68.0852 53.4096 65.6728 56.5867 61.4994 59.1176L61.5334 47.1817C65.6993 44.647 68.1193 41.4699 68.7669 38.1935Z" fill="#32272D"/>
<path d="M61.5335 47.1817L61.4994 59.1176L61.1775 59.3126L61.2116 47.3729L61.5335 47.1817Z" fill="#32272D"/>
<path d="M3.67816e-05 48.1796L0.0341544 36.2398C0.0341544 40.2732 2.6435 44.3105 7.89248 47.3729L7.85836 59.3126C2.60938 56.2388 -0.0113246 52.213 3.67816e-05 48.1796Z" fill="#32272D"/>
<path d="M7.89248 47.3729L7.85836 59.3126C2.60938 56.2541 -0.0113246 52.213 3.67816e-05 48.1796L0.0341544 36.2398C0.0341544 40.2732 2.6435 44.3105 7.89248 47.3729Z" fill="#32272D"/>
<path d="M61.2116 47.3729L61.1776 59.3126L53.4518 63.8431L53.4859 51.9033L61.2116 47.3729Z" fill="#32272D"/>
<path d="M15.6713 51.9033L15.6372 63.8431L7.8584 59.3126L7.89248 47.3729L15.6713 51.9033Z" fill="#32272D"/>
<path d="M53.4858 51.9033L53.4517 63.8431C43.0863 69.9257 26.0707 69.9257 15.6371 63.8431L15.6712 51.9033C26.1048 57.986 43.1204 57.986 53.4858 51.9033Z" fill="#32272D"/>
<path d="M53.4858 51.9033L53.4517 63.8431C51.6094 64.9075 49.6608 65.7725 47.6384 66.4237L47.6725 54.484C49.6955 53.8344 51.6442 52.9693 53.4858 51.9033Z" fill="#32272D"/>
<path d="M47.6726 54.4839L47.6385 66.4237C42.1809 68.1299 36.447 68.7493 30.7554 68.2473L30.7895 56.3076C36.4811 56.8095 42.2151 56.1902 47.6726 54.4839Z" fill="#32272D"/>
<path d="M30.8008 56.3076L30.7667 68.2474C25.2299 67.7886 19.8938 66.3358 15.6484 63.8431L15.6826 51.9033C19.9279 54.3807 25.264 55.8488 30.8008 56.3076Z" fill="#32272D"/>
<path d="M61.098 25.2711C71.5316 31.3538 71.5884 41.3017 61.223 47.3843L53.4972 51.9148C43.1318 57.9974 26.1162 57.9974 15.6826 51.9148L7.90382 47.3843C-2.52976 41.3017 -2.5828 31.3538 7.78261 25.2711L15.5084 20.7407C25.8738 14.658 42.8894 14.658 53.323 20.7407L61.098 25.2711Z" fill="#32272D"/>
<path d="M34.588 53.9449C27.8544 53.9449 21.5716 52.4424 16.8982 49.7394L9.11944 45.2051C4.85891 42.7201 2.51089 39.5507 2.50331 36.2819C2.49574 33.0131 4.80966 29.901 9.00581 27.4389L16.7316 22.9046C21.3709 20.1864 27.631 18.6992 34.3645 18.6992C41.098 18.6992 47.3772 20.1978 52.0505 22.9046L59.8293 27.4389C64.0898 29.924 66.4417 33.0934 66.4455 36.3622C66.4493 39.631 64.1428 42.743 59.9467 45.2051L52.2361 49.7394C47.5969 52.4539 41.3329 53.9449 34.588 53.9449Z" fill="#32272D"/>
<path d="M68.9487 33.1048L68.9146 45.0445C68.9146 49.0283 66.328 53.0044 61.1775 56.0247L61.2116 44.0849C66.3621 41.0646 68.9374 37.0885 68.9487 33.1048Z" fill="#D9D9D9"/>
<path d="M68.9487 33.1048L68.9146 45.0445C68.9135 45.6492 68.8539 46.2523 68.7366 46.8453L68.7669 34.9055C68.8875 34.313 68.9484 33.7097 68.9487 33.1048Z" fill="#CACACA"/>
<path d="M68.7669 34.9055L68.7366 46.8453C68.0852 50.1217 65.6728 53.2988 61.4994 55.8297L61.5334 43.8899C65.6993 41.359 68.1193 38.1819 68.7669 34.9055Z" fill="#CACACA"/>
<path d="M61.5335 43.8899L61.4994 55.8297L61.1775 56.0246L61.2116 44.0849L61.5335 43.8899Z" fill="#CACACA"/>
<path d="M3.67816e-05 44.8916L0.0341544 32.9518C0.0341544 36.9853 2.6435 41.0225 7.89248 44.0849L7.85836 56.0246C2.60938 52.9623 -0.0113246 48.925 3.67816e-05 44.8916Z" fill="#D9D9D9"/>
<path d="M7.89248 44.0849L7.85836 56.0246C2.60938 52.9661 -0.0113246 48.925 3.67816e-05 44.8916L0.0341544 32.9518C0.0341544 36.9853 2.6435 41.0225 7.89248 44.0849Z" fill="#D9D9D9"/>
<path d="M61.2116 44.0849L61.1776 56.0209L53.4518 60.5551L53.4859 48.6154L61.2116 44.0849Z" fill="#CACACA"/>
<path d="M15.6713 48.6154L15.6372 60.5551L7.8584 56.0247L7.89248 44.0849L15.6713 48.6154Z" fill="#D9D9D9"/>
<path d="M11.0055 45.8971V57.856L13.2172 59.1444V47.1855L11.0055 45.8971Z" fill="#D9D9D9"/>
<path d="M53.4858 48.6154L53.4517 60.5551C43.0863 66.6378 26.0707 66.6378 15.6371 60.5551L15.6712 48.6154C26.1048 54.7095 43.1204 54.7095 53.4858 48.6154Z" fill="#D9D9D9"/>
<path d="M53.4858 48.6154L53.4517 60.5551C51.6094 61.6195 49.6608 62.4845 47.6384 63.1358L47.6725 51.196C49.6949 50.5448 51.6434 49.6798 53.4858 48.6154Z" fill="#CACACA"/>
<path d="M47.6726 51.196L47.6385 63.1358C42.1809 64.842 36.447 65.4614 30.7554 64.9594L30.7895 53.0196C36.4811 53.5216 42.2151 52.9022 47.6726 51.196Z" fill="#CACACA"/>
<path d="M30.8008 53.0196L30.7667 64.9594C25.2299 64.5006 19.8938 63.0478 15.6484 60.5551L15.6826 48.6154C19.9279 51.0928 25.264 52.5609 30.8008 53.0196Z" fill="#D9D9D9"/>
<path d="M61.098 21.9717C71.5316 28.0544 71.5884 38.0022 61.223 44.0849L53.4972 48.6154C43.1318 54.698 26.1162 54.698 15.6826 48.6154L7.90382 44.0849C-2.52976 38.0022 -2.5828 28.0544 7.78261 21.9717L15.5084 17.4375C25.8738 11.3586 42.8894 11.3586 53.323 17.4375L61.098 21.9717Z" fill="#F2F2F2"/>
<path d="M34.3797 17.0169C40.8179 17.0169 46.8281 18.4429 51.2591 21.0236L59.0379 25.5579C62.7796 27.7371 64.8435 30.4095 64.8473 33.0742C64.8511 35.739 62.8288 38.3463 59.1666 40.5026L51.4408 45.0369C47.044 47.6175 41.0679 49.0397 34.6184 49.0397C28.1689 49.0397 22.17 47.6137 17.7353 45.033L9.95647 40.4988C6.21477 38.3157 4.15084 35.6472 4.14705 32.9825C4.14326 30.3177 6.16931 27.7103 9.84663 25.5502L17.5725 21.0198C21.9693 18.4391 27.9454 17.0169 34.3949 17.0169H34.3797ZM34.3797 15.3882C27.6462 15.3882 21.386 16.8869 16.7468 19.5937L9.02105 24.128C4.8249 26.5901 2.51477 29.7289 2.51856 32.971C2.52235 36.213 4.87415 39.4092 9.13469 41.8942L16.9135 46.4285C21.5868 49.1506 27.8697 50.634 34.6032 50.634C41.3368 50.634 47.5969 49.1353 52.2362 46.4285L59.9619 41.8981C64.1581 39.4359 66.4644 36.2971 66.4606 33.0551C66.4568 29.813 64.105 26.6169 59.8445 24.1318L52.0657 19.5976C47.3924 16.8755 41.1133 15.3921 34.3797 15.3921V15.3882Z" fill="#2CA58D"/>
<path d="M68.5208 41.6037C67.6233 44.536 65.2979 47.3384 61.5335 49.6323C61.4274 49.6973 61.3215 49.7623 61.2116 49.8235L53.4858 54.3577C51.6434 55.4221 49.6949 56.2872 47.6726 56.9384C42.9872 58.4135 38.0878 59.0754 33.183 58.8958V61.6982C38.0764 61.8741 42.9639 61.2122 47.6385 59.7408C49.6608 59.0896 51.6094 58.2246 53.4518 57.1602L61.1775 52.6297L61.4995 52.4347C65.3131 50.1408 67.6498 47.2734 68.5208 44.299V41.6037Z" fill="#32272D"/>
<path d="M14.1375 35.953V38.2469C14.1375 39.7303 15.1069 41.2137 17.0384 42.3454C20.924 44.6393 27.2637 44.6393 31.1531 42.3454C33.1224 41.1984 34.107 39.6921 34.1033 38.1896L34.0843 35.8957C34.0843 37.3982 33.1072 38.9045 31.1379 40.0515C27.2258 42.3454 20.9127 42.3454 17.0195 40.0515C15.1184 38.9198 14.1375 37.4364 14.1375 35.953Z" fill="#32272D"/>
<path d="M14.1375 35.953V38.2469C14.1403 38.7768 14.2606 39.2994 14.4897 39.7762L14.4707 37.4823C14.2452 37.0042 14.125 36.4825 14.1185 35.953H14.1375Z" fill="#32272D"/>
<path d="M14.5162 37.4823L14.5352 39.7762C15.048 40.7845 15.8366 41.6231 16.8075 42.1924V39.8985C15.8298 39.3324 15.0333 38.4951 14.5125 37.4861L14.5162 37.4823Z" fill="#32272D"/>
<path d="M16.7885 39.8947V42.1886L17.046 42.3416C18.985 43.4031 21.1464 43.9836 23.3516 44.0352V41.7413C21.1455 41.6874 18.9834 41.1071 17.0422 40.0477C16.9551 39.998 16.8718 39.9444 16.7885 39.8909V39.8947Z" fill="#32272D"/>
<path d="M23.3593 41.7451V44.039C24.9303 44.112 26.5036 43.9602 28.0325 43.5879V41.294C26.5038 41.6673 24.9305 41.8204 23.3593 41.7489V41.7451Z" fill="#32272D"/>
<path d="M28.0325 41.2902V43.5841C29.13 43.3193 30.1854 42.9011 31.1683 42.3416C33.1376 41.1946 34.1222 39.6883 34.1185 38.1858L34.0995 35.8919C34.0995 37.3944 33.1224 38.9007 31.1531 40.0477C30.1703 40.6064 29.1148 41.0233 28.0173 41.2864L28.0325 41.2902Z" fill="#32272D"/>
<path d="M17.0953 31.7972C13.187 34.0911 13.1642 37.7729 17.0498 40.0515C20.9354 42.3301 27.2562 42.3454 31.1683 40.0515C35.0804 37.7576 35.0994 34.0758 31.2138 31.7972C27.3282 29.5186 21.0074 29.5148 17.0953 31.7972Z" fill="#665861"/>
<path d="M24.1658 31.694C26.5214 31.694 28.7975 32.2407 30.4146 33.185C31.7553 33.9726 32.5241 34.9666 32.5241 35.9071C32.5241 36.8476 31.7364 37.8646 30.373 38.6598C28.7445 39.608 26.4571 40.1547 24.1015 40.1547C21.7459 40.1547 19.466 39.608 17.8527 38.6598C16.5082 37.8952 15.7432 36.8821 15.7432 35.9416C15.7432 35.0011 16.5271 33.9841 17.8943 33.1889C19.5228 32.2407 21.8102 31.694 24.1658 31.694ZM24.1658 30.8911C21.6739 30.8911 19.2426 31.4761 17.4967 32.4931C15.8758 33.4374 14.9479 34.6914 14.9479 35.9339C14.9479 37.1765 15.8568 38.419 17.4512 39.3518C19.1857 40.3688 21.6171 40.9537 24.1015 40.9537C26.5858 40.9537 29.0247 40.3688 30.7706 39.3518C32.3877 38.4075 33.3155 37.1535 33.3193 35.911C33.3231 34.6684 32.4067 33.4298 30.8161 32.4969C29.0815 31.4799 26.6502 30.895 24.1658 30.895V30.8911Z" fill="#FFC040"/>
<path d="M45.5442 29.4154L37.1633 24.5332C35.2698 23.4322 35.2698 21.6315 37.1633 20.5304C39.0569 19.4293 42.1396 19.4293 44.0294 20.5304L52.4066 25.4164C54.3002 26.5137 54.3002 28.3144 52.4066 29.4154C50.513 30.5165 47.4302 30.5165 45.5442 29.4154Z" fill="#32272D"/>
<path d="M51.2059 26.6704C51.899 27.0757 51.899 27.7332 51.2059 28.1385C50.815 28.3384 50.3831 28.4425 49.9449 28.4425C49.5067 28.4425 49.0746 28.3384 48.6837 28.1385C47.9907 27.7332 47.9907 27.0757 48.6837 26.6704C49.0741 26.4687 49.5064 26.3636 49.9449 26.3636C50.3834 26.3636 50.8156 26.4687 51.2059 26.6704Z" fill="#2CA58D"/>
<path d="M58.5038 11.6492C58.2855 11.0657 57.8872 10.5684 57.3677 10.2308C56.8867 9.95171 56.4663 10.0129 56.2315 10.334C56.1057 10.5291 56.0435 10.759 56.0535 10.9916C56.0767 11.4505 56.2067 11.8973 56.4331 12.2959C56.6595 12.6945 56.9758 13.0335 57.3564 13.2855C58.0759 13.7022 58.6591 13.362 58.6591 12.5209C58.6606 12.2232 58.6079 11.9277 58.5038 11.6492Z" fill="#2CA58D"/>
<path d="M51.2515 0.588743L51.8953 1.71278C53.3041 0.894621 55.2431 1.00551 57.3866 2.25568C59.5301 3.50586 61.4729 5.65446 62.878 8.11658L63.5256 7.73426C61.9539 4.98158 59.7839 2.58063 57.3866 1.18518C54.9894 -0.210276 52.8231 -0.34407 51.2515 0.581136" fill="#2CA58D"/>
<path d="M53.1791 3.97611L53.8229 5.12306C54.7318 4.59164 55.9891 4.66425 57.3752 5.47093C58.8604 6.40971 60.0843 7.71496 60.9313 9.26353L61.5751 8.88121C60.576 7.0509 59.1303 5.50857 57.3752 4.40048C55.7391 3.43704 54.2546 3.34911 53.1791 3.97611Z" fill="#2CA58D"/>
<path d="M55.118 7.36727L55.7618 8.49508C56.1746 8.2504 56.7465 8.28482 57.3752 8.65185C58.0513 9.07762 58.6081 9.67127 58.9923 10.3761L59.6361 9.99378C59.0956 9.00661 58.3132 8.17596 57.3638 7.58134C56.4927 7.07286 55.6975 7.02701 55.118 7.36727Z" fill="#2CA58D"/>
</g>
<defs>
<clipPath id="clip0_13123_10557">
<rect width="78" height="71" fill="white"/>
</clipPath>
</defs>
</svg>
