<svg width="14" height="14" fill="none" xmlns="http://www.w3.org/2000/svg"><g clip-path="url(#clip0_13263_1087)"><path d="M7 4.4a2.628 2.628 0 00-2.625 2.625A2.628 2.628 0 007 9.65a2.628 2.628 0 002.625-2.625A2.628 2.628 0 007 4.4zm0 0a2.628 2.628 0 00-2.625 2.625A2.628 2.628 0 007 9.65a2.628 2.628 0 002.625-2.625A2.628 2.628 0 007 4.4zM11.525.6h-9.05C1.44.6.6 1.44.6 2.475v9.05c0 1.035.84 1.875 1.875 1.875h9.05c1.035 0 1.875-.84 1.875-1.875v-9.05C13.4 1.44 12.56.6 11.525.6zM7 10.4a3.38 3.38 0 01-3.375-3.375A3.38 3.38 0 017 3.65a3.38 3.38 0 013.375 3.375A3.38 3.38 0 017 10.4zm4.125-6.75a.752.752 0 01-.75-.75c0-.413.338-.75.75-.75.413 0 .75.337.75.75 0 .412-.337.75-.75.75zM7 4.4a2.628 2.628 0 00-2.625 2.625A2.628 2.628 0 007 9.65a2.628 2.628 0 002.625-2.625A2.628 2.628 0 007 4.4zm0 0a2.628 2.628 0 00-2.625 2.625A2.628 2.628 0 007 9.65a2.628 2.628 0 002.625-2.625A2.628 2.628 0 007 4.4zm0 0a2.628 2.628 0 00-2.625 2.625A2.628 2.628 0 007 9.65a2.628 2.628 0 002.625-2.625A2.628 2.628 0 007 4.4z" fill="#C9C9C9"/></g><defs><clipPath id="clip0_13263_1087"><path fill="#fff" transform="translate(.6 .6)" d="M0 0h12.8v12.8H0z"/></clipPath></defs></svg>