<svg width="188" height="27" fill="none" xmlns="http://www.w3.org/2000/svg"><g clip-path="url(#clip0_13604_14637)"><path d="M176.787 5.03v3.735h-8.06a1.245 1.245 0 00-1.24 1.245v17.43h-3.72V9.18c0-1.1.435-2.156 1.21-2.934A4.126 4.126 0 01167.9 5.03h8.887zm-48.774 0H98.666v22.41h3.721V8.765h11.16V27.44h3.72V8.765h9.506c.439 0 .859.175 1.169.486.31.312.485.734.485 1.174V27.44h3.72V9.18a4.16 4.16 0 00-1.211-2.934 4.126 4.126 0 00-2.923-1.216zm27.9 0h-18.187v3.735h16.947c.439 0 .859.175 1.169.486.31.312.484.734.484 1.174v3.942H140a4.126 4.126 0 00-2.923 1.216 4.16 4.16 0 00-1.211 2.934v4.773c0 1.1.436 2.156 1.211 2.934A4.126 4.126 0 00140 27.44h20.046V9.18c0-1.1-.435-2.156-1.21-2.934a4.126 4.126 0 00-2.923-1.216zM141.24 23.705a1.65 1.65 0 01-1.169-.486 1.664 1.664 0 01-.485-1.174v-2.698a1.246 1.246 0 011.24-1.245h15.5v5.603H141.24zM94.946 8.765v.415c0-.141 0-.278-.02-.415h.02zm-19.219 0h17.36V5.03H74.9a4.125 4.125 0 00-2.923 1.216 4.159 4.159 0 00-1.21 2.934v4.773c0 1.1.435 2.156 1.21 2.934a4.125 4.125 0 002.923 1.215h15.087a1.247 1.247 0 011.24 1.245v3.113c0 .33-.131.647-.364.88a1.237 1.237 0 01-.876.365h-19.22v3.735h20.046a4.125 4.125 0 002.923-1.216 4.159 4.159 0 001.21-2.934v-4.773c0-1.1-.435-2.156-1.21-2.934a4.125 4.125 0 00-2.923-1.216H75.727c-.33 0-.645-.13-.877-.364a1.247 1.247 0 01-.363-.88V10.01a1.244 1.244 0 011.24-1.245zm112.22 0V5.03h-3.72v-7.47h-3.72v25.73c0 1.1.435 2.156 1.21 2.934a4.126 4.126 0 002.923 1.216h3.307v-3.735h-2.48a1.245 1.245 0 01-1.24-1.245V8.765h3.72z" fill="#2CA58D"/><path d="M4.633-.14H.053v27.58h4.58V4.457H23.2c.54 0 1.057.215 1.438.598s.596.903.596 1.444V27.44h4.58V4.968a5.12 5.12 0 00-1.49-3.613 5.078 5.078 0 00-3.6-1.495H4.633zm59.52 5.108a5.137 5.137 0 00-1.319-3.424 5.098 5.098 0 00-3.26-1.66c-.166 0-.34-.025-.509-.025H34.393v4.598H58.04c.404.001.792.163 1.077.45.286.287.447.676.448 1.082v3.83a1.538 1.538 0 01-.448 1.082 1.526 1.526 0 01-1.077.45H36.683v4.598H58.04a1.534 1.534 0 011.525 1.531v3.83a1.539 1.539 0 01-.448 1.082 1.526 1.526 0 01-1.077.45H34.393v4.598h24.672c.17 0 .343 0 .509-.025a5.098 5.098 0 003.26-1.66 5.137 5.137 0 001.32-3.424V16.46a5.044 5.044 0 00-.827-2.81 5.052 5.052 0 00.826-2.809V4.968z" fill="#0A2342"/></g><defs><clipPath id="clip0_13604_14637"><path fill="#fff" d="M0 0h188v27H0z"/></clipPath></defs></svg>