<svg width="134" height="27" fill="none" xmlns="http://www.w3.org/2000/svg"><g clip-path="url(#clip0_13601_7086)"><path d="M120.99 5.204v2.602h-5.637a.866.866 0 00-.868.867v12.143h-2.601V8.096a2.891 2.891 0 012.891-2.892h6.215zm-34.114 0H66.35v15.612h2.602V7.806h7.805v13.01h2.602V7.806h6.65a1.156 1.156 0 011.156 1.156v11.854h2.602V8.096a2.891 2.891 0 00-2.891-2.892zm19.514 0H93.67v2.602h11.853a1.157 1.157 0 011.157 1.156v2.747H95.26a2.89 2.89 0 00-2.891 2.891v3.325a2.891 2.891 0 002.89 2.89h14.023V8.096a2.892 2.892 0 00-2.892-2.89zm-10.263 13.01a1.157 1.157 0 01-1.156-1.157v-1.879a.867.867 0 01.867-.867h10.842v3.903H96.127zM63.748 7.806v.289c0-.097-.005-.193-.015-.29h.015zm-13.444 0h12.143V5.204H49.726a2.891 2.891 0 00-2.891 2.891v3.325a2.891 2.891 0 002.891 2.89h10.552a.867.867 0 01.868.868v2.168a.87.87 0 01-.868.868H46.835v2.602h14.021a2.891 2.891 0 002.892-2.891V14.6a2.891 2.891 0 00-2.892-2.891H50.304a.867.867 0 01-.867-.867V8.673a.87.87 0 01.867-.867zm78.492 0V5.204h-2.602V0h-2.602v17.924a2.892 2.892 0 002.891 2.892h2.313v-2.602h-1.734a.87.87 0 01-.868-.868v-9.54h2.602z" fill="#2CA58D"/><path d="M128.796 0v2.602h2.602V22.55a.866.866 0 01-.867.867h-85.43a.867.867 0 01-.868-.867V3.47a.867.867 0 01.867-.868h75.89V0H44.522a2.89 2.89 0 00-2.89 2.891v20.237a2.891 2.891 0 002.89 2.891h86.587A2.89 2.89 0 00134 23.13V0h-5.204z" fill="#2CA58D"/><path d="M2.602 5.204H0v15.612h2.602V7.806h10.552a1.156 1.156 0 011.157 1.156v11.854h2.602V8.096a2.891 2.891 0 00-2.891-2.892H2.602zm33.825 2.891a2.891 2.891 0 00-2.89-2.89H19.514v2.601h13.443a.87.87 0 01.867.867v2.169a.87.87 0 01-.867.867H20.816v2.602h12.142a.87.87 0 01.867.867v2.168a.87.87 0 01-.867.868H19.515v2.602h14.021a2.891 2.891 0 002.891-2.891V14.6a2.845 2.845 0 00-.482-1.59 2.84 2.84 0 00.482-1.59V8.095z" fill="#fff"/></g><defs><clipPath id="clip0_13601_7086"><path fill="#fff" d="M0 0h134v26.019H0z"/></clipPath></defs></svg>