<svg width="188" height="27" viewBox="0 0 188 27" fill="none" xmlns="http://www.w3.org/2000/svg">
<g clip-path="url(#clip0_13604_14637)">
<path d="M176.787 5.03V8.765H168.727C168.398 8.765 168.082 8.89617 167.85 9.12965C167.617 9.36313 167.487 9.6798 167.487 10.01V27.44H163.767V9.18C163.767 8.07935 164.202 7.02378 164.977 6.24551C165.752 5.46723 166.804 5.03 167.9 5.03H176.787Z" fill="#2CA58D"/>
<path d="M128.013 5.03H98.6665V27.44H102.387V8.765H113.547V27.44H117.267V8.765H126.773C127.212 8.765 127.632 8.93989 127.942 9.2512C128.252 9.56251 128.427 9.98474 128.427 10.425V27.44H132.147V9.18C132.147 8.07935 131.711 7.02378 130.936 6.24551C130.161 5.46723 129.109 5.03 128.013 5.03V5.03Z" fill="#2CA58D"/>
<path d="M155.913 5.03H137.726V8.765H154.673C155.112 8.765 155.532 8.93989 155.842 9.2512C156.152 9.56251 156.326 9.98474 156.326 10.425V14.3675H140C138.904 14.3675 137.852 14.8047 137.077 15.583C136.302 16.3613 135.866 17.4169 135.866 18.5175V23.29C135.866 24.3906 136.302 25.4462 137.077 26.2245C137.852 27.0028 138.904 27.44 140 27.44H160.046V9.18C160.046 8.07935 159.611 7.02378 158.836 6.24551C158.061 5.46723 157.009 5.03 155.913 5.03V5.03ZM141.24 23.705C140.801 23.705 140.381 23.5301 140.071 23.2188C139.761 22.9075 139.586 22.4853 139.586 22.045V19.3475C139.586 19.0173 139.717 18.7006 139.95 18.4672C140.182 18.2337 140.498 18.1025 140.826 18.1025H156.326V23.705H141.24Z" fill="#2CA58D"/>
<path d="M94.946 8.765V9.18C94.946 9.0389 94.946 8.90195 94.9258 8.765H94.946Z" fill="#2CA58D"/>
<path d="M75.7266 8.765H93.0866V5.03H74.8999C73.8037 5.03 72.7524 5.46723 71.9772 6.24551C71.2021 7.02378 70.7666 8.07935 70.7666 9.18V13.9525C70.7666 15.0531 71.2021 16.1087 71.9772 16.887C72.7524 17.6653 73.8037 18.1025 74.8999 18.1025H89.9866C90.3155 18.1025 90.6309 18.2337 90.8634 18.4672C91.096 18.7006 91.2266 19.0173 91.2266 19.3475V22.46C91.2266 22.7902 91.096 23.1069 90.8634 23.3403C90.6309 23.5738 90.3155 23.705 89.9866 23.705H70.7666V27.44H90.8133C91.9095 27.44 92.9608 27.0028 93.736 26.2245C94.5111 25.4462 94.9466 24.3906 94.9466 23.29V18.5175C94.9466 17.4169 94.5111 16.3613 93.736 15.583C92.9608 14.8047 91.9095 14.3675 90.8133 14.3675H75.7266C75.3977 14.3675 75.0823 14.2363 74.8498 14.0028C74.6172 13.7694 74.4866 13.4527 74.4866 13.1225V10.01C74.4866 9.6798 74.6172 9.36313 74.8498 9.12965C75.0823 8.89617 75.3977 8.765 75.7266 8.765V8.765Z" fill="#2CA58D"/>
<path d="M187.947 8.765V5.03H184.227V-2.44H180.507V23.29C180.507 24.3906 180.942 25.4462 181.717 26.2245C182.492 27.0028 183.544 27.44 184.64 27.44H187.947V23.705H185.467C185.138 23.705 184.822 23.5738 184.59 23.3403C184.357 23.1069 184.227 22.7902 184.227 22.46V8.765H187.947Z" fill="#2CA58D"/>
<path d="M4.6332 -0.1409H0.0534668V27.44H4.6332V4.4573H23.2001C23.7395 4.4573 24.2567 4.67242 24.6381 5.05533C25.0195 5.43824 25.2337 5.95758 25.2337 6.4991V27.44H29.8135V4.96775C29.8135 3.61285 29.2774 2.31345 28.3232 1.35539C27.369 0.397331 26.0748 -0.1409 24.7253 -0.1409H4.6332Z" fill="#0A2342"/>
<path d="M64.1533 4.96775C64.1498 3.70217 63.68 2.48265 62.8345 1.54405C61.9889 0.605448 60.8274 0.0141394 59.5736 -0.116001C59.4083 -0.116001 59.2346 -0.1409 59.0652 -0.1409H34.3933V4.4573H58.0401C58.4443 4.4584 58.8316 4.62008 59.1174 4.90703C59.4032 5.19398 59.5642 5.58285 59.5653 5.98865V9.8191C59.5642 10.2249 59.4032 10.6138 59.1174 10.9007C58.8316 11.1877 58.4443 11.3494 58.0401 11.3505H36.6832V15.9486H58.0401C58.4443 15.9497 58.8316 16.1114 59.1174 16.3984C59.4032 16.6853 59.5642 17.0742 59.5653 17.48V21.3105C59.5642 21.7163 59.4032 22.1051 59.1174 22.3921C58.8316 22.679 58.4443 22.8407 58.0401 22.8418H34.3933V27.44H59.0652C59.2346 27.44 59.4083 27.44 59.5736 27.4151C60.8274 27.285 61.9889 26.6937 62.8345 25.7551C63.68 24.8164 64.1498 23.5969 64.1533 22.3314V16.4591C64.1615 15.461 63.8738 14.483 63.3266 13.6495C63.8733 12.8159 64.161 11.8381 64.1533 10.84V4.96775Z" fill="#0A2342"/>
</g>
<defs>
<clipPath id="clip0_13604_14637">
<rect width="188" height="27" fill="white"/>
</clipPath>
</defs>
</svg>
