<svg width="248" height="83" viewBox="0 0 248 83" fill="none" xmlns="http://www.w3.org/2000/svg">
<path d="M206.787 34.03V37.765H198.727C198.398 37.765 198.082 37.8962 197.85 38.1297C197.617 38.3631 197.487 38.6798 197.487 39.01V56.44H193.767V38.18C193.767 37.0794 194.202 36.0238 194.977 35.2455C195.752 34.4672 196.804 34.03 197.9 34.03H206.787Z" fill="#2CA58D"/>
<path d="M158.013 34.03H128.667V56.44H132.387V37.765H143.547V56.44H147.267V37.765H156.773C157.212 37.765 157.632 37.9399 157.942 38.2512C158.252 38.5625 158.427 38.9847 158.427 39.425V56.44H162.147V38.18C162.147 37.0794 161.711 36.0238 160.936 35.2455C160.161 34.4672 159.109 34.03 158.013 34.03Z" fill="#2CA58D"/>
<path d="M185.913 34.03H167.726V37.765H184.673C185.112 37.765 185.532 37.9399 185.842 38.2512C186.152 38.5625 186.326 38.9847 186.326 39.425V43.3675H170C168.904 43.3675 167.852 43.8047 167.077 44.583C166.302 45.3613 165.866 46.4169 165.866 47.5175V52.29C165.866 53.3906 166.302 54.4462 167.077 55.2245C167.852 56.0028 168.904 56.44 170 56.44H190.046V38.18C190.046 37.0794 189.611 36.0238 188.836 35.2455C188.061 34.4672 187.009 34.03 185.913 34.03ZM171.24 52.705C170.801 52.705 170.381 52.5301 170.071 52.2188C169.761 51.9075 169.586 51.4853 169.586 51.045V48.3475C169.586 48.0173 169.717 47.7006 169.95 47.4672C170.182 47.2337 170.498 47.1025 170.826 47.1025H186.326V52.705H171.24Z" fill="#2CA58D"/>
<path d="M124.946 37.765V38.18C124.946 38.0389 124.946 37.9019 124.926 37.765H124.946Z" fill="#2CA58D"/>
<path d="M105.727 37.765H123.087V34.03H104.9C103.804 34.03 102.752 34.4672 101.977 35.2455C101.202 36.0238 100.767 37.0794 100.767 38.18V42.9525C100.767 44.0531 101.202 45.1087 101.977 45.887C102.752 46.6653 103.804 47.1025 104.9 47.1025H119.987C120.315 47.1025 120.631 47.2337 120.863 47.4672C121.096 47.7006 121.227 48.0173 121.227 48.3475V51.46C121.227 51.7902 121.096 52.1069 120.863 52.3403C120.631 52.5738 120.315 52.705 119.987 52.705H100.767V56.44H120.813C121.91 56.44 122.961 56.0028 123.736 55.2245C124.511 54.4462 124.947 53.3906 124.947 52.29V47.5175C124.947 46.4169 124.511 45.3613 123.736 44.583C122.961 43.8047 121.91 43.3675 120.813 43.3675H105.727C105.398 43.3675 105.082 43.2363 104.85 43.0028C104.617 42.7694 104.487 42.4527 104.487 42.1225V39.01C104.487 38.6798 104.617 38.3631 104.85 38.1297C105.082 37.8962 105.398 37.765 105.727 37.765Z" fill="#2CA58D"/>
<path d="M217.947 37.765V34.03H214.227V26.56H210.507V52.29C210.507 53.3907 210.942 54.4462 211.717 55.2245C212.492 56.0028 213.544 56.44 214.64 56.44H217.947V52.705H215.467C215.138 52.705 214.822 52.5738 214.59 52.3404C214.357 52.1069 214.227 51.7902 214.227 51.46V37.765H217.947Z" fill="#2CA58D"/>
<path d="M34.6332 28.8591H30.0535V56.44H34.6332V33.4573H53.2001C53.7395 33.4573 54.2567 33.6724 54.6381 34.0553C55.0195 34.4382 55.2337 34.9576 55.2337 35.4991V56.44H59.8135V33.9677C59.8135 32.6129 59.2774 31.3134 58.3232 30.3554C57.369 29.3973 56.0748 28.8591 54.7253 28.8591H34.6332Z" fill="#0A2342"/>
<path d="M94.1533 33.9677C94.1498 32.7022 93.68 31.4827 92.8345 30.5441C91.9889 29.6054 90.8274 29.0141 89.5736 28.884C89.4083 28.884 89.2346 28.8591 89.0652 28.8591H64.3933V33.4573H88.0401C88.4443 33.4584 88.8316 33.6201 89.1174 33.907C89.4032 34.194 89.5642 34.5828 89.5653 34.9886V38.8191C89.5642 39.2249 89.4032 39.6138 89.1174 39.9007C88.8316 40.1877 88.4443 40.3494 88.0401 40.3505H66.6832V44.9487H88.0401C88.4443 44.9497 88.8316 45.1114 89.1174 45.3984C89.4032 45.6853 89.5642 46.0742 89.5653 46.48V50.3105C89.5642 50.7163 89.4032 51.1051 89.1174 51.3921C88.8316 51.679 88.4443 51.8407 88.0401 51.8418H64.3933V56.44H89.0652C89.2346 56.44 89.4083 56.44 89.5736 56.4151C90.8274 56.285 91.9889 55.6937 92.8345 54.7551C93.68 53.8164 94.1498 52.5969 94.1533 51.3314V45.4591C94.1615 44.461 93.8738 43.483 93.3266 42.6495C93.8733 41.8159 94.161 40.8381 94.1533 39.84V33.9677Z" fill="#0A2342"/>
</svg>
