<svg width="134" height="27" viewBox="0 0 134 27" fill="none" xmlns="http://www.w3.org/2000/svg">
<g clip-path="url(#clip0_13601_7086)">
<path d="M120.99 5.2041V7.80604H115.353C115.123 7.80604 114.902 7.89742 114.74 8.06007C114.577 8.22273 114.485 8.44333 114.485 8.67336V20.8158H111.884V8.09515C111.884 7.32839 112.188 6.59305 112.73 6.05087C113.272 5.50869 114.008 5.2041 114.775 5.2041H120.99Z" fill="#2CA58D"/>
<path d="M86.876 5.2041H66.3496V20.8158H68.9516V7.80604H76.7574V20.8158H79.3593V7.80604H86.0087C86.3154 7.80604 86.6096 7.92788 86.8264 8.14475C87.0433 8.36162 87.1651 8.65576 87.1651 8.96246V20.8158H89.7671V8.09515C89.7671 7.32839 89.4625 6.59305 88.9203 6.05087C88.3781 5.50869 87.6428 5.2041 86.876 5.2041Z" fill="#2CA58D"/>
<path d="M106.39 5.2041H93.6699V7.80604H105.523C105.83 7.80604 106.124 7.92788 106.341 8.14475C106.558 8.36162 106.68 8.65576 106.68 8.96246V11.709H95.2599C94.4932 11.709 93.7578 12.0135 93.2157 12.5557C92.6735 13.0979 92.3689 13.8333 92.3689 14.6V17.9247C92.3689 18.6915 92.6735 19.4268 93.2157 19.969C93.7578 20.5112 94.4932 20.8158 95.2599 20.8158H109.282V8.09515C109.282 7.32839 108.977 6.59305 108.435 6.05087C107.893 5.50869 107.157 5.2041 106.39 5.2041ZM96.1273 18.2138C95.8206 18.2138 95.5264 18.092 95.3095 17.8751C95.0927 17.6582 94.9708 17.3641 94.9708 17.0574V15.1782C94.9708 14.9482 95.0622 14.7276 95.2249 14.5649C95.3875 14.4023 95.6081 14.3109 95.8382 14.3109H106.68V18.2138H96.1273Z" fill="#2CA58D"/>
<path d="M63.7476 7.80566V8.09477C63.7476 7.9984 63.7428 7.90203 63.7332 7.80566H63.7476Z" fill="#2CA58D"/>
<path d="M50.3042 7.80604H62.4466V5.2041H49.726C48.9593 5.2041 48.2239 5.50869 47.6817 6.05087C47.1396 6.59305 46.835 7.32839 46.835 8.09515V11.4199C46.835 12.1866 47.1396 12.922 47.6817 13.4641C48.2239 14.0063 48.9593 14.3109 49.726 14.3109H60.2783C60.5084 14.3109 60.729 14.4023 60.8916 14.5649C61.0543 14.7276 61.1456 14.9482 61.1456 15.1782V17.3465C61.145 17.5763 61.0534 17.7966 60.8909 17.9591C60.7284 18.1216 60.5082 18.2132 60.2783 18.2138H46.835V20.8158H60.8565C61.6233 20.8158 62.3586 20.5112 62.9008 19.969C63.443 19.4268 63.7476 18.6915 63.7476 17.9247V14.6C63.7476 13.8333 63.443 13.0979 62.9008 12.5557C62.3586 12.0135 61.6233 11.709 60.8565 11.709H50.3042C50.0742 11.709 49.8536 11.6176 49.6909 11.4549C49.5283 11.2923 49.4369 11.0717 49.4369 10.8416V8.67336C49.4375 8.44353 49.5291 8.22329 49.6916 8.06078C49.8542 7.89826 50.0744 7.80668 50.3042 7.80604Z" fill="#2CA58D"/>
<path d="M128.796 7.80583V5.20388H126.194V0H123.592V17.9245C123.592 18.6912 123.897 19.4266 124.439 19.9688C124.981 20.5109 125.717 20.8155 126.483 20.8155H128.796V18.2136H127.062C126.832 18.2136 126.611 18.1222 126.448 17.9596C126.286 17.7969 126.194 17.5763 126.194 17.3463V7.80583H128.796Z" fill="#2CA58D"/>
<path d="M128.796 0V2.60194H131.398V22.5502C131.398 22.7802 131.307 23.0008 131.144 23.1634C130.981 23.3261 130.761 23.4175 130.531 23.4175H45.1004C44.8703 23.4175 44.6497 23.3261 44.4871 23.1634C44.3244 23.0008 44.233 22.7802 44.233 22.5502V3.46926C44.233 3.23923 44.3244 3.01863 44.4871 2.85597C44.6497 2.69332 44.8703 2.60194 45.1004 2.60194H120.99V0H44.5222C43.7554 0 43.02 0.304591 42.4779 0.846768C41.9357 1.38894 41.6311 2.12429 41.6311 2.89105V23.1284C41.6311 23.8951 41.9357 24.6305 42.4779 25.1727C43.02 25.7148 43.7554 26.0194 44.5222 26.0194H131.109C131.876 26.0194 132.611 25.7148 133.153 25.1727C133.695 24.6305 134 23.8951 134 23.1284V0H128.796Z" fill="#2CA58D"/>
<path d="M2.60194 5.2041H0V20.8158H2.60194V7.80604H13.1543C13.461 7.80604 13.7551 7.92788 13.972 8.14475C14.1888 8.36162 14.3107 8.65576 14.3107 8.96246V20.8158H16.9126V8.09515C16.9126 7.32839 16.608 6.59305 16.0659 6.05087C15.5237 5.50869 14.7883 5.2041 14.0216 5.2041H2.60194Z" fill="white"/>
<path d="M36.4273 8.09515C36.4273 7.37844 36.1611 6.68728 35.6803 6.15575C35.1995 5.62423 34.5384 5.29023 33.8253 5.21856C33.729 5.20892 33.6326 5.2041 33.5362 5.2041H19.5146V7.80604H32.958C33.1878 7.80668 33.4081 7.89826 33.5706 8.06078C33.7331 8.22329 33.8247 8.44353 33.8253 8.67336V10.8416C33.8247 11.0715 33.7331 11.2917 33.5706 11.4542C33.4081 11.6167 33.1878 11.7083 32.958 11.709H20.8156V14.3109H32.958C33.1878 14.3115 33.4081 14.4031 33.5706 14.5656C33.7331 14.7281 33.8247 14.9484 33.8253 15.1782V17.3465C33.8247 17.5763 33.7331 17.7966 33.5706 17.9591C33.4081 18.1216 33.1878 18.2132 32.958 18.2138H19.5146V20.8158H33.5362C33.6326 20.8158 33.729 20.8109 33.8253 20.8013C34.5384 20.7296 35.1995 20.3956 35.6803 19.8641C36.1611 19.3326 36.4273 18.6414 36.4273 17.9247V14.6C36.4284 14.0338 36.2607 13.4802 35.9454 13.0099C36.2607 12.5396 36.4284 11.986 36.4273 11.4199V8.09515Z" fill="white"/>
</g>
<defs>
<clipPath id="clip0_13601_7086">
<rect width="134" height="26.0194" fill="white"/>
</clipPath>
</defs>
</svg>
